SourceSerifPro_0.ufo
<glyph name="exclam" format="1">
  <advance width="286"/>
  <unicode hex="0021"/>
  <outline>
    <contour>
      <point x="143" y="-15" type="curve" smooth="yes"/>
      <point x="178" y="-15"/>
      <point x="206" y="14"/>
      <point x="206" y="48" type="curve" smooth="yes"/>
      <point x="206" y="82"/>
      <point x="178" y="112"/>
      <point x="143" y="112" type="curve" smooth="yes"/>
      <point x="108" y="112"/>
      <point x="80" y="82"/>
      <point x="80" y="48" type="curve" smooth="yes"/>
      <point x="80" y="14"/>
      <point x="108" y="-15"/>
    </contour>
    <contour>
      <point x="143" y="685" type="curve" smooth="yes"/>
      <point x="109" y="685"/>
      <point x="88" y="667"/>
      <point x="88" y="624" type="curve" smooth="yes"/>
      <point x="88" y="587"/>
      <point x="99" y="492"/>
      <point x="112" y="352" type="curve" smooth="yes"/>
      <point x="125" y="213" type="line"/>
      <point x="161" y="213" type="line"/>
      <point x="174" y="352" type="line" smooth="yes"/>
      <point x="187" y="492"/>
      <point x="198" y="587"/>
      <point x="198" y="624" type="curve" smooth="yes"/>
      <point x="198" y="667"/>
      <point x="177" y="685"/>
    </contour>
  </outline>
</glyph>
<glyph name="numbersign" format="1">
  <advance width="524"/>
  <unicode hex="0023"/>
  <outline>
    <contour>
      <point x="88" y="0" type="line"/>
      <point x="133" y="0" type="line"/>
      <point x="233" y="650" type="line"/>
      <point x="188" y="650" type="line"/>
    </contour>
    <contour>
      <point x="25" y="261" type="line"/>
      <point x="25" y="181" type="line"/>
      <point x="467" y="181" type="line"/>
      <point x="467" y="261" type="line"/>
    </contour>
    <contour>
      <point x="499" y="392" type="line"/>
      <point x="499" y="472" type="line"/>
      <point x="57" y="472" type="line"/>
      <point x="57" y="392" type="line"/>
    </contour>
    <contour>
      <point x="292" y="0" type="line"/>
      <point x="337" y="0" type="line"/>
      <point x="437" y="650" type="line"/>
      <point x="392" y="650" type="line"/>
    </contour>
  </outline>
</glyph>
<glyph name="dollar" format="1">
  <advance width="490"/>
  <unicode hex="0024"/>
  <outline>
    <contour>
      <point x="245" y="5" type="curve" smooth="yes"/>
      <point x="180" y="5"/>
      <point x="141" y="20"/>
      <point x="95" y="70" type="curve"/>
      <point x="131" y="22" type="line"/>
      <point x="103" y="122" type="line" smooth="yes"/>
      <point x="97" y="137"/>
      <point x="87" y="142"/>
      <point x="76" y="142" type="curve" smooth="yes"/>
      <point x="62" y="142"/>
      <point x="54" y="135"/>
      <point x="53" y="121" type="curve"/>
      <point x="77" y="36"/>
      <point x="138" y="-15"/>
      <point x="245" y="-15" type="curve" smooth="yes"/>
      <point x="336" y="-15"/>
      <point x="426" y="39"/>
      <point x="426" y="151" type="curve" smooth="yes"/>
      <point x="426" y="221"/>
      <point x="400" y="287"/>
      <point x="266" y="344" type="curve" smooth="yes"/>
      <point x="247" y="352" type="line" smooth="yes"/>
      <point x="154" y="391"/>
      <point x="112" y="440"/>
      <point x="112" y="508" type="curve" smooth="yes"/>
      <point x="112" y="599"/>
      <point x="172" y="647"/>
      <point x="260" y="647" type="curve" smooth="yes"/>
      <point x="316" y="647"/>
      <point x="351" y="633"/>
      <point x="395" y="583" type="curve"/>
      <point x="357" y="630" type="line"/>
      <point x="385" y="530" type="line" smooth="yes"/>
      <point x="391" y="515"/>
      <point x="401" y="510"/>
      <point x="412" y="510" type="curve" smooth="yes"/>
      <point x="426" y="510"/>
      <point x="434" y="517"/>
      <point x="435" y="531" type="curve"/>
      <point x="411" y="619"/>
      <point x="344" y="667"/>
      <point x="260" y="667" type="curve" smooth="yes"/>
      <point x="168" y="667"/>
      <point x="86" y="616"/>
      <point x="86" y="508" type="curve" smooth="yes"/>
      <point x="86" y="428"/>
      <point x="131" y="375"/>
      <point x="223" y="333" type="curve" smooth="yes"/>
      <point x="260" y="316" type="line" smooth="yes"/>
      <point x="374" y="264"/>
      <point x="400" y="218"/>
      <point x="400" y="153" type="curve" smooth="yes"/>
      <point x="400" y="60"/>
      <point x="335" y="5"/>
    </contour>
    <contour>
      <point x="263" y="323" type="line"/>
      <point x="263" y="762" type="line"/>
      <point x="241" y="762" type="line"/>
      <point x="241" y="337" type="line"/>
    </contour>
    <contour>
      <point x="243" y="-115" type="line"/>
      <point x="265" y="-115" type="line"/>
      <point x="265" y="323" type="line"/>
      <point x="243" y="337" type="line"/>
    </contour>
  </outline>
</glyph>
<glyph name="ampersand" format="1">
  <advance width="720"/>
  <unicode hex="0026"/>
  <outline>
    <contour>
      <point x="303" y="255" type="curve" smooth="yes"/>
      <point x="371" y="180"/>
      <point x="418" y="120"/>
      <point x="482" y="48" type="curve" smooth="yes"/>
      <point x="513" y="13"/>
      <point x="546" y="-10"/>
      <point x="613" y="-10" type="curve" smooth="yes"/>
      <point x="641" y="-10"/>
      <point x="664" y="-6"/>
      <point x="683" y="0" type="curve"/>
      <point x="683" y="35" type="line"/>
      <point x="559" y="59" type="line"/>
      <point x="599" y="26" type="line"/>
      <point x="540" y="98"/>
      <point x="422" y="242"/>
      <point x="357" y="310" type="curve" smooth="yes"/>
      <point x="303" y="367"/>
      <point x="259" y="414"/>
      <point x="219" y="455" type="curve" smooth="yes"/>
      <point x="179" y="496"/>
      <point x="162" y="529"/>
      <point x="162" y="563" type="curve" smooth="yes"/>
      <point x="162" y="614"/>
      <point x="203" y="650"/>
      <point x="255" y="650" type="curve" smooth="yes"/>
      <point x="305" y="650"/>
      <point x="343" y="614"/>
      <point x="343" y="555" type="curve" smooth="yes"/>
      <point x="343" y="491"/>
      <point x="297" y="440"/>
      <point x="231" y="398" type="curve"/>
      <point x="247" y="370" type="line"/>
      <point x="360" y="427"/>
      <point x="407" y="483"/>
      <point x="407" y="557" type="curve" smooth="yes"/>
      <point x="407" y="632"/>
      <point x="355" y="685"/>
      <point x="259" y="685" type="curve" smooth="yes"/>
      <point x="165" y="685"/>
      <point x="94" y="631"/>
      <point x="94" y="545" type="curve" smooth="yes"/>
      <point x="94" y="486"/>
      <point x="129" y="442"/>
      <point x="177" y="392" type="curve" smooth="yes"/>
      <point x="224" y="344"/>
      <point x="262" y="301"/>
    </contour>
    <contour>
      <point x="459" y="168" type="curve"/>
      <point x="491" y="148" type="line"/>
      <point x="552" y="237"/>
      <point x="597" y="334"/>
      <point x="635" y="441" type="curve"/>
      <point x="588" y="441" type="line"/>
      <point x="555" y="342"/>
      <point x="515" y="251"/>
    </contour>
    <contour>
      <point x="228" y="362" type="curve"/>
      <point x="206" y="393" type="line"/>
      <point x="90" y="336"/>
      <point x="25" y="272"/>
      <point x="25" y="176" type="curve" smooth="yes"/>
      <point x="25" y="71"/>
      <point x="114" y="-15"/>
      <point x="241" y="-15" type="curve" smooth="yes"/>
      <point x="363" y="-15"/>
      <point x="434" y="62"/>
      <point x="482" y="137" type="curve"/>
      <point x="452" y="162" type="line"/>
      <point x="414" y="107"/>
      <point x="341" y="48"/>
      <point x="257" y="48" type="curve" smooth="yes"/>
      <point x="164" y="48"/>
      <point x="109" y="126"/>
      <point x="109" y="202" type="curve" smooth="yes"/>
      <point x="109" y="255"/>
      <point x="134" y="319"/>
    </contour>
    <contour>
      <point x="606" y="417" type="line"/>
      <point x="696" y="432" type="line"/>
      <point x="696" y="472" type="line"/>
      <point x="481" y="472" type="line"/>
      <point x="481" y="432" type="line"/>
      <point x="586" y="417" type="line"/>
    </contour>
  </outline>
</glyph>
<glyph name="quotesingle" format="1">
  <advance width="180"/>
  <unicode hex="0027"/>
  <outline>
    <contour>
      <point x="90" y="737" type="curve" smooth="yes"/>
      <point x="59" y="737"/>
      <point x="40" y="719"/>
      <point x="40" y="676" type="curve" smooth="yes"/>
      <point x="40" y="637"/>
      <point x="57" y="533"/>
      <point x="62" y="500" type="curve" smooth="yes"/>
      <point x="72" y="431" type="line"/>
      <point x="108" y="431" type="line"/>
      <point x="118" y="500" type="line" smooth="yes"/>
      <point x="123" y="533"/>
      <point x="140" y="637"/>
      <point x="140" y="676" type="curve" smooth="yes"/>
      <point x="140" y="719"/>
      <point x="121" y="737"/>
    </contour>
  </outline>
</glyph>
<glyph name="parenleft" format="1">
  <advance width="312"/>
  <unicode hex="0028"/>
  <outline>
    <contour>
      <point x="123" y="278" type="curve" smooth="yes"/>
      <point x="123" y="458"/>
      <point x="164" y="581"/>
      <point x="290" y="764" type="curve"/>
      <point x="278" y="773" type="line"/>
      <point x="148" y="613"/>
      <point x="93" y="460"/>
      <point x="93" y="278" type="curve" smooth="yes"/>
      <point x="93" y="96"/>
      <point x="148" y="-57"/>
      <point x="278" y="-217" type="curve"/>
      <point x="290" y="-208" type="line"/>
      <point x="164" y="-25"/>
      <point x="123" y="98"/>
    </contour>
  </outline>
</glyph>
<glyph name="asterisk" format="1">
  <advance width="445"/>
  <unicode hex="002A"/>
  <outline>
    <contour>
      <point x="223" y="758" type="curve" smooth="yes"/>
      <point x="211" y="758"/>
      <point x="202" y="749"/>
      <point x="202" y="734" type="curve" smooth="yes"/>
      <point x="202" y="712"/>
      <point x="207" y="672"/>
      <point x="211" y="618" type="curve" smooth="yes"/>
      <point x="216" y="556" type="line"/>
      <point x="160" y="580" type="line" smooth="yes"/>
      <point x="98" y="606"/>
      <point x="56" y="627"/>
      <point x="43" y="627" type="curve" smooth="yes"/>
      <point x="31" y="627"/>
      <point x="22" y="618"/>
      <point x="22" y="606" type="curve" smooth="yes"/>
      <point x="22" y="585"/>
      <point x="48" y="582"/>
      <point x="153" y="558" type="curve" smooth="yes"/>
      <point x="213" y="544" type="line"/>
      <point x="173" y="498" type="line" smooth="yes"/>
      <point x="122" y="440"/>
      <point x="91" y="410"/>
      <point x="91" y="394" type="curve" smooth="yes"/>
      <point x="91" y="384"/>
      <point x="100" y="374"/>
      <point x="111" y="374" type="curve" smooth="yes"/>
      <point x="131" y="374"/>
      <point x="152" y="417"/>
      <point x="192" y="484" type="curve" smooth="yes"/>
      <point x="224" y="538" type="line"/>
      <point x="255" y="485" type="line" smooth="yes"/>
      <point x="297" y="412"/>
      <point x="315" y="374"/>
      <point x="334" y="374" type="curve" smooth="yes"/>
      <point x="346" y="374"/>
      <point x="355" y="384"/>
      <point x="355" y="394" type="curve" smooth="yes"/>
      <point x="355" y="410"/>
      <point x="321" y="444"/>
      <point x="274" y="498" type="curve" smooth="yes"/>
      <point x="233" y="545" type="line"/>
      <point x="293" y="559" type="line" smooth="yes"/>
      <point x="395" y="583"/>
      <point x="424" y="585"/>
      <point x="424" y="606" type="curve" smooth="yes"/>
      <point x="424" y="618"/>
      <point x="415" y="627"/>
      <point x="403" y="627" type="curve" smooth="yes"/>
      <point x="386" y="627"/>
      <point x="345" y="606"/>
      <point x="286" y="581" type="curve" smooth="yes"/>
      <point x="229" y="557" type="line"/>
      <point x="234" y="618" type="line" smooth="yes"/>
      <point x="238" y="672"/>
      <point x="244" y="714"/>
      <point x="244" y="734" type="curve" smooth="yes"/>
      <point x="244" y="749"/>
      <point x="235" y="758"/>
    </contour>
  </outline>
</glyph>
<glyph name="plus" format="1">
  <advance width="530"/>
  <unicode hex="002B"/>
  <outline>
    <contour>
      <point x="251" y="98" type="line"/>
      <point x="279" y="98" type="line"/>
      <point x="279" y="569" type="line"/>
      <point x="251" y="569" type="line"/>
    </contour>
    <contour>
      <point x="490" y="323" type="line"/>
      <point x="490" y="349" type="line"/>
      <point x="40" y="349" type="line"/>
      <point x="40" y="323" type="line"/>
    </contour>
  </outline>
</glyph>
<glyph name="comma" format="1">
  <advance width="300"/>
  <unicode hex="002C"/>
  <outline>
    <contour>
      <point x="183" y="-6" type="curve" smooth="yes"/>
      <point x="183" y="18"/>
      <point x="181" y="26"/>
      <point x="176" y="40" type="curve"/>
      <point x="169" y="47"/>
      <point x="159" y="50"/>
      <point x="148" y="50" type="curve" smooth="yes"/>
      <point x="132" y="50"/>
      <point x="122" y="38"/>
      <point x="122" y="24" type="curve" smooth="yes"/>
      <point x="122" y="11"/>
      <point x="130" y="2"/>
      <point x="143" y="-8" type="curve" smooth="yes"/>
      <point x="170" y="-29" type="line"/>
      <point x="164" y="-15" type="line"/>
      <point x="158" y="-86"/>
      <point x="130" y="-145"/>
      <point x="66" y="-193" type="curve"/>
      <point x="75" y="-204" type="line"/>
      <point x="141" y="-161"/>
      <point x="183" y="-81"/>
    </contour>
  </outline>
</glyph>
<glyph name="hyphen" format="1">
  <advance width="310"/>
  <unicode hex="002D"/>
  <outline>
    <contour>
      <point x="40" y="235" type="line"/>
      <point x="270" y="235" type="line"/>
      <point x="270" y="261" type="line"/>
      <point x="40" y="261" type="line"/>
    </contour>
  </outline>
</glyph>
<glyph name="period" format="1">
  <advance width="300"/>
  <unicode hex="002E"/>
  <outline>
    <contour>
      <point x="150" y="-10" type="curve" smooth="yes"/>
      <point x="169" y="-10"/>
      <point x="181" y="5"/>
      <point x="181" y="20" type="curve" smooth="yes"/>
      <point x="181" y="37"/>
      <point x="169" y="50"/>
      <point x="150" y="50" type="curve" smooth="yes"/>
      <point x="131" y="50"/>
      <point x="119" y="37"/>
      <point x="119" y="20" type="curve" smooth="yes"/>
      <point x="119" y="5"/>
      <point x="131" y="-10"/>
    </contour>
  </outline>
</glyph>
<glyph name="slash" format="1">
  <advance width="290"/>
  <unicode hex="002F"/>
  <outline>
    <contour>
      <point x="0" y="-160" type="line"/>
      <point x="23" y="-160" type="line"/>
      <point x="290" y="710" type="line"/>
      <point x="269" y="710" type="line"/>
    </contour>
  </outline>
</glyph>
<glyph name="zero" format="1">
  <advance width="490"/>
  <unicode hex="0030"/>
  <outline>
    <contour>
      <point x="86" y="325" type="curve" smooth="yes"/>
      <point x="86" y="558"/>
      <point x="168" y="647"/>
      <point x="245" y="647" type="curve" smooth="yes"/>
      <point x="322" y="647"/>
      <point x="404" y="558"/>
      <point x="404" y="325" type="curve" smooth="yes"/>
      <point x="404" y="93"/>
      <point x="322" y="5"/>
      <point x="245" y="5" type="curve" smooth="yes"/>
      <point x="168" y="5"/>
      <point x="86" y="93"/>
    </contour>
    <contour>
      <point x="245" y="667" type="curve" smooth="yes"/>
      <point x="145" y="667"/>
      <point x="54" y="566"/>
      <point x="54" y="325" type="curve" smooth="yes"/>
      <point x="54" y="85"/>
      <point x="145" y="-15"/>
      <point x="245" y="-15" type="curve" smooth="yes"/>
      <point x="345" y="-15"/>
      <point x="436" y="85"/>
      <point x="436" y="325" type="curve" smooth="yes"/>
      <point x="436" y="566"/>
      <point x="345" y="667"/>
    </contour>
  </outline>
</glyph>
<glyph name="one" format="1">
  <advance width="490"/>
  <unicode hex="0031"/>
  <outline>
    <contour>
      <point x="91" y="618" type="line"/>
      <point x="91" y="598" type="line"/>
      <point x="246" y="633" type="line"/>
      <point x="246" y="212" type="line" smooth="yes"/>
      <point x="246" y="142"/>
      <point x="245" y="71"/>
      <point x="243" y="-1" type="curve"/>
      <point x="277" y="-1" type="line"/>
      <point x="275" y="71"/>
      <point x="274" y="142"/>
      <point x="274" y="212" type="curve" smooth="yes"/>
      <point x="274" y="509" type="line"/>
      <point x="278" y="655" type="line"/>
      <point x="264" y="667" type="line"/>
    </contour>
    <contour>
      <point x="267" y="25" type="line"/>
      <point x="253" y="25" type="line"/>
      <point x="83" y="19" type="line"/>
      <point x="83" y="-1" type="line"/>
      <point x="427" y="-1" type="line"/>
      <point x="427" y="19" type="line"/>
    </contour>
  </outline>
</glyph>
<glyph name="less" format="1">
  <advance width="530"/>
  <unicode hex="003C"/>
  <outline>
    <contour>
      <point x="65" y="326" type="line"/>
      <point x="451" y="93" type="line"/>
      <point x="464" y="114" type="line"/>
      <point x="78" y="347" type="line"/>
      <point x="78" y="326" type="line"/>
      <point x="464" y="558" type="line"/>
      <point x="451" y="579" type="line"/>
      <point x="65" y="347" type="line"/>
    </contour>
  </outline>
</glyph>
<glyph name="question" format="1">
  <advance width="363"/>
  <unicode hex="003F"/>
  <outline>
    <contour>
      <point x="135" y="-10" type="curve" smooth="yes"/>
      <point x="154" y="-10"/>
      <point x="166" y="5"/>
      <point x="166" y="20" type="curve" smooth="yes"/>
      <point x="166" y="37"/>
      <point x="154" y="50"/>
      <point x="135" y="50" type="curve" smooth="yes"/>
      <point x="116" y="50"/>
      <point x="104" y="37"/>
      <point x="104" y="20" type="curve" smooth="yes"/>
      <point x="104" y="5"/>
      <point x="116" y="-10"/>
    </contour>
    <contour>
      <point x="319" y="502" type="curve" smooth="yes"/>
      <point x="319" y="621"/>
      <point x="224" y="667"/>
      <point x="100" y="698" type="curve"/>
      <point x="86" y="694"/>
      <point x="77" y="686"/>
      <point x="77" y="672" type="curve" smooth="yes"/>
      <point x="77" y="656"/>
      <point x="86" y="643"/>
      <point x="113" y="640" type="curve" smooth="yes"/>
      <point x="260" y="621" type="line"/>
      <point x="149" y="673" type="line"/>
      <point x="254" y="623"/>
      <point x="295" y="583"/>
      <point x="295" y="508" type="curve" smooth="yes"/>
      <point x="295" y="449"/>
      <point x="278" y="416"/>
      <point x="212" y="373" type="curve" smooth="yes"/>
      <point x="184" y="355" type="line" smooth="yes"/>
      <point x="130" y="320"/>
      <point x="114" y="302"/>
      <point x="114" y="273" type="curve" smooth="yes"/>
      <point x="114" y="254"/>
      <point x="118" y="240"/>
      <point x="123" y="209" type="curve" smooth="yes"/>
      <point x="129" y="173" type="line"/>
      <point x="145" y="173" type="line"/>
      <point x="140" y="258" type="line" smooth="yes"/>
      <point x="138" y="294"/>
      <point x="151" y="305"/>
      <point x="198" y="334" type="curve" smooth="yes"/>
      <point x="232" y="355" type="line" smooth="yes"/>
      <point x="289" y="390"/>
      <point x="319" y="431"/>
    </contour>
  </outline>
</glyph>
<glyph name="at" format="1">
  <advance width="815"/>
  <unicode hex="0040"/>
  <outline>
    <contour>
      <point x="354" y="79" type="curve" smooth="yes"/>
      <point x="308" y="79"/>
      <point x="272" y="119"/>
      <point x="272" y="192" type="curve" smooth="yes"/>
      <point x="272" y="255"/>
      <point x="301" y="328"/>
      <point x="337" y="376" type="curve" smooth="yes"/>
      <point x="377" y="430"/>
      <point x="418" y="443"/>
      <point x="453" y="443" type="curve" smooth="yes"/>
      <point x="491" y="443"/>
      <point x="518" y="427"/>
      <point x="538" y="388" type="curve"/>
      <point x="553" y="417" type="line"/>
      <point x="525" y="451"/>
      <point x="498" y="466"/>
      <point x="460" y="466" type="curve" smooth="yes"/>
      <point x="414" y="466"/>
      <point x="362" y="444"/>
      <point x="315" y="382" type="curve" smooth="yes"/>
      <point x="276" y="331"/>
      <point x="242" y="254"/>
      <point x="242" y="179" type="curve" smooth="yes"/>
      <point x="242" y="97"/>
      <point x="284" y="54"/>
      <point x="346" y="54" type="curve" smooth="yes"/>
      <point x="401" y="54"/>
      <point x="445" y="87"/>
      <point x="496" y="159" type="curve"/>
      <point x="489" y="169" type="line"/>
      <point x="427" y="95"/>
      <point x="389" y="79"/>
    </contour>
    <contour>
      <point x="466" y="632" type="curve" smooth="yes"/>
      <point x="642" y="632"/>
      <point x="760" y="522"/>
      <point x="760" y="346" type="curve" smooth="yes"/>
      <point x="760" y="177"/>
      <point x="652" y="74"/>
      <point x="568" y="74" type="curve" smooth="yes"/>
      <point x="515" y="74"/>
      <point x="498" y="103"/>
      <point x="510" y="161" type="curve" smooth="yes"/>
      <point x="568" y="451" type="line"/>
      <point x="555" y="456" type="line"/>
      <point x="535" y="420" type="line"/>
      <point x="481" y="155" type="line" smooth="yes"/>
      <point x="468" y="90"/>
      <point x="495" y="54"/>
      <point x="560" y="54" type="curve" smooth="yes"/>
      <point x="664" y="54"/>
      <point x="780" y="160"/>
      <point x="780" y="344" type="curve" smooth="yes"/>
      <point x="780" y="525"/>
      <point x="657" y="652"/>
      <point x="472" y="652" type="curve" smooth="yes"/>
      <point x="216" y="652"/>
      <point x="35" y="437"/>
      <point x="35" y="192" type="curve" smooth="yes"/>
      <point x="35" y="-25"/>
      <point x="174" y="-155"/>
      <point x="378" y="-155" type="curve" smooth="yes"/>
      <point x="451" y="-155"/>
      <point x="511" y="-141"/>
      <point x="567" y="-112" type="curve"/>
      <point x="561" y="-97" type="line"/>
      <point x="506" y="-123"/>
      <point x="457" y="-135"/>
      <point x="383" y="-135" type="curve" smooth="yes"/>
      <point x="202" y="-135"/>
      <point x="63" y="-10"/>
      <point x="63" y="198" type="curve" smooth="yes"/>
      <point x="63" y="435"/>
      <point x="240" y="632"/>
    </contour>
  </outline>
</glyph>
<glyph name="A" format="1">
  <advance width="663"/>
  <unicode hex="0041"/>
  <outline>
    <contour>
      <point x="509" y="55" type="line"/>
      <point x="383" y="40" type="line"/>
      <point x="383" y="0" type="line"/>
      <point x="653" y="0" type="line"/>
      <point x="653" y="40" type="line"/>
      <point x="529" y="55" type="line"/>
    </contour>
    <contour>
      <point x="105" y="55" type="line"/>
      <point x="5" y="40" type="line"/>
      <point x="5" y="0" type="line"/>
      <point x="235" y="0" type="line"/>
      <point x="235" y="40" type="line"/>
      <point x="125" y="55" type="line"/>
    </contour>
    <contour>
      <point x="472" y="219" type="line"/>
      <point x="456" y="265" type="line"/>
      <point x="186" y="265" type="line"/>
      <point x="170" y="219" type="line"/>
    </contour>
    <contour>
      <point x="303" y="670" type="line"/>
      <point x="71" y="0" type="line"/>
      <point x="118" y="0" type="line"/>
      <point x="322" y="594" type="line"/>
      <point x="299" y="594" type="line"/>
      <point x="500" y="0" type="line"/>
      <point x="593" y="0" type="line"/>
      <point x="363" y="670" type="line"/>
    </contour>
  </outline>
</glyph>
<glyph name="B" format="1">
  <advance width="594"/>
  <unicode hex="0042"/>
  <outline>
    <contour>
      <point x="167" y="310" type="line" smooth="yes"/>
      <point x="167" y="206"/>
      <point x="167" y="102"/>
      <point x="165" y="0" type="curve"/>
      <point x="199" y="0" type="line"/>
      <point x="197" y="102"/>
      <point x="197" y="206"/>
      <point x="197" y="350" type="curve" smooth="yes"/>
      <point x="197" y="357" type="line" smooth="yes"/>
      <point x="197" y="471"/>
      <point x="197" y="575"/>
      <point x="199" y="677" type="curve"/>
      <point x="165" y="677" type="line"/>
      <point x="167" y="575"/>
      <point x="167" y="471"/>
      <point x="167" y="367" type="curve" smooth="yes"/>
    </contour>
    <contour>
      <point x="175" y="650" type="line"/>
      <point x="182" y="650" type="line"/>
      <point x="182" y="677" type="line"/>
      <point x="58" y="677" type="line"/>
      <point x="58" y="657" type="line"/>
    </contour>
    <contour>
      <point x="175" y="27" type="line"/>
      <point x="58" y="20" type="line"/>
      <point x="58" y="0" type="line"/>
      <point x="182" y="0" type="line"/>
      <point x="182" y="27" type="line"/>
    </contour>
    <contour>
      <point x="182" y="343" type="line"/>
      <point x="283" y="343" type="line" smooth="yes"/>
      <point x="445" y="343"/>
      <point x="514" y="283"/>
      <point x="514" y="181" type="curve" smooth="yes"/>
      <point x="514" y="79"/>
      <point x="439" y="22"/>
      <point x="314" y="22" type="curve" smooth="yes"/>
      <point x="182" y="22" type="line"/>
      <point x="182" y="0" type="line"/>
      <point x="313" y="0" type="line" smooth="yes"/>
      <point x="469" y="0"/>
      <point x="544" y="77"/>
      <point x="544" y="179" type="curve" smooth="yes"/>
      <point x="544" y="279"/>
      <point x="476" y="355"/>
      <point x="314" y="357" type="curve"/>
      <point x="304" y="349" type="line"/>
      <point x="445" y="360"/>
      <point x="509" y="435"/>
      <point x="509" y="519" type="curve" smooth="yes"/>
      <point x="509" y="614"/>
      <point x="443" y="677"/>
      <point x="297" y="677" type="curve" smooth="yes"/>
      <point x="182" y="677" type="line"/>
      <point x="182" y="655" type="line"/>
      <point x="286" y="655" type="line" smooth="yes"/>
      <point x="431" y="655"/>
      <point x="481" y="598"/>
      <point x="481" y="522" type="curve" smooth="yes"/>
      <point x="481" y="427"/>
      <point x="406" y="363"/>
      <point x="270" y="363" type="curve" smooth="yes"/>
      <point x="182" y="363" type="line"/>
    </contour>
  </outline>
</glyph>
<glyph name="C" format="1">
  <advance width="632"/>
  <unicode hex="0043"/>
  <outline>
    <contour>
      <point x="390" y="35" type="curve" smooth="yes"/>
      <point x="251" y="35"/>
      <point x="153" y="140"/>
      <point x="153" y="335" type="curve" smooth="yes"/>
      <point x="153" y="530"/>
      <point x="262" y="635"/>
      <point x="397" y="635" type="curve" smooth="yes"/>
      <point x="451" y="635"/>
      <point x="501" y="619"/>
      <point x="558" y="571" type="curve"/>
      <point x="496" y="640" type="line"/>
      <point x="521" y="492" type="line"/>
      <point x="582" y="492" type="line"/>
      <point x="578" y="637" type="line"/>
      <point x="510" y="676"/>
      <point x="439" y="685"/>
      <point x="385" y="685" type="curve" smooth="yes"/>
      <point x="190" y="685"/>
      <point x="48" y="535"/>
      <point x="48" y="335" type="curve" smooth="yes"/>
      <point x="48" y="131"/>
      <point x="184" y="-15"/>
      <point x="386" y="-15" type="curve" smooth="yes"/>
      <point x="456" y="-15"/>
      <point x="525" y="-1"/>
      <point x="588" y="33" type="curve"/>
      <point x="592" y="178" type="line"/>
      <point x="531" y="178" type="line"/>
      <point x="506" y="30" type="line"/>
      <point x="568" y="99" type="line"/>
      <point x="511" y="52"/>
      <point x="447" y="35"/>
    </contour>
  </outline>
</glyph>
<glyph name="D" format="1">
  <advance width="709"/>
  <unicode hex="0044"/>
  <outline>
    <contour>
      <point x="167" y="340" type="line" smooth="yes"/>
      <point x="167" y="206"/>
      <point x="167" y="102"/>
      <point x="165" y="0" type="curve"/>
      <point x="199" y="0" type="line"/>
      <point x="197" y="102"/>
      <point x="197" y="206"/>
      <point x="197" y="340" type="curve" smooth="yes"/>
      <point x="197" y="355" type="line" smooth="yes"/>
      <point x="197" y="471"/>
      <point x="197" y="575"/>
      <point x="199" y="677" type="curve"/>
      <point x="165" y="677" type="line"/>
      <point x="167" y="575"/>
      <point x="167" y="471"/>
      <point x="167" y="355" type="curve" smooth="yes"/>
    </contour>
    <contour>
      <point x="175" y="650" type="line"/>
      <point x="182" y="650" type="line"/>
      <point x="182" y="677" type="line"/>
      <point x="58" y="677" type="line"/>
      <point x="58" y="657" type="line"/>
    </contour>
    <contour>
      <point x="175" y="27" type="line"/>
      <point x="58" y="20" type="line"/>
      <point x="58" y="0" type="line"/>
      <point x="182" y="0" type="line"/>
      <point x="182" y="27" type="line"/>
    </contour>
    <contour>
      <point x="182" y="0" type="line"/>
      <point x="306" y="0" type="line" smooth="yes"/>
      <point x="527" y="0"/>
      <point x="645" y="135"/>
      <point x="645" y="338" type="curve" smooth="yes"/>
      <point x="645" y="555"/>
      <point x="525" y="677"/>
      <point x="315" y="677" type="curve" smooth="yes"/>
      <point x="182" y="677" type="line"/>
      <point x="182" y="655" type="line"/>
      <point x="308" y="655" type="line" smooth="yes"/>
      <point x="508" y="655"/>
      <point x="613" y="544"/>
      <point x="613" y="338" type="curve" smooth="yes"/>
      <point x="613" y="146"/>
      <point x="510" y="22"/>
      <point x="293" y="22" type="curve" smooth="yes"/>
      <point x="182" y="22" type="line"/>
    </contour>
  </outline>
</glyph>
<glyph name="E" format="1">
  <advance width="601"/>
  <unicode hex="0045"/>
  <outline>
    <contour>
      <point x="175" y="650" type="line"/>
      <point x="182" y="650" type="line"/>
      <point x="182" y="677" type="line"/>
      <point x="58" y="677" type="line"/>
      <point x="58" y="657" type="line"/>
    </contour>
    <contour>
      <point x="175" y="27" type="line"/>
      <point x="58" y="20" type="line"/>
      <point x="58" y="0" type="line"/>
      <point x="182" y="0" type="line"/>
      <point x="182" y="27" type="line"/>
    </contour>
    <contour>
      <point x="167" y="310" type="line" smooth="yes"/>
      <point x="167" y="206"/>
      <point x="167" y="102"/>
      <point x="165" y="0" type="curve"/>
      <point x="199" y="0" type="line"/>
      <point x="197" y="102"/>
      <point x="197" y="206"/>
      <point x="197" y="340" type="curve" smooth="yes"/>
      <point x="197" y="347" type="line" smooth="yes"/>
      <point x="197" y="471"/>
      <point x="197" y="575"/>
      <point x="199" y="677" type="curve"/>
      <point x="165" y="677" type="line"/>
      <point x="167" y="575"/>
      <point x="167" y="471"/>
      <point x="167" y="367" type="curve" smooth="yes"/>
    </contour>
    <contour>
      <point x="394" y="332" type="line"/>
      <point x="404" y="234" type="line"/>
      <point x="423" y="234" type="line"/>
      <point x="423" y="450" type="line"/>
      <point x="404" y="450" type="line"/>
      <point x="394" y="352" type="line"/>
    </contour>
    <contour>
      <point x="532" y="153" type="line"/>
      <point x="513" y="0" type="line"/>
      <point x="527" y="22" type="line"/>
      <point x="182" y="22" type="line"/>
      <point x="182" y="0" type="line"/>
      <point x="546" y="0" type="line"/>
      <point x="556" y="153" type="line"/>
    </contour>
    <contour>
      <point x="518" y="524" type="line"/>
      <point x="542" y="524" type="line"/>
      <point x="532" y="677" type="line"/>
      <point x="182" y="677" type="line"/>
      <point x="182" y="655" type="line"/>
      <point x="513" y="655" type="line"/>
      <point x="499" y="677" type="line"/>
    </contour>
    <contour>
      <point x="403" y="353" type="line"/>
      <point x="182" y="353" type="line"/>
      <point x="182" y="331" type="line"/>
      <point x="403" y="331" type="line"/>
    </contour>
  </outline>
</glyph>
<glyph name="F" format="1">
  <advance width="579"/>
  <unicode hex="0046"/>
  <outline>
    <contour>
      <point x="175" y="27" type="line"/>
      <point x="58" y="20" type="line"/>
      <point x="58" y="0" type="line"/>
      <point x="316" y="0" type="line"/>
      <point x="316" y="20" type="line"/>
      <point x="189" y="27" type="line"/>
    </contour>
    <contour>
      <point x="167" y="310" type="line" smooth="yes"/>
      <point x="167" y="206"/>
      <point x="167" y="102"/>
      <point x="165" y="0" type="curve"/>
      <point x="199" y="0" type="line"/>
      <point x="197" y="102"/>
      <point x="197" y="206"/>
      <point x="197" y="340" type="curve" smooth="yes"/>
      <point x="197" y="347" type="line" smooth="yes"/>
      <point x="197" y="471"/>
      <point x="197" y="575"/>
      <point x="199" y="677" type="curve"/>
      <point x="165" y="677" type="line"/>
      <point x="167" y="575"/>
      <point x="167" y="471"/>
      <point x="167" y="367" type="curve" smooth="yes"/>
    </contour>
    <contour>
      <point x="175" y="650" type="line"/>
      <point x="182" y="650" type="line"/>
      <point x="182" y="677" type="line"/>
      <point x="58" y="677" type="line"/>
      <point x="58" y="657" type="line"/>
    </contour>
    <contour>
      <point x="520" y="524" type="line"/>
      <point x="544" y="524" type="line"/>
      <point x="534" y="677" type="line"/>
      <point x="182" y="677" type="line"/>
      <point x="182" y="655" type="line"/>
      <point x="515" y="655" type="line"/>
      <point x="501" y="677" type="line"/>
    </contour>
    <contour>
      <point x="394" y="332" type="line"/>
      <point x="404" y="234" type="line"/>
      <point x="423" y="234" type="line"/>
      <point x="423" y="450" type="line"/>
      <point x="404" y="450" type="line"/>
      <point x="394" y="352" type="line"/>
    </contour>
    <contour>
      <point x="403" y="353" type="line"/>
      <point x="182" y="353" type="line"/>
      <point x="182" y="331" type="line"/>
      <point x="403" y="331" type="line"/>
    </contour>
  </outline>
</glyph>
<glyph name="G" format="1">
  <advance width="685"/>
  <unicode hex="0047"/>
  <outline>
    <contour>
      <point x="577" y="293" type="line"/>
      <point x="591" y="293" type="line"/>
      <point x="677" y="300" type="line"/>
      <point x="677" y="320" type="line"/>
      <point x="447" y="320" type="line"/>
      <point x="447" y="300" type="line"/>
    </contour>
    <contour>
      <point x="599" y="97" type="line" smooth="yes"/>
      <point x="599" y="191"/>
      <point x="600" y="257"/>
      <point x="602" y="320" type="curve"/>
      <point x="566" y="320" type="line"/>
      <point x="568" y="246"/>
      <point x="569" y="171"/>
      <point x="569" y="97" type="curve" smooth="yes"/>
      <point x="569" y="50" type="line"/>
      <point x="582" y="66" type="line"/>
      <point x="522" y="25"/>
      <point x="461" y="7"/>
      <point x="388" y="7" type="curve" smooth="yes"/>
      <point x="212" y="7"/>
      <point x="96" y="138"/>
      <point x="96" y="338" type="curve" smooth="yes"/>
      <point x="96" y="537"/>
      <point x="213" y="670"/>
      <point x="394" y="670" type="curve" smooth="yes"/>
      <point x="473" y="670"/>
      <point x="520" y="650"/>
      <point x="576" y="610" type="curve"/>
      <point x="555" y="639" type="line"/>
      <point x="573" y="494" type="line"/>
      <point x="597" y="494" type="line"/>
      <point x="593" y="633" type="line"/>
      <point x="533" y="671"/>
      <point x="477" y="692"/>
      <point x="391" y="692" type="curve" smooth="yes"/>
      <point x="199" y="692"/>
      <point x="64" y="548"/>
      <point x="64" y="338" type="curve" smooth="yes"/>
      <point x="64" y="129"/>
      <point x="194" y="-15"/>
      <point x="390" y="-15" type="curve" smooth="yes"/>
      <point x="468" y="-15"/>
      <point x="525" y="1"/>
      <point x="599" y="46" type="curve"/>
    </contour>
  </outline>
</glyph>
<glyph name="H" format="1">
  <advance width="795"/>
  <unicode hex="0048"/>
  <outline>
    <contour>
      <point x="606" y="650" type="line"/>
      <point x="620" y="650" type="line"/>
      <point x="737" y="657" type="line"/>
      <point x="737" y="677" type="line"/>
      <point x="489" y="677" type="line"/>
      <point x="489" y="657" type="line"/>
    </contour>
    <contour>
      <point x="606" y="27" type="line"/>
      <point x="489" y="20" type="line"/>
      <point x="489" y="0" type="line"/>
      <point x="737" y="0" type="line"/>
      <point x="737" y="20" type="line"/>
      <point x="620" y="27" type="line"/>
    </contour>
    <contour>
      <point x="597" y="352" type="line" smooth="yes"/>
      <point x="597" y="206"/>
      <point x="597" y="102"/>
      <point x="595" y="0" type="curve"/>
      <point x="629" y="0" type="line"/>
      <point x="627" y="102"/>
      <point x="627" y="206"/>
      <point x="627" y="310" type="curve" smooth="yes"/>
      <point x="627" y="367" type="line" smooth="yes"/>
      <point x="627" y="471"/>
      <point x="627" y="575"/>
      <point x="629" y="677" type="curve"/>
      <point x="595" y="677" type="line"/>
      <point x="597" y="575"/>
      <point x="597" y="471"/>
      <point x="597" y="367" type="curve" smooth="yes"/>
    </contour>
    <contour>
      <point x="167" y="310" type="line" smooth="yes"/>
      <point x="167" y="206"/>
      <point x="167" y="102"/>
      <point x="165" y="0" type="curve"/>
      <point x="199" y="0" type="line"/>
      <point x="197" y="102"/>
      <point x="197" y="206"/>
      <point x="197" y="352" type="curve" smooth="yes"/>
      <point x="197" y="367" type="line" smooth="yes"/>
      <point x="197" y="471"/>
      <point x="197" y="575"/>
      <point x="199" y="677" type="curve"/>
      <point x="165" y="677" type="line"/>
      <point x="167" y="575"/>
      <point x="167" y="471"/>
      <point x="167" y="367" type="curve" smooth="yes"/>
    </contour>
    <contour>
      <point x="175" y="650" type="line"/>
      <point x="189" y="650" type="line"/>
      <point x="306" y="657" type="line"/>
      <point x="306" y="677" type="line"/>
      <point x="58" y="677" type="line"/>
      <point x="58" y="657" type="line"/>
    </contour>
    <contour>
      <point x="175" y="27" type="line"/>
      <point x="58" y="20" type="line"/>
      <point x="58" y="0" type="line"/>
      <point x="306" y="0" type="line"/>
      <point x="306" y="20" type="line"/>
      <point x="189" y="27" type="line"/>
    </contour>
    <contour>
      <point x="613" y="348" type="line"/>
      <point x="613" y="370" type="line"/>
      <point x="182" y="370" type="line"/>
      <point x="182" y="348" type="line"/>
    </contour>
  </outline>
</glyph>
<glyph name="I" format="1">
  <advance width="364.0"/>
  <unicode hex="0049"/>
  <outline>
    <contour>
      <point x="175" y="27" type="line"/>
      <point x="58" y="20" type="line"/>
      <point x="58" y="0" type="line"/>
      <point x="306" y="0" type="line"/>
      <point x="306" y="20" type="line"/>
      <point x="189" y="27" type="line"/>
    </contour>
    <contour>
      <point x="175" y="650" type="line"/>
      <point x="189" y="650" type="line"/>
      <point x="306" y="657" type="line"/>
      <point x="306" y="677" type="line"/>
      <point x="58" y="677" type="line"/>
      <point x="58" y="657" type="line"/>
    </contour>
    <contour>
      <point x="167" y="310" type="line" smooth="yes"/>
      <point x="167" y="206"/>
      <point x="167" y="102"/>
      <point x="165" y="0" type="curve"/>
      <point x="199" y="0" type="line"/>
      <point x="197" y="102"/>
      <point x="197" y="206"/>
      <point x="197" y="310" type="curve" smooth="yes"/>
      <point x="197" y="367" type="line" smooth="yes"/>
      <point x="197" y="471"/>
      <point x="197" y="575"/>
      <point x="199" y="677" type="curve"/>
      <point x="165" y="677" type="line"/>
      <point x="167" y="575"/>
      <point x="167" y="471"/>
      <point x="167" y="367" type="curve" smooth="yes"/>
    </contour>
  </outline>
</glyph>
<glyph name="J" format="1">
  <advance width="373"/>
  <unicode hex="004A"/>
  <outline>
    <contour>
      <point x="188" y="615" type="line"/>
      <point x="208" y="615" type="line"/>
      <point x="338" y="630" type="line"/>
      <point x="338" y="670" type="line"/>
      <point x="48" y="670" type="line"/>
      <point x="48" y="630" type="line"/>
    </contour>
    <contour>
      <point x="155" y="169"/>
      <point x="160" y="65"/>
      <point x="160" y="5" type="curve" smooth="yes"/>
      <point x="160" y="-58"/>
      <point x="143" y="-96"/>
      <point x="108" y="-128" type="curve"/>
      <point x="127" y="-120" type="line"/>
      <point x="94" y="-95" type="line" smooth="yes"/>
      <point x="66" y="-74"/>
      <point x="45" y="-66"/>
      <point x="20" y="-66" type="curve" smooth="yes"/>
      <point x="-11" y="-66"/>
      <point x="-34" y="-78"/>
      <point x="-40" y="-114" type="curve"/>
      <point x="-31" y="-152"/>
      <point x="8" y="-162"/>
      <point x="45" y="-162" type="curve" smooth="yes"/>
      <point x="128" y="-162"/>
      <point x="212" y="-113"/>
      <point x="231" y="-13" type="curve" smooth="yes"/>
      <point x="241" y="38"/>
      <point x="243" y="89"/>
      <point x="243" y="201" type="curve" smooth="yes"/>
      <point x="243" y="360" type="line" smooth="yes"/>
      <point x="243" y="465"/>
      <point x="243" y="569"/>
      <point x="246" y="670" type="curve"/>
      <point x="150" y="670" type="line"/>
    </contour>
  </outline>
</glyph>
<glyph name="K" format="1">
  <advance width="665"/>
  <unicode hex="004B"/>
  <outline>
    <contour>
      <point x="140" y="310" type="line" smooth="yes"/>
      <point x="140" y="205"/>
      <point x="140" y="101"/>
      <point x="137" y="0" type="curve"/>
      <point x="230" y="0" type="line"/>
      <point x="227" y="103"/>
      <point x="227" y="207"/>
      <point x="227" y="284" type="curve" smooth="yes"/>
      <point x="227" y="360" type="line" smooth="yes"/>
      <point x="227" y="465"/>
      <point x="227" y="569"/>
      <point x="230" y="670" type="curve"/>
      <point x="137" y="670" type="line"/>
      <point x="140" y="567"/>
      <point x="140" y="463"/>
      <point x="140" y="360" type="curve" smooth="yes"/>
    </contour>
    <contour>
      <point x="175" y="55" type="line"/>
      <point x="45" y="40" type="line"/>
      <point x="45" y="0" type="line"/>
      <point x="325" y="0" type="line"/>
      <point x="325" y="40" type="line"/>
      <point x="195" y="55" type="line"/>
    </contour>
    <contour>
      <point x="175" y="615" type="line"/>
      <point x="195" y="615" type="line"/>
      <point x="325" y="630" type="line"/>
      <point x="325" y="670" type="line"/>
      <point x="45" y="670" type="line"/>
      <point x="45" y="630" type="line"/>
    </contour>
    <contour>
      <point x="516" y="615" type="line"/>
      <point x="536" y="615" type="line"/>
      <point x="646" y="630" type="line"/>
      <point x="646" y="670" type="line"/>
      <point x="416" y="670" type="line"/>
      <point x="416" y="630" type="line"/>
    </contour>
    <contour>
      <point x="311" y="368" type="line"/>
      <point x="516" y="0" type="line"/>
      <point x="610" y="0" type="line"/>
      <point x="363" y="430" type="line"/>
    </contour>
    <contour>
      <point x="183" y="177" type="line"/>
      <point x="593" y="670" type="line"/>
      <point x="533" y="670" type="line"/>
      <point x="183" y="242" type="line"/>
    </contour>
    <contour>
      <point x="405" y="0" type="line"/>
      <point x="660" y="0" type="line"/>
      <point x="660" y="40" type="line"/>
      <point x="540" y="55" type="line"/>
      <point x="525" y="55" type="line"/>
      <point x="405" y="40" type="line"/>
    </contour>
  </outline>
</glyph>
<glyph name="L" format="1">
  <advance width="597"/>
  <unicode hex="004C"/>
  <outline>
    <contour>
      <point x="175" y="55" type="line"/>
      <point x="45" y="40" type="line"/>
      <point x="45" y="0" type="line"/>
      <point x="185" y="0" type="line"/>
      <point x="185" y="55" type="line"/>
    </contour>
    <contour>
      <point x="175" y="615" type="line"/>
      <point x="195" y="615" type="line"/>
      <point x="325" y="630" type="line"/>
      <point x="325" y="670" type="line"/>
      <point x="45" y="670" type="line"/>
      <point x="45" y="630" type="line"/>
    </contour>
    <contour>
      <point x="140" y="360" type="curve" smooth="yes"/>
      <point x="140" y="310" type="line" smooth="yes"/>
      <point x="140" y="207"/>
      <point x="140" y="103"/>
      <point x="137" y="0" type="curve"/>
      <point x="233" y="0" type="line"/>
      <point x="230" y="101"/>
      <point x="230" y="205"/>
      <point x="230" y="310" type="curve" smooth="yes"/>
      <point x="230" y="360" type="line" smooth="yes"/>
      <point x="230" y="463"/>
      <point x="230" y="567"/>
      <point x="233" y="670" type="curve"/>
      <point x="137" y="670" type="line"/>
      <point x="140" y="569"/>
      <point x="140" y="465"/>
    </contour>
    <contour>
      <point x="492" y="188" type="line"/>
      <point x="452" y="0" type="line"/>
      <point x="507" y="50" type="line"/>
      <point x="185" y="50" type="line"/>
      <point x="185" y="0" type="line"/>
      <point x="542" y="0" type="line"/>
      <point x="552" y="188" type="line"/>
    </contour>
  </outline>
</glyph>
<glyph name="M" format="1">
  <advance width="897"/>
  <unicode hex="004D"/>
  <outline>
    <contour>
      <point x="36" y="677" type="line"/>
      <point x="36" y="657" type="line"/>
      <point x="168" y="646" type="line"/>
      <point x="141" y="662" type="line"/>
      <point x="426" y="0" type="line"/>
      <point x="445" y="0" type="line"/>
      <point x="734" y="677" type="line"/>
      <point x="708" y="677" type="line"/>
      <point x="431" y="28" type="line"/>
      <point x="446" y="28" type="line"/>
      <point x="164" y="677" type="line"/>
    </contour>
    <contour>
      <point x="700" y="310" type="line" smooth="yes"/>
      <point x="700" y="206"/>
      <point x="700" y="102"/>
      <point x="698" y="0" type="curve"/>
      <point x="732" y="0" type="line"/>
      <point x="730" y="102"/>
      <point x="730" y="206"/>
      <point x="730" y="310" type="curve" smooth="yes"/>
      <point x="730" y="367" type="line" smooth="yes"/>
      <point x="730" y="471"/>
      <point x="730" y="575"/>
      <point x="732" y="677" type="curve"/>
      <point x="712" y="677" type="line"/>
      <point x="700" y="634" type="line"/>
    </contour>
    <contour>
      <point x="143" y="27" type="line"/>
      <point x="46" y="20" type="line"/>
      <point x="46" y="0" type="line"/>
      <point x="264" y="0" type="line"/>
      <point x="264" y="20" type="line"/>
      <point x="157" y="27" type="line"/>
    </contour>
    <contour>
      <point x="708" y="27" type="line"/>
      <point x="601" y="20" type="line"/>
      <point x="601" y="0" type="line"/>
      <point x="839" y="0" type="line"/>
      <point x="839" y="20" type="line"/>
      <point x="722" y="27" type="line"/>
    </contour>
    <contour>
      <point x="715" y="650" type="line"/>
      <point x="722" y="650" type="line"/>
      <point x="839" y="657" type="line"/>
      <point x="839" y="677" type="line"/>
      <point x="715" y="677" type="line"/>
    </contour>
    <contour>
      <point x="138" y="677" type="line"/>
      <point x="138" y="0" type="line"/>
      <point x="162" y="0" type="line"/>
      <point x="162" y="677" type="line"/>
    </contour>
  </outline>
</glyph>
<glyph name="N" format="1">
  <advance width="735"/>
  <unicode hex="004E"/>
  <outline>
    <contour>
      <point x="610" y="40" type="line"/>
      <point x="610" y="670" type="line"/>
      <point x="560" y="670" type="line"/>
      <point x="560" y="40" type="line"/>
    </contour>
    <contour>
      <point x="595" y="615" type="line"/>
      <point x="695" y="630" type="line"/>
      <point x="695" y="670" type="line"/>
      <point x="455" y="670" type="line"/>
      <point x="455" y="630" type="line"/>
      <point x="575" y="615" type="line"/>
    </contour>
    <contour>
      <point x="145" y="55" type="line"/>
      <point x="40" y="40" type="line"/>
      <point x="40" y="0" type="line"/>
      <point x="280" y="0" type="line"/>
      <point x="280" y="40" type="line"/>
      <point x="165" y="55" type="line"/>
    </contour>
    <contour>
      <point x="125" y="670" type="line"/>
      <point x="125" y="0" type="line"/>
      <point x="175" y="0" type="line"/>
      <point x="175" y="670" type="line"/>
    </contour>
    <contour>
      <point x="45" y="670" type="line"/>
      <point x="45" y="630" type="line"/>
      <point x="165" y="615" type="line"/>
      <point x="103" y="639" type="line"/>
      <point x="578" y="-10" type="line"/>
      <point x="610" y="-10" type="line"/>
      <point x="610" y="100" type="line"/>
      <point x="195" y="670" type="line"/>
    </contour>
  </outline>
</glyph>
<glyph name="O" format="1">
  <advance width="707"/>
  <unicode hex="004F"/>
  <outline>
    <contour>
      <point x="153" y="335" type="curve" smooth="yes"/>
      <point x="153" y="485"/>
      <point x="213" y="635"/>
      <point x="354" y="635" type="curve" smooth="yes"/>
      <point x="495" y="635"/>
      <point x="554" y="485"/>
      <point x="554" y="335" type="curve" smooth="yes"/>
      <point x="554" y="185"/>
      <point x="495" y="35"/>
      <point x="354" y="35" type="curve" smooth="yes"/>
      <point x="213" y="35"/>
      <point x="153" y="185"/>
    </contour>
    <contour>
      <point x="354" y="685" type="curve" smooth="yes"/>
      <point x="200" y="685"/>
      <point x="48" y="554"/>
      <point x="48" y="335" type="curve" smooth="yes"/>
      <point x="48" y="107"/>
      <point x="199" y="-15"/>
      <point x="354" y="-15" type="curve" smooth="yes"/>
      <point x="509" y="-15"/>
      <point x="659" y="116"/>
      <point x="659" y="335" type="curve" smooth="yes"/>
      <point x="659" y="563"/>
      <point x="508" y="685"/>
    </contour>
  </outline>
</glyph>
<glyph name="P" format="1">
  <advance width="578"/>
  <unicode hex="0050"/>
  <outline>
    <contour>
      <point x="175" y="650" type="line"/>
      <point x="182" y="650" type="line"/>
      <point x="182" y="677" type="line"/>
      <point x="58" y="677" type="line"/>
      <point x="58" y="657" type="line"/>
    </contour>
    <contour>
      <point x="175" y="27" type="line"/>
      <point x="58" y="20" type="line"/>
      <point x="58" y="0" type="line"/>
      <point x="316" y="0" type="line"/>
      <point x="316" y="20" type="line"/>
      <point x="189" y="27" type="line"/>
    </contour>
    <contour>
      <point x="167" y="310" type="line" smooth="yes"/>
      <point x="167" y="206"/>
      <point x="167" y="102"/>
      <point x="165" y="0" type="curve"/>
      <point x="199" y="0" type="line"/>
      <point x="197" y="102"/>
      <point x="197" y="206"/>
      <point x="197" y="300" type="curve" smooth="yes"/>
      <point x="197" y="367" type="line" smooth="yes"/>
      <point x="197" y="471"/>
      <point x="197" y="575"/>
      <point x="199" y="677" type="curve"/>
      <point x="165" y="677" type="line"/>
      <point x="167" y="575"/>
      <point x="167" y="471"/>
      <point x="167" y="367" type="curve" smooth="yes"/>
    </contour>
    <contour>
      <point x="530" y="484" type="curve" smooth="yes"/>
      <point x="530" y="604"/>
      <point x="458" y="677"/>
      <point x="310" y="677" type="curve" smooth="yes"/>
      <point x="182" y="677" type="line"/>
      <point x="182" y="655" type="line"/>
      <point x="305" y="655" type="line" smooth="yes"/>
      <point x="443" y="655"/>
      <point x="501" y="596"/>
      <point x="501" y="488" type="curve" smooth="yes"/>
      <point x="501" y="375"/>
      <point x="433" y="305"/>
      <point x="256" y="305" type="curve" smooth="yes"/>
      <point x="182" y="305" type="line"/>
      <point x="182" y="285" type="line"/>
      <point x="268" y="285" type="line" smooth="yes"/>
      <point x="443" y="285"/>
      <point x="530" y="368"/>
    </contour>
  </outline>
</glyph>
<glyph name="Q" format="1">
  <advance width="707"/>
  <unicode hex="0051"/>
  <outline>
    <contour>
      <point x="500" y="-217" type="curve" smooth="yes"/>
      <point x="541" y="-217"/>
      <point x="588" y="-207"/>
      <point x="623" y="-185" type="curve"/>
      <point x="612" y="-150" type="line"/>
      <point x="580" y="-159"/>
      <point x="554" y="-162"/>
      <point x="534" y="-162" type="curve" smooth="yes"/>
      <point x="442" y="-162"/>
      <point x="387" y="-98"/>
      <point x="394" y="16" type="curve"/>
      <point x="304" y="31" type="line"/>
      <point x="304" y="-6" type="line" smooth="yes"/>
      <point x="304" y="-118"/>
      <point x="374" y="-217"/>
    </contour>
    <component base="O"/>
  </outline>
</glyph>
<glyph name="R" format="1">
  <advance width="648"/>
  <unicode hex="0052"/>
  <outline>
    <contour>
      <point x="175" y="27" type="line"/>
      <point x="58" y="20" type="line"/>
      <point x="58" y="0" type="line"/>
      <point x="306" y="0" type="line"/>
      <point x="306" y="20" type="line"/>
      <point x="189" y="27" type="line"/>
    </contour>
    <contour>
      <point x="167" y="310" type="line" smooth="yes"/>
      <point x="167" y="206"/>
      <point x="167" y="102"/>
      <point x="165" y="0" type="curve"/>
      <point x="199" y="0" type="line"/>
      <point x="197" y="102"/>
      <point x="197" y="206"/>
      <point x="197" y="320" type="curve" smooth="yes"/>
      <point x="197" y="327" type="line" smooth="yes"/>
      <point x="197" y="471"/>
      <point x="197" y="575"/>
      <point x="199" y="677" type="curve"/>
      <point x="165" y="677" type="line"/>
      <point x="167" y="575"/>
      <point x="167" y="471"/>
      <point x="167" y="367" type="curve" smooth="yes"/>
    </contour>
    <contour>
      <point x="175" y="650" type="line"/>
      <point x="182" y="650" type="line"/>
      <point x="182" y="677" type="line"/>
      <point x="58" y="677" type="line"/>
      <point x="58" y="657" type="line"/>
    </contour>
    <contour>
      <point x="182" y="316" type="line"/>
      <point x="296" y="316" type="line" smooth="yes"/>
      <point x="387" y="316"/>
      <point x="406" y="285"/>
      <point x="432" y="211" type="curve" smooth="yes"/>
      <point x="494" y="34" type="line" smooth="yes"/>
      <point x="503" y="9"/>
      <point x="515" y="-5"/>
      <point x="564" y="-5" type="curve" smooth="yes"/>
      <point x="592" y="-5"/>
      <point x="616" y="-2"/>
      <point x="628" y="0" type="curve"/>
      <point x="628" y="20" type="line"/>
      <point x="517" y="25" type="line"/>
      <point x="532" y="14" type="line"/>
      <point x="456" y="224" type="line" smooth="yes"/>
      <point x="432" y="289"/>
      <point x="415" y="317"/>
      <point x="339" y="327" type="curve"/>
      <point x="347" y="318" type="line"/>
      <point x="461" y="327"/>
      <point x="537" y="399"/>
      <point x="537" y="500" type="curve" smooth="yes"/>
      <point x="537" y="615"/>
      <point x="459" y="677"/>
      <point x="318" y="677" type="curve" smooth="yes"/>
      <point x="182" y="677" type="line"/>
      <point x="182" y="655" type="line"/>
      <point x="316" y="655" type="line" smooth="yes"/>
      <point x="448" y="655"/>
      <point x="509" y="593"/>
      <point x="509" y="500" type="curve" smooth="yes"/>
      <point x="509" y="408"/>
      <point x="430" y="336"/>
      <point x="327" y="336" type="curve" smooth="yes"/>
      <point x="182" y="336" type="line"/>
    </contour>
  </outline>
</glyph>
<glyph name="S" format="1">
  <advance width="515"/>
  <unicode hex="0053"/>
  <outline>
    <contour>
      <point x="243" y="7" type="curve" smooth="yes"/>
      <point x="175" y="7"/>
      <point x="130" y="18"/>
      <point x="73" y="61" type="curve"/>
      <point x="92" y="34" type="line"/>
      <point x="79" y="165" type="line"/>
      <point x="60" y="165" type="line"/>
      <point x="55" y="39" type="line"/>
      <point x="94" y="12"/>
      <point x="164" y="-15"/>
      <point x="243" y="-15" type="curve" smooth="yes"/>
      <point x="368" y="-15"/>
      <point x="460" y="52"/>
      <point x="460" y="163" type="curve" smooth="yes"/>
      <point x="460" y="252"/>
      <point x="425" y="302"/>
      <point x="276" y="362" type="curve" smooth="yes"/>
      <point x="236" y="378" type="line" smooth="yes"/>
      <point x="157" y="410"/>
      <point x="107" y="454"/>
      <point x="107" y="532" type="curve" smooth="yes"/>
      <point x="107" y="625"/>
      <point x="176" y="670"/>
      <point x="272" y="670" type="curve" smooth="yes"/>
      <point x="329" y="670"/>
      <point x="369" y="658"/>
      <point x="412" y="628" type="curve"/>
      <point x="397" y="649" type="line"/>
      <point x="407" y="524" type="line"/>
      <point x="429" y="524" type="line"/>
      <point x="432" y="644" type="line"/>
      <point x="385" y="675"/>
      <point x="344" y="692"/>
      <point x="271" y="692" type="curve" smooth="yes"/>
      <point x="173" y="692"/>
      <point x="80" y="644"/>
      <point x="80" y="529" type="curve" smooth="yes"/>
      <point x="80" y="447"/>
      <point x="128" y="389"/>
      <point x="235" y="346" type="curve" smooth="yes"/>
      <point x="272" y="331" type="line" smooth="yes"/>
      <point x="400" y="279"/>
      <point x="433" y="236"/>
      <point x="433" y="162" type="curve" smooth="yes"/>
      <point x="433" y="57"/>
      <point x="353" y="7"/>
    </contour>
  </outline>
</glyph>
<glyph name="T" format="1">
  <advance width="594"/>
  <unicode hex="0054"/>
  <outline>
    <contour>
      <point x="290" y="27" type="line"/>
      <point x="163" y="20" type="line"/>
      <point x="163" y="0" type="line"/>
      <point x="431" y="0" type="line"/>
      <point x="431" y="20" type="line"/>
      <point x="304" y="27" type="line"/>
    </contour>
    <contour>
      <point x="282" y="310" type="line" smooth="yes"/>
      <point x="282" y="206"/>
      <point x="282" y="102"/>
      <point x="280" y="0" type="curve"/>
      <point x="314" y="0" type="line"/>
      <point x="312" y="102"/>
      <point x="312" y="206"/>
      <point x="312" y="310" type="curve" smooth="yes"/>
      <point x="312" y="367" type="line" smooth="yes"/>
      <point x="312" y="471"/>
      <point x="312" y="575"/>
      <point x="314" y="677" type="curve"/>
      <point x="280" y="677" type="line"/>
      <point x="282" y="575"/>
      <point x="282" y="471"/>
      <point x="282" y="367" type="curve" smooth="yes"/>
    </contour>
    <contour>
      <point x="545" y="655" type="line"/>
      <point x="531" y="677" type="line"/>
      <point x="550" y="514" type="line"/>
      <point x="574" y="514" type="line"/>
      <point x="564" y="677" type="line"/>
      <point x="30" y="677" type="line"/>
      <point x="20" y="514" type="line"/>
      <point x="44" y="514" type="line"/>
      <point x="63" y="677" type="line"/>
      <point x="49" y="655" type="line"/>
    </contour>
  </outline>
</glyph>
<glyph name="U" format="1">
  <advance width="727"/>
  <unicode hex="0055"/>
  <outline>
    <contour>
      <point x="582" y="615" type="line"/>
      <point x="692" y="630" type="line"/>
      <point x="692" y="670" type="line"/>
      <point x="452" y="670" type="line"/>
      <point x="452" y="630" type="line"/>
      <point x="562" y="615" type="line"/>
    </contour>
    <contour>
      <point x="170" y="615" type="line"/>
      <point x="190" y="615" type="line"/>
      <point x="320" y="630" type="line"/>
      <point x="320" y="670" type="line"/>
      <point x="40" y="670" type="line"/>
      <point x="40" y="630" type="line"/>
    </contour>
    <contour>
      <point x="215" y="281" type="curve" smooth="yes"/>
      <point x="215" y="360" type="line" smooth="yes"/>
      <point x="215" y="465"/>
      <point x="215" y="569"/>
      <point x="218" y="670" type="curve"/>
      <point x="122" y="670" type="line"/>
      <point x="125" y="567"/>
      <point x="125" y="463"/>
      <point x="125" y="360" type="curve" smooth="yes"/>
      <point x="125" y="252" type="line" smooth="yes"/>
      <point x="125" y="66"/>
      <point x="223" y="-15"/>
      <point x="368" y="-15" type="curve" smooth="yes"/>
      <point x="503" y="-15"/>
      <point x="605" y="63"/>
      <point x="605" y="273" type="curve" smooth="yes"/>
      <point x="605" y="670" type="line"/>
      <point x="555" y="670" type="line"/>
      <point x="555" y="299" type="line" smooth="yes"/>
      <point x="555" y="120"/>
      <point x="497" y="55"/>
      <point x="382" y="55" type="curve" smooth="yes"/>
      <point x="280" y="55"/>
      <point x="215" y="109"/>
    </contour>
  </outline>
</glyph>
<glyph name="V" format="1">
  <advance width="675"/>
  <unicode hex="0056"/>
  <outline>
    <contour>
      <point x="554" y="615" type="line"/>
      <point x="665" y="630" type="line"/>
      <point x="665" y="670" type="line"/>
      <point x="434" y="670" type="line"/>
      <point x="434" y="625" type="line"/>
      <point x="534" y="615" type="line"/>
    </contour>
    <contour>
      <point x="165" y="615" type="line"/>
      <point x="285" y="625" type="line"/>
      <point x="285" y="670" type="line"/>
      <point x="15" y="670" type="line"/>
      <point x="15" y="630" type="line"/>
      <point x="145" y="615" type="line"/>
    </contour>
    <contour>
      <point x="326" y="-10" type="line"/>
      <point x="366" y="-10" type="line"/>
      <point x="595" y="670" type="line"/>
      <point x="541" y="670" type="line"/>
      <point x="349" y="99" type="line"/>
      <point x="370" y="99" type="line"/>
      <point x="170" y="670" type="line"/>
      <point x="74" y="670" type="line"/>
    </contour>
  </outline>
</glyph>
<glyph name="W" format="1">
  <advance width="961"/>
  <unicode hex="0057"/>
  <outline>
    <contour>
      <point x="848" y="615" type="line"/>
      <point x="951" y="630" type="line"/>
      <point x="951" y="670" type="line"/>
      <point x="723" y="670" type="line"/>
      <point x="723" y="630" type="line"/>
      <point x="828" y="615" type="line"/>
    </contour>
    <contour>
      <point x="517" y="615" type="line"/>
      <point x="639" y="630" type="line"/>
      <point x="639" y="670" type="line"/>
      <point x="369" y="670" type="line"/>
      <point x="369" y="630" type="line"/>
      <point x="497" y="615" type="line"/>
    </contour>
    <contour>
      <point x="165" y="615" type="line"/>
      <point x="285" y="630" type="line"/>
      <point x="285" y="670" type="line"/>
      <point x="15" y="670" type="line"/>
      <point x="15" y="630" type="line"/>
      <point x="145" y="615" type="line"/>
    </contour>
    <contour>
      <point x="301" y="106" type="line"/>
      <point x="329" y="106" type="line"/>
      <point x="178" y="670" type="line"/>
      <point x="85" y="670" type="line"/>
      <point x="280" y="-10" type="line"/>
      <point x="319" y="-10" type="line"/>
      <point x="499" y="564" type="line"/>
      <point x="467" y="564" type="line"/>
      <point x="659" y="-10" type="line"/>
      <point x="699" y="-10" type="line"/>
      <point x="881" y="670" type="line"/>
      <point x="831" y="670" type="line"/>
      <point x="676" y="106" type="line"/>
      <point x="701" y="106" type="line"/>
      <point x="520" y="670" type="line"/>
      <point x="488" y="670" type="line"/>
    </contour>
  </outline>
</glyph>
<glyph name="X" format="1">
  <advance width="648"/>
  <unicode hex="0058"/>
  <outline>
    <contour>
      <point x="120" y="55" type="line"/>
      <point x="10" y="40" type="line"/>
      <point x="10" y="0" type="line"/>
      <point x="240" y="0" type="line"/>
      <point x="240" y="40" type="line"/>
      <point x="140" y="55" type="line"/>
    </contour>
    <contour>
      <point x="508" y="55" type="line"/>
      <point x="488" y="55" type="line"/>
      <point x="358" y="40" type="line"/>
      <point x="358" y="0" type="line"/>
      <point x="638" y="0" type="line"/>
      <point x="638" y="40" type="line"/>
    </contour>
    <contour>
      <point x="507" y="615" type="line"/>
      <point x="617" y="630" type="line"/>
      <point x="617" y="670" type="line"/>
      <point x="387" y="670" type="line"/>
      <point x="387" y="630" type="line"/>
      <point x="487" y="615" type="line"/>
    </contour>
    <contour>
      <point x="149" y="615" type="line"/>
      <point x="169" y="615" type="line"/>
      <point x="299" y="630" type="line"/>
      <point x="299" y="670" type="line"/>
      <point x="19" y="670" type="line"/>
      <point x="19" y="630" type="line"/>
    </contour>
    <contour>
      <point x="304" y="354" type="line"/>
      <point x="72" y="0" type="line"/>
      <point x="128" y="0" type="line"/>
      <point x="336" y="328" type="line"/>
    </contour>
    <contour>
      <point x="582" y="0" type="line"/>
      <point x="178" y="670" type="line"/>
      <point x="78" y="670" type="line"/>
      <point x="482" y="0" type="line"/>
    </contour>
    <contour>
      <point x="333" y="316" type="line"/>
      <point x="562" y="670" type="line"/>
      <point x="506" y="670" type="line"/>
      <point x="301" y="342" type="line"/>
    </contour>
  </outline>
</glyph>
<glyph name="Y" format="1">
  <advance width="635"/>
  <unicode hex="0059"/>
  <outline>
    <contour>
      <point x="311" y="27" type="line"/>
      <point x="184" y="20" type="line"/>
      <point x="184" y="0" type="line"/>
      <point x="452" y="0" type="line"/>
      <point x="452" y="20" type="line"/>
      <point x="325" y="27" type="line"/>
    </contour>
    <contour>
      <point x="123" y="650" type="line"/>
      <point x="137" y="650" type="line"/>
      <point x="254" y="657" type="line"/>
      <point x="254" y="677" type="line"/>
      <point x="31" y="677" type="line"/>
      <point x="31" y="657" type="line"/>
    </contour>
    <contour>
      <point x="516" y="650" type="line"/>
      <point x="609" y="657" type="line"/>
      <point x="609" y="677" type="line"/>
      <point x="386" y="677" type="line"/>
      <point x="386" y="657" type="line"/>
      <point x="502" y="650" type="line"/>
    </contour>
    <contour>
      <point x="303" y="214" type="line" smooth="yes"/>
      <point x="303" y="115"/>
      <point x="303" y="97"/>
      <point x="301" y="0" type="curve"/>
      <point x="335" y="0" type="line"/>
      <point x="333" y="97"/>
      <point x="333" y="115"/>
      <point x="333" y="214" type="curve" smooth="yes"/>
      <point x="333" y="289" type="line"/>
      <point x="303" y="289" type="line"/>
    </contour>
    <contour>
      <point x="323" y="253" type="line"/>
      <point x="536" y="677" type="line"/>
      <point x="510" y="677" type="line"/>
      <point x="313" y="279" type="line"/>
      <point x="328" y="283" type="line"/>
      <point x="131" y="677" type="line"/>
      <point x="99" y="677" type="line"/>
      <point x="314" y="250" type="line"/>
    </contour>
  </outline>
</glyph>
<glyph name="Z" format="1">
  <advance width="550"/>
  <unicode hex="005A"/>
  <outline>
    <contour>
      <point x="470" y="178" type="line"/>
      <point x="432" y="0" type="line"/>
      <point x="487" y="50" type="line"/>
      <point x="55" y="50" type="line"/>
      <point x="55" y="0" type="line"/>
      <point x="522" y="0" type="line"/>
      <point x="530" y="178" type="line"/>
    </contour>
    <contour>
      <point x="90" y="492" type="line"/>
      <point x="128" y="670" type="line"/>
      <point x="73" y="620" type="line"/>
      <point x="474" y="620" type="line"/>
      <point x="474" y="670" type="line"/>
      <point x="38" y="670" type="line"/>
      <point x="30" y="492" type="line"/>
    </contour>
    <contour>
      <point x="435" y="670" type="line"/>
      <point x="20" y="35" type="line"/>
      <point x="20" y="0" type="line"/>
      <point x="94" y="0" type="line"/>
      <point x="508" y="635" type="line"/>
      <point x="508" y="670" type="line"/>
    </contour>
  </outline>
</glyph>
<glyph name="bracketleft" format="1">
  <advance width="318"/>
  <unicode hex="005B"/>
  <outline>
    <contour>
      <point x="138" y="-159" type="line"/>
      <point x="288" y="-159" type="line"/>
      <point x="288" y="-119" type="line"/>
      <point x="158" y="-104" type="line"/>
      <point x="138" y="-104" type="line"/>
    </contour>
    <contour>
      <point x="138" y="660" type="line"/>
      <point x="158" y="660" type="line"/>
      <point x="288" y="675" type="line"/>
      <point x="288" y="715" type="line"/>
      <point x="138" y="715" type="line"/>
    </contour>
    <contour>
      <point x="103" y="158" type="line" smooth="yes"/>
      <point x="103" y="51"/>
      <point x="103" y="-56"/>
      <point x="100" y="-159" type="curve"/>
      <point x="176" y="-159" type="line"/>
      <point x="173" y="-54"/>
      <point x="173" y="53"/>
      <point x="173" y="158" type="curve" smooth="yes"/>
      <point x="173" y="398" type="line" smooth="yes"/>
      <point x="173" y="505"/>
      <point x="173" y="612"/>
      <point x="176" y="715" type="curve"/>
      <point x="100" y="715" type="line"/>
      <point x="103" y="610"/>
      <point x="103" y="503"/>
      <point x="103" y="398" type="curve" smooth="yes"/>
    </contour>
  </outline>
</glyph>
<glyph name="asciicircum" format="1">
  <advance width="530"/>
  <unicode hex="005E"/>
  <outline>
    <contour>
      <point x="88" y="226" type="line"/>
      <point x="108" y="213" type="line"/>
      <point x="276" y="481" type="line"/>
      <point x="249" y="481" type="line"/>
      <point x="427" y="213" type="line"/>
      <point x="447" y="226" type="line"/>
      <point x="274" y="490" type="line"/>
      <point x="252" y="490" type="line"/>
    </contour>
  </outline>
</glyph>
<glyph name="a" format="1">
  <advance width="508"/>
  <unicode hex="0061"/>
  <outline>
    <contour>
      <point x="405" y="102" type="curve" smooth="yes"/>
      <point x="405" y="317" type="line" smooth="yes"/>
      <point x="405" y="443"/>
      <point x="355" y="490"/>
      <point x="252" y="490" type="curve" smooth="yes"/>
      <point x="152" y="490"/>
      <point x="78" y="441"/>
      <point x="59" y="365" type="curve"/>
      <point x="61" y="340"/>
      <point x="77" y="323"/>
      <point x="104" y="323" type="curve" smooth="yes"/>
      <point x="131" y="323"/>
      <point x="148" y="339"/>
      <point x="157" y="368" type="curve" smooth="yes"/>
      <point x="183" y="456" type="line"/>
      <point x="141" y="427" type="line"/>
      <point x="178" y="442"/>
      <point x="208" y="445"/>
      <point x="231" y="445" type="curve" smooth="yes"/>
      <point x="297" y="445"/>
      <point x="325" y="421"/>
      <point x="325" y="323" type="curve" smooth="yes"/>
      <point x="325" y="92" type="line" smooth="yes"/>
      <point x="325" y="32"/>
      <point x="357" y="-10"/>
      <point x="422" y="-10" type="curve" smooth="yes"/>
      <point x="453" y="-10"/>
      <point x="478" y="0"/>
      <point x="501" y="41" type="curve"/>
      <point x="481" y="63" type="line"/>
      <point x="476" y="58" type="line" smooth="yes"/>
      <point x="468" y="50"/>
      <point x="455" y="41"/>
      <point x="439" y="41" type="curve" smooth="yes"/>
      <point x="416" y="41"/>
      <point x="405" y="60"/>
    </contour>
    <contour>
      <point x="131" y="126" type="curve" smooth="yes"/>
      <point x="131" y="155"/>
      <point x="141" y="194"/>
      <point x="231" y="229" type="curve" smooth="yes"/>
      <point x="261" y="241"/>
      <point x="320" y="260"/>
      <point x="365" y="269" type="curve"/>
      <point x="365" y="305" type="line"/>
      <point x="315" y="296"/>
      <point x="252" y="278"/>
      <point x="210" y="263" type="curve" smooth="yes"/>
      <point x="76" y="214"/>
      <point x="46" y="168"/>
      <point x="46" y="112" type="curve" smooth="yes"/>
      <point x="46" y="29"/>
      <point x="107" y="-15"/>
      <point x="180" y="-15" type="curve" smooth="yes"/>
      <point x="241" y="-15"/>
      <point x="275" y="15"/>
      <point x="335" y="75" type="curve" smooth="yes"/>
      <point x="364" y="104" type="line"/>
      <point x="350" y="125" type="line"/>
      <point x="330" y="110" type="line" smooth="yes"/>
      <point x="267" y="65"/>
      <point x="247" y="50"/>
      <point x="212" y="50" type="curve" smooth="yes"/>
      <point x="188" y="50"/>
      <point x="167" y="57"/>
      <point x="151" y="73" type="curve" smooth="yes"/>
      <point x="139" y="85"/>
      <point x="131" y="100"/>
    </contour>
  </outline>
</glyph>
<glyph name="b" format="1">
  <advance width="580"/>
  <unicode hex="0062"/>
  <outline>
    <contour>
      <point x="137" y="0" type="curve"/>
      <point x="158" y="27" type="line"/>
      <point x="48" y="20" type="line"/>
      <point x="48" y="0" type="line"/>
      <point x="165" y="-4" type="line"/>
      <point x="168" y="72" type="line"/>
      <point x="168" y="383" type="line"/>
      <point x="168" y="392" type="line"/>
      <point x="168" y="588" type="line"/>
      <point x="170" y="730" type="line"/>
      <point x="154" y="738" type="line"/>
      <point x="49" y="726" type="line"/>
      <point x="49" y="706" type="line"/>
      <point x="140" y="706" type="line"/>
      <point x="140" y="210" type="line" smooth="yes"/>
      <point x="140" y="148"/>
      <point x="139" y="45"/>
    </contour>
    <contour>
      <point x="496" y="242" type="curve" smooth="yes"/>
      <point x="496" y="78"/>
      <point x="417" y="10"/>
      <point x="328" y="10" type="curve" smooth="yes"/>
      <point x="266" y="10"/>
      <point x="219" y="35"/>
      <point x="163" y="93" type="curve"/>
      <point x="155" y="80" type="line"/>
      <point x="207" y="10"/>
      <point x="272" y="-15"/>
      <point x="329" y="-15" type="curve" smooth="yes"/>
      <point x="450" y="-15"/>
      <point x="528" y="86"/>
      <point x="528" y="242" type="curve" smooth="yes"/>
      <point x="528" y="383"/>
      <point x="452" y="484"/>
      <point x="334" y="484" type="curve" smooth="yes"/>
      <point x="276" y="484"/>
      <point x="205" y="458"/>
      <point x="154" y="382" type="curve"/>
      <point x="163" y="367" type="line"/>
      <point x="216" y="434"/>
      <point x="269" y="459"/>
      <point x="328" y="459" type="curve" smooth="yes"/>
      <point x="425" y="459"/>
      <point x="496" y="385"/>
    </contour>
  </outline>
</glyph>
<glyph name="c" format="1">
  <advance width="486"/>
  <unicode hex="0063"/>
  <outline>
    <contour>
      <point x="280" y="445" type="curve" smooth="yes"/>
      <point x="308" y="445"/>
      <point x="342" y="438"/>
      <point x="376" y="420" type="curve"/>
      <point x="330" y="457" type="line"/>
      <point x="355" y="369" type="line" smooth="yes"/>
      <point x="362" y="344"/>
      <point x="375" y="324"/>
      <point x="408" y="324" type="curve" smooth="yes"/>
      <point x="433" y="324"/>
      <point x="448" y="336"/>
      <point x="453" y="361" type="curve"/>
      <point x="440" y="435"/>
      <point x="366" y="490"/>
      <point x="277" y="490" type="curve" smooth="yes"/>
      <point x="158" y="490"/>
      <point x="48" y="393"/>
      <point x="48" y="236" type="curve" smooth="yes"/>
      <point x="48" y="83"/>
      <point x="134" y="-15"/>
      <point x="271" y="-15" type="curve" smooth="yes"/>
      <point x="365" y="-15"/>
      <point x="429" y="31"/>
      <point x="456" y="114" type="curve"/>
      <point x="432" y="126" type="line"/>
      <point x="401" y="76"/>
      <point x="350" y="48"/>
      <point x="292" y="48" type="curve" smooth="yes"/>
      <point x="198" y="48"/>
      <point x="131" y="119"/>
      <point x="131" y="245" type="curve" smooth="yes"/>
      <point x="131" y="373"/>
      <point x="193" y="445"/>
    </contour>
  </outline>
</glyph>
<glyph name="d" format="1">
  <advance width="565"/>
  <unicode hex="0064"/>
  <outline>
    <contour>
      <point x="131" y="235" type="curve" smooth="yes"/>
      <point x="131" y="372"/>
      <point x="196" y="435"/>
      <point x="271" y="435" type="curve" smooth="yes"/>
      <point x="309" y="435"/>
      <point x="349" y="419"/>
      <point x="407" y="363" type="curve"/>
      <point x="417" y="389" type="line"/>
      <point x="365" y="467"/>
      <point x="316" y="490"/>
      <point x="259" y="490" type="curve" smooth="yes"/>
      <point x="136" y="490"/>
      <point x="46" y="385"/>
      <point x="46" y="233" type="curve" smooth="yes"/>
      <point x="46" y="88"/>
      <point x="128" y="-15"/>
      <point x="250" y="-15" type="curve" smooth="yes"/>
      <point x="328" y="-15"/>
      <point x="375" y="26"/>
      <point x="413" y="94" type="curve"/>
      <point x="404" y="121" type="line"/>
      <point x="358" y="62"/>
      <point x="323" y="40"/>
      <point x="272" y="40" type="curve" smooth="yes"/>
      <point x="191" y="40"/>
      <point x="131" y="102"/>
    </contour>
    <contour>
      <point x="451" y="51" type="line"/>
      <point x="467" y="0" type="line"/>
      <point x="467" y="580" type="line"/>
      <point x="471" y="722" type="line"/>
      <point x="457" y="730" type="line"/>
      <point x="304" y="685" type="line"/>
      <point x="304" y="650" type="line"/>
      <point x="390" y="640" type="line"/>
      <point x="390" y="401" type="line"/>
      <point x="387" y="388" type="line"/>
      <point x="387" y="90" type="line"/>
      <point x="397" y="-10" type="line"/>
      <point x="550" y="0" type="line"/>
      <point x="550" y="35" type="line"/>
    </contour>
  </outline>
</glyph>
<glyph name="e" format="1">
  <advance width="509"/>
  <unicode hex="0065"/>
  <outline>
    <contour>
      <point x="276" y="490" type="curve" smooth="yes"/>
      <point x="152" y="490"/>
      <point x="48" y="385"/>
      <point x="48" y="232" type="curve" smooth="yes"/>
      <point x="48" y="80"/>
      <point x="135" y="-15"/>
      <point x="269" y="-15" type="curve" smooth="yes"/>
      <point x="360" y="-15"/>
      <point x="424" y="30"/>
      <point x="460" y="101" type="curve"/>
      <point x="437" y="119" type="line"/>
      <point x="401" y="77"/>
      <point x="361" y="48"/>
      <point x="297" y="48" type="curve" smooth="yes"/>
      <point x="197" y="48"/>
      <point x="133" y="121"/>
      <point x="133" y="248" type="curve" smooth="yes"/>
      <point x="133" y="391"/>
      <point x="207" y="445"/>
      <point x="271" y="445" type="curve" smooth="yes"/>
      <point x="334" y="445"/>
      <point x="382" y="393"/>
      <point x="382" y="336" type="curve" smooth="yes"/>
      <point x="382" y="308"/>
      <point x="371" y="285"/>
      <point x="323" y="285" type="curve" smooth="yes"/>
      <point x="85" y="285" type="line"/>
      <point x="85" y="243" type="line"/>
      <point x="454" y="243" type="line"/>
      <point x="458" y="256"/>
      <point x="461" y="276"/>
      <point x="461" y="299" type="curve" smooth="yes"/>
      <point x="461" y="420"/>
      <point x="379" y="490"/>
    </contour>
  </outline>
</glyph>
<glyph name="f" format="1">
  <advance width="354"/>
  <unicode hex="0066"/>
  <outline>
    <contour>
      <point x="152" y="26" type="line"/>
      <point x="143" y="26" type="line"/>
      <point x="33" y="20" type="line"/>
      <point x="33" y="0" type="line"/>
      <point x="271" y="0" type="line"/>
      <point x="271" y="20" type="line"/>
    </contour>
    <contour>
      <point x="149" y="466" type="line"/>
      <point x="149" y="442" type="line"/>
      <point x="327" y="442" type="line"/>
      <point x="327" y="466" type="line"/>
    </contour>
    <contour>
      <point x="135" y="210" type="line"/>
      <point x="135" y="140"/>
      <point x="133" y="70"/>
      <point x="131" y="0" type="curve"/>
      <point x="167" y="0" type="line"/>
      <point x="165" y="70"/>
      <point x="163" y="140"/>
      <point x="163" y="210" type="curve" smooth="yes"/>
      <point x="163" y="452" type="line"/>
      <point x="163" y="596"/>
      <point x="187" y="649"/>
      <point x="225" y="691" type="curve" smooth="yes"/>
      <point x="253" y="720"/>
      <point x="291" y="742"/>
      <point x="328" y="742" type="curve" smooth="yes"/>
      <point x="337" y="742"/>
      <point x="346" y="741"/>
      <point x="352" y="739" type="curve"/>
      <point x="333" y="753" type="line"/>
      <point x="277" y="741" type="line"/>
      <point x="316" y="727" type="line" smooth="yes"/>
      <point x="343" y="718"/>
      <point x="354" y="716"/>
      <point x="366" y="716" type="curve" smooth="yes"/>
      <point x="385" y="716"/>
      <point x="395" y="725"/>
      <point x="397" y="740" type="curve"/>
      <point x="389" y="749"/>
      <point x="363" y="758"/>
      <point x="332" y="758" type="curve" smooth="yes"/>
      <point x="296" y="758"/>
      <point x="247" y="746"/>
      <point x="206" y="702" type="curve" smooth="yes"/>
      <point x="152" y="645"/>
      <point x="134" y="571"/>
      <point x="134" y="461" type="curve"/>
      <point x="147" y="467" type="line"/>
      <point x="34" y="462" type="line"/>
      <point x="34" y="442" type="line"/>
      <point x="135" y="442" type="line"/>
    </contour>
  </outline>
</glyph>
<glyph name="g" format="1">
  <advance width="516"/>
  <unicode hex="0067"/>
  <outline>
    <contour>
      <point x="247" y="-165" type="curve" smooth="yes"/>
      <point x="169" y="-165"/>
      <point x="115" y="-139"/>
      <point x="115" y="-79" type="curve" smooth="yes"/>
      <point x="115" y="-44"/>
      <point x="133" y="-17"/>
      <point x="159" y="12" type="curve" smooth="yes"/>
      <point x="171" y="25" type="line"/>
      <point x="166" y="31" type="line"/>
      <point x="145" y="22" type="line" smooth="yes"/>
      <point x="71" y="-10"/>
      <point x="34" y="-48"/>
      <point x="34" y="-94" type="curve" smooth="yes"/>
      <point x="34" y="-156"/>
      <point x="100" y="-210"/>
      <point x="242" y="-210" type="curve" smooth="yes"/>
      <point x="406" y="-210"/>
      <point x="488" y="-124"/>
      <point x="488" y="-38" type="curve" smooth="yes"/>
      <point x="488" y="31"/>
      <point x="437" y="71"/>
      <point x="330" y="71" type="curve" smooth="yes"/>
      <point x="227" y="71" type="line" smooth="yes"/>
      <point x="166" y="71"/>
      <point x="147" y="90"/>
      <point x="147" y="121" type="curve" smooth="yes"/>
      <point x="147" y="148"/>
      <point x="162" y="170"/>
      <point x="180" y="188" type="curve" smooth="yes"/>
      <point x="189" y="197" type="line"/>
      <point x="173" y="210" type="line"/>
      <point x="158" y="200" type="line" smooth="yes"/>
      <point x="105" y="165"/>
      <point x="74" y="133"/>
      <point x="74" y="91" type="curve" smooth="yes"/>
      <point x="74" y="47"/>
      <point x="110" y="0"/>
      <point x="204" y="0" type="curve" smooth="yes"/>
      <point x="315" y="0" type="line" smooth="yes"/>
      <point x="393" y="0"/>
      <point x="416" y="-31"/>
      <point x="416" y="-65" type="curve" smooth="yes"/>
      <point x="416" y="-119"/>
      <point x="357" y="-165"/>
    </contour>
    <contour>
      <point x="60" y="326" type="curve" smooth="yes"/>
      <point x="60" y="216"/>
      <point x="136" y="162"/>
      <point x="239" y="162" type="curve" smooth="yes"/>
      <point x="340" y="162"/>
      <point x="418" y="220"/>
      <point x="418" y="326" type="curve" smooth="yes"/>
      <point x="418" y="436"/>
      <point x="342" y="490"/>
      <point x="240" y="490" type="curve" smooth="yes"/>
      <point x="138" y="490"/>
      <point x="60" y="432"/>
    </contour>
    <contour>
      <point x="241" y="450" type="curve" smooth="yes"/>
      <point x="304" y="450"/>
      <point x="340" y="400"/>
      <point x="340" y="329" type="curve" smooth="yes"/>
      <point x="340" y="255"/>
      <point x="301" y="202"/>
      <point x="236" y="202" type="curve" smooth="yes"/>
      <point x="174" y="202"/>
      <point x="138" y="252"/>
      <point x="138" y="325" type="curve" smooth="yes"/>
      <point x="138" y="398"/>
      <point x="177" y="450"/>
    </contour>
    <contour>
      <point x="346" y="442" type="line"/>
      <point x="346" y="415" type="line"/>
      <point x="493" y="415" type="line"/>
      <point x="493" y="477" type="line"/>
      <point x="478" y="487" type="line"/>
    </contour>
  </outline>
</glyph>
<glyph name="h" format="1">
  <advance width="600"/>
  <unicode hex="0068"/>
  <outline>
    <contour>
      <point x="369" y="490" type="curve" smooth="yes"/>
      <point x="298" y="490"/>
      <point x="216" y="441"/>
      <point x="169" y="378" type="curve"/>
      <point x="214" y="396" type="line"/>
      <point x="163" y="396" type="line"/>
      <point x="163" y="351" type="line"/>
      <point x="184" y="351" type="line"/>
      <point x="241" y="402"/>
      <point x="282" y="420"/>
      <point x="332" y="420" type="curve" smooth="yes"/>
      <point x="392" y="420"/>
      <point x="416" y="390"/>
      <point x="416" y="297" type="curve" smooth="yes"/>
      <point x="416" y="210" type="line" smooth="yes"/>
      <point x="416" y="146"/>
      <point x="415" y="45"/>
      <point x="413" y="0" type="curve"/>
      <point x="499" y="0" type="line"/>
      <point x="497" y="45"/>
      <point x="496" y="146"/>
      <point x="496" y="210" type="curve" smooth="yes"/>
      <point x="496" y="305" type="line" smooth="yes"/>
      <point x="496" y="437"/>
      <point x="455" y="490"/>
    </contour>
    <contour>
      <point x="449" y="55" type="line"/>
      <point x="339" y="35" type="line"/>
      <point x="339" y="0" type="line"/>
      <point x="569" y="0" type="line"/>
      <point x="569" y="35" type="line"/>
      <point x="469" y="55" type="line"/>
    </contour>
    <contour>
      <point x="160" y="55" type="line"/>
      <point x="140" y="55" type="line"/>
      <point x="30" y="35" type="line"/>
      <point x="30" y="0" type="line"/>
      <point x="260" y="0" type="line"/>
      <point x="260" y="35" type="line"/>
    </contour>
    <contour>
      <point x="108" y="210" type="line" smooth="yes"/>
      <point x="108" y="148"/>
      <point x="107" y="45"/>
      <point x="105" y="0" type="curve"/>
      <point x="191" y="0" type="line"/>
      <point x="189" y="45"/>
      <point x="188" y="148"/>
      <point x="188" y="210" type="curve" smooth="yes"/>
      <point x="188" y="368" type="line"/>
      <point x="185" y="381" type="line"/>
      <point x="185" y="580" type="line"/>
      <point x="189" y="722" type="line"/>
      <point x="175" y="730" type="line"/>
      <point x="25" y="685" type="line"/>
      <point x="25" y="650" type="line"/>
      <point x="108" y="640" type="line"/>
    </contour>
  </outline>
</glyph>
<glyph name="i" format="1">
  <advance width="297"/>
  <unicode hex="0069"/>
  <outline>
    <contour>
      <point x="152" y="600" type="curve" smooth="yes"/>
      <point x="189" y="600"/>
      <point x="218" y="626"/>
      <point x="218" y="663" type="curve" smooth="yes"/>
      <point x="218" y="701"/>
      <point x="189" y="726"/>
      <point x="152" y="726" type="curve" smooth="yes"/>
      <point x="115" y="726"/>
      <point x="86" y="701"/>
      <point x="86" y="663" type="curve" smooth="yes"/>
      <point x="86" y="626"/>
      <point x="115" y="600"/>
    </contour>
    <contour>
      <point x="196" y="0" type="line"/>
      <point x="194" y="45"/>
      <point x="193" y="148"/>
      <point x="193" y="210" type="curve" smooth="yes"/>
      <point x="193" y="345" type="line"/>
      <point x="196" y="480" type="line"/>
      <point x="181" y="490" type="line"/>
      <point x="30" y="430" type="line"/>
      <point x="30" y="395" type="line"/>
      <point x="110" y="386" type="line"/>
      <point x="112" y="346"/>
      <point x="113" y="315"/>
      <point x="113" y="260" type="curve" smooth="yes"/>
      <point x="113" y="210" type="line" smooth="yes"/>
      <point x="113" y="148"/>
      <point x="112" y="45"/>
      <point x="110" y="0" type="curve"/>
    </contour>
    <contour>
      <point x="165" y="55" type="line"/>
      <point x="145" y="55" type="line"/>
      <point x="35" y="35" type="line"/>
      <point x="35" y="0" type="line"/>
      <point x="265" y="0" type="line"/>
      <point x="265" y="35" type="line"/>
    </contour>
  </outline>
</glyph>
<glyph name="j" format="1">
  <advance width="275"/>
  <unicode hex="006A"/>
  <outline>
    <contour>
      <point x="152" y="600" type="curve" smooth="yes"/>
      <point x="189" y="600"/>
      <point x="218" y="626"/>
      <point x="218" y="663" type="curve" smooth="yes"/>
      <point x="218" y="701"/>
      <point x="189" y="726"/>
      <point x="152" y="726" type="curve" smooth="yes"/>
      <point x="115" y="726"/>
      <point x="86" y="701"/>
      <point x="86" y="663" type="curve" smooth="yes"/>
      <point x="86" y="626"/>
      <point x="115" y="600"/>
    </contour>
    <contour>
      <point x="113" y="77" type="line" smooth="yes"/>
      <point x="113" y="-102"/>
      <point x="111" y="-121"/>
      <point x="80" y="-179" type="curve" smooth="yes"/>
      <point x="73" y="-192"/>
      <point x="64" y="-202"/>
      <point x="49" y="-216" type="curve"/>
      <point x="84" y="-207" type="line"/>
      <point x="51" y="-183" type="line" smooth="yes"/>
      <point x="25" y="-164"/>
      <point x="3" y="-154"/>
      <point x="-23" y="-154" type="curve" smooth="yes"/>
      <point x="-52" y="-154"/>
      <point x="-72" y="-167"/>
      <point x="-81" y="-193" type="curve"/>
      <point x="-81" y="-219"/>
      <point x="-54" y="-250"/>
      <point x="16" y="-250" type="curve" smooth="yes"/>
      <point x="65" y="-250"/>
      <point x="99" y="-234"/>
      <point x="130" y="-200" type="curve" smooth="yes"/>
      <point x="183" y="-143"/>
      <point x="190" y="-73"/>
      <point x="190" y="93" type="curve" smooth="yes"/>
      <point x="190" y="345" type="line"/>
      <point x="193" y="480" type="line"/>
      <point x="178" y="490" type="line"/>
      <point x="30" y="430" type="line"/>
      <point x="30" y="395" type="line"/>
      <point x="110" y="386" type="line"/>
      <point x="112" y="346"/>
      <point x="113" y="315"/>
      <point x="113" y="260" type="curve" smooth="yes"/>
    </contour>
  </outline>
</glyph>
<glyph name="k" format="1">
  <advance width="543"/>
  <unicode hex="006B"/>
  <outline>
    <contour>
      <point x="406" y="440" type="line"/>
      <point x="516" y="446" type="line"/>
      <point x="516" y="466" type="line"/>
      <point x="296" y="466" type="line"/>
      <point x="296" y="446" type="line"/>
      <point x="397" y="440" type="line"/>
    </contour>
    <contour>
      <point x="417" y="466" type="line"/>
      <point x="155" y="204" type="line"/>
      <point x="155" y="176" type="line"/>
      <point x="449" y="466" type="line"/>
    </contour>
    <contour>
      <point x="49" y="726" type="line"/>
      <point x="49" y="706" type="line"/>
      <point x="140" y="706" type="line"/>
      <point x="140" y="210" type="line" smooth="yes"/>
      <point x="140" y="148"/>
      <point x="139" y="45"/>
      <point x="137" y="0" type="curve"/>
      <point x="171" y="0" type="line"/>
      <point x="169" y="45"/>
      <point x="168" y="148"/>
      <point x="168" y="210" type="curve" smooth="yes"/>
      <point x="168" y="588" type="line"/>
      <point x="170" y="730" type="line"/>
      <point x="156" y="738" type="line"/>
    </contour>
    <contour>
      <point x="157" y="26" type="line"/>
      <point x="148" y="26" type="line"/>
      <point x="48" y="20" type="line"/>
      <point x="48" y="0" type="line"/>
      <point x="251" y="0" type="line"/>
      <point x="251" y="20" type="line"/>
    </contour>
    <contour>
      <point x="460" y="16" type="line"/>
      <point x="278" y="308" type="line"/>
      <point x="257" y="287" type="line"/>
      <point x="436" y="0" type="line"/>
      <point x="538" y="0" type="line"/>
      <point x="538" y="20" type="line"/>
      <point x="437" y="26" type="line"/>
    </contour>
  </outline>
</glyph>
<glyph name="l" format="1">
  <advance width="296"/>
  <unicode hex="006C"/>
  <outline>
    <contour>
      <point x="158" y="55" type="line"/>
      <point x="138" y="55" type="line"/>
      <point x="25" y="35" type="line"/>
      <point x="25" y="0" type="line"/>
      <point x="271" y="0" type="line"/>
      <point x="271" y="35" type="line"/>
    </contour>
    <contour>
      <point x="25" y="685" type="line"/>
      <point x="25" y="650" type="line"/>
      <point x="108" y="640" type="line"/>
      <point x="108" y="210" type="line" smooth="yes"/>
      <point x="108" y="140"/>
      <point x="107" y="70"/>
      <point x="105" y="0" type="curve"/>
      <point x="191" y="0" type="line"/>
      <point x="189" y="70"/>
      <point x="188" y="140"/>
      <point x="188" y="210" type="curve" smooth="yes"/>
      <point x="188" y="580" type="line"/>
      <point x="192" y="722" type="line"/>
      <point x="178" y="730" type="line"/>
    </contour>
  </outline>
</glyph>
<glyph name="m" format="1">
  <advance width="889"/>
  <unicode hex="006D"/>
  <outline>
    <contour>
      <point x="349" y="484" type="curve" smooth="yes"/>
      <point x="286" y="484"/>
      <point x="226" y="448"/>
      <point x="149" y="355" type="curve"/>
      <point x="159" y="359" type="line"/>
      <point x="141" y="359" type="line"/>
      <point x="141" y="338" type="line"/>
      <point x="156" y="338" type="line"/>
      <point x="239" y="436"/>
      <point x="301" y="456"/>
      <point x="347" y="456" type="curve" smooth="yes"/>
      <point x="396" y="456"/>
      <point x="438" y="417"/>
      <point x="438" y="316" type="curve" smooth="yes"/>
      <point x="438" y="210" type="line" smooth="yes"/>
      <point x="438" y="146"/>
      <point x="437" y="45"/>
      <point x="435" y="0" type="curve"/>
      <point x="469" y="0" type="line"/>
      <point x="467" y="45"/>
      <point x="466" y="146"/>
      <point x="466" y="210" type="curve" smooth="yes"/>
      <point x="466" y="315" type="line" smooth="yes"/>
      <point x="466" y="440"/>
      <point x="418" y="484"/>
    </contour>
    <contour>
      <point x="646" y="484" type="curve" smooth="yes"/>
      <point x="582" y="484"/>
      <point x="518" y="448"/>
      <point x="450" y="366" type="curve"/>
      <point x="460" y="369" type="line"/>
      <point x="443" y="369" type="line"/>
      <point x="443" y="349" type="line"/>
      <point x="458" y="349" type="line"/>
      <point x="532" y="436"/>
      <point x="597" y="456"/>
      <point x="644" y="456" type="curve" smooth="yes"/>
      <point x="700" y="456"/>
      <point x="741" y="418"/>
      <point x="741" y="316" type="curve" smooth="yes"/>
      <point x="741" y="210" type="line" smooth="yes"/>
      <point x="741" y="146"/>
      <point x="740" y="45"/>
      <point x="738" y="0" type="curve"/>
      <point x="772" y="0" type="line"/>
      <point x="770" y="45"/>
      <point x="769" y="146"/>
      <point x="769" y="210" type="curve" smooth="yes"/>
      <point x="769" y="315" type="line" smooth="yes"/>
      <point x="769" y="439"/>
      <point x="723" y="484"/>
    </contour>
    <contour>
      <point x="166" y="0" type="line"/>
      <point x="164" y="45"/>
      <point x="163" y="148"/>
      <point x="163" y="210" type="curve" smooth="yes"/>
      <point x="163" y="364" type="line"/>
      <point x="161" y="468" type="line"/>
      <point x="151" y="474" type="line"/>
      <point x="39" y="462" type="line"/>
      <point x="39" y="442" type="line"/>
      <point x="132" y="442" type="line"/>
      <point x="134" y="391"/>
      <point x="135" y="325"/>
      <point x="135" y="255" type="curve" smooth="yes"/>
      <point x="135" y="210" type="line" smooth="yes"/>
      <point x="135" y="148"/>
      <point x="134" y="45"/>
      <point x="132" y="0" type="curve"/>
    </contour>
    <contour>
      <point x="152" y="26" type="line"/>
      <point x="143" y="26" type="line"/>
      <point x="43" y="20" type="line"/>
      <point x="43" y="0" type="line"/>
      <point x="246" y="0" type="line"/>
      <point x="246" y="20" type="line"/>
    </contour>
    <contour>
      <point x="446" y="26" type="line"/>
      <point x="346" y="20" type="line"/>
      <point x="346" y="0" type="line"/>
      <point x="549" y="0" type="line"/>
      <point x="549" y="20" type="line"/>
      <point x="455" y="26" type="line"/>
    </contour>
    <contour>
      <point x="749" y="26" type="line"/>
      <point x="649" y="20" type="line"/>
      <point x="649" y="0" type="line"/>
      <point x="852" y="0" type="line"/>
      <point x="852" y="20" type="line"/>
      <point x="758" y="26" type="line"/>
    </contour>
  </outline>
</glyph>
<glyph name="n" format="1">
  <advance width="605"/>
  <unicode hex="006E"/>
  <outline>
    <contour>
      <point x="201" y="0" type="line"/>
      <point x="199" y="45"/>
      <point x="198" y="148"/>
      <point x="198" y="210" type="curve"/>
      <point x="198" y="364" type="line"/>
      <point x="186" y="480" type="line"/>
      <point x="171" y="490" type="line"/>
      <point x="35" y="430" type="line"/>
      <point x="35" y="395" type="line"/>
      <point x="115" y="386" type="line"/>
      <point x="117" y="346"/>
      <point x="118" y="315"/>
      <point x="118" y="260" type="curve" smooth="yes"/>
      <point x="118" y="210" type="line" smooth="yes"/>
      <point x="118" y="148"/>
      <point x="117" y="45"/>
      <point x="115" y="0" type="curve"/>
    </contour>
    <contour>
      <point x="171" y="55" type="line"/>
      <point x="151" y="55" type="line"/>
      <point x="41" y="35" type="line"/>
      <point x="41" y="0" type="line"/>
      <point x="271" y="0" type="line"/>
      <point x="271" y="35" type="line"/>
    </contour>
    <contour>
      <point x="455" y="55" type="line"/>
      <point x="345" y="35" type="line"/>
      <point x="345" y="0" type="line"/>
      <point x="575" y="0" type="line"/>
      <point x="575" y="35" type="line"/>
      <point x="475" y="55" type="line"/>
    </contour>
    <contour>
      <point x="375" y="490" type="curve" smooth="yes"/>
      <point x="304" y="490"/>
      <point x="224" y="441"/>
      <point x="177" y="378" type="curve"/>
      <point x="220" y="396" type="line"/>
      <point x="169" y="396" type="line"/>
      <point x="169" y="351" type="line"/>
      <point x="190" y="351" type="line"/>
      <point x="247" y="400"/>
      <point x="288" y="420"/>
      <point x="338" y="420" type="curve" smooth="yes"/>
      <point x="398" y="420"/>
      <point x="422" y="390"/>
      <point x="422" y="297" type="curve" smooth="yes"/>
      <point x="422" y="210" type="line" smooth="yes"/>
      <point x="422" y="146"/>
      <point x="421" y="45"/>
      <point x="419" y="0" type="curve"/>
      <point x="505" y="0" type="line"/>
      <point x="503" y="45"/>
      <point x="502" y="146"/>
      <point x="502" y="210" type="curve" smooth="yes"/>
      <point x="502" y="305" type="line" smooth="yes"/>
      <point x="502" y="437"/>
      <point x="461" y="490"/>
    </contour>
  </outline>
</glyph>
<glyph name="o" format="1">
  <advance width="538"/>
  <unicode hex="006F"/>
  <outline>
    <contour>
      <point x="269" y="464" type="curve" smooth="yes"/>
      <point x="380" y="464"/>
      <point x="454" y="373"/>
      <point x="454" y="233" type="curve" smooth="yes"/>
      <point x="454" y="93"/>
      <point x="380" y="5"/>
      <point x="269" y="5" type="curve" smooth="yes"/>
      <point x="158" y="5"/>
      <point x="84" y="93"/>
      <point x="84" y="233" type="curve" smooth="yes"/>
      <point x="84" y="373"/>
      <point x="158" y="464"/>
    </contour>
    <contour>
      <point x="269" y="484" type="curve" smooth="yes"/>
      <point x="162" y="484"/>
      <point x="52" y="403"/>
      <point x="52" y="233" type="curve" smooth="yes"/>
      <point x="52" y="63"/>
      <point x="162" y="-15"/>
      <point x="269" y="-15" type="curve" smooth="yes"/>
      <point x="376" y="-15"/>
      <point x="486" y="63"/>
      <point x="486" y="233" type="curve" smooth="yes"/>
      <point x="486" y="403"/>
      <point x="376" y="484"/>
    </contour>
  </outline>
</glyph>
<glyph name="p" format="1">
  <advance width="575"/>
  <unicode hex="0070"/>
  <outline>
    <contour>
      <point x="491" y="242" type="curve" smooth="yes"/>
      <point x="491" y="78"/>
      <point x="412" y="10"/>
      <point x="323" y="10" type="curve" smooth="yes"/>
      <point x="261" y="10"/>
      <point x="216" y="27"/>
      <point x="160" y="85" type="curve"/>
      <point x="150" y="72" type="line"/>
      <point x="202" y="2"/>
      <point x="267" y="-15"/>
      <point x="324" y="-15" type="curve" smooth="yes"/>
      <point x="445" y="-15"/>
      <point x="523" y="86"/>
      <point x="523" y="242" type="curve" smooth="yes"/>
      <point x="523" y="383"/>
      <point x="447" y="484"/>
      <point x="329" y="484" type="curve" smooth="yes"/>
      <point x="271" y="484"/>
      <point x="201" y="457"/>
      <point x="150" y="381" type="curve"/>
      <point x="158" y="367" type="line"/>
      <point x="211" y="434"/>
      <point x="264" y="459"/>
      <point x="323" y="459" type="curve" smooth="yes"/>
      <point x="420" y="459"/>
      <point x="491" y="385"/>
    </contour>
    <contour>
      <point x="152" y="-219" type="line"/>
      <point x="143" y="-219" type="line"/>
      <point x="43" y="-225" type="line"/>
      <point x="43" y="-245" type="line"/>
      <point x="266" y="-245" type="line"/>
      <point x="266" y="-225" type="line"/>
    </contour>
    <contour>
      <point x="135" y="-35" type="line" smooth="yes"/>
      <point x="135" y="-97"/>
      <point x="134" y="-200"/>
      <point x="132" y="-245" type="curve"/>
      <point x="166" y="-245" type="line"/>
      <point x="164" y="-200"/>
      <point x="163" y="-97"/>
      <point x="163" y="-35" type="curve" smooth="yes"/>
      <point x="163" y="64" type="line"/>
      <point x="163" y="72" type="line"/>
      <point x="163" y="383" type="line"/>
      <point x="163" y="388" type="line"/>
      <point x="161" y="468" type="line"/>
      <point x="151" y="474" type="line"/>
      <point x="39" y="462" type="line"/>
      <point x="39" y="442" type="line"/>
      <point x="132" y="442" type="line"/>
      <point x="134" y="391"/>
      <point x="135" y="325"/>
      <point x="135" y="255" type="curve" smooth="yes"/>
    </contour>
  </outline>
</glyph>
<glyph name="q" format="1">
  <advance width="555"/>
  <unicode hex="0071"/>
  <outline>
    <contour>
      <point x="131" y="235" type="curve" smooth="yes"/>
      <point x="131" y="372"/>
      <point x="196" y="435"/>
      <point x="271" y="435" type="curve" smooth="yes"/>
      <point x="309" y="435"/>
      <point x="349" y="419"/>
      <point x="407" y="363" type="curve"/>
      <point x="417" y="389" type="line"/>
      <point x="365" y="467"/>
      <point x="311" y="490"/>
      <point x="255" y="490" type="curve" smooth="yes"/>
      <point x="136" y="490"/>
      <point x="46" y="385"/>
      <point x="46" y="233" type="curve" smooth="yes"/>
      <point x="46" y="88"/>
      <point x="128" y="-15"/>
      <point x="250" y="-15" type="curve" smooth="yes"/>
      <point x="319" y="-15"/>
      <point x="370" y="18"/>
      <point x="413" y="95" type="curve"/>
      <point x="404" y="121" type="line"/>
      <point x="358" y="63"/>
      <point x="322" y="40"/>
      <point x="272" y="40" type="curve" smooth="yes"/>
      <point x="191" y="40"/>
      <point x="131" y="102"/>
    </contour>
    <contour>
      <point x="422" y="-185" type="line"/>
      <point x="299" y="-205" type="line"/>
      <point x="299" y="-240" type="line"/>
      <point x="555" y="-240" type="line"/>
      <point x="555" y="-205" type="line"/>
      <point x="442" y="-185" type="line"/>
    </contour>
    <contour>
      <point x="471" y="-30" type="curve" smooth="yes"/>
      <point x="471" y="345" type="line"/>
      <point x="474" y="480" type="line"/>
      <point x="459" y="490" type="line"/>
      <point x="376" y="413" type="line"/>
      <point x="391" y="407" type="line"/>
      <point x="391" y="84" type="line"/>
      <point x="394" y="70" type="line"/>
      <point x="394" y="-30" type="line" smooth="yes"/>
      <point x="394" y="-100"/>
      <point x="393" y="-170"/>
      <point x="391" y="-240" type="curve"/>
      <point x="474" y="-240" type="line"/>
      <point x="472" y="-170"/>
      <point x="471" y="-100"/>
    </contour>
  </outline>
</glyph>
<glyph name="r" format="1">
  <advance width="405"/>
  <unicode hex="0072"/>
  <outline>
    <contour>
      <point x="349" y="466" type="curve"/>
      <point x="292" y="464" type="line"/>
      <point x="319" y="455" type="line" smooth="yes"/>
      <point x="341" y="448"/>
      <point x="356" y="442"/>
      <point x="371" y="442" type="curve" smooth="yes"/>
      <point x="387" y="442"/>
      <point x="398" y="448"/>
      <point x="400" y="460" type="curve"/>
      <point x="393" y="474"/>
      <point x="370" y="484"/>
      <point x="347" y="484" type="curve" smooth="yes"/>
      <point x="263" y="484"/>
      <point x="189" y="426"/>
      <point x="159" y="334" type="curve"/>
      <point x="171" y="346" type="line"/>
      <point x="148" y="346" type="line"/>
      <point x="148" y="309" type="line"/>
      <point x="162" y="309" type="line"/>
      <point x="209" y="417"/>
      <point x="267" y="457"/>
    </contour>
    <contour>
      <point x="152" y="26" type="line"/>
      <point x="143" y="26" type="line"/>
      <point x="43" y="20" type="line"/>
      <point x="43" y="0" type="line"/>
      <point x="259" y="0" type="line"/>
      <point x="259" y="20" type="line"/>
    </contour>
    <contour>
      <point x="166" y="0" type="line"/>
      <point x="164" y="45"/>
      <point x="163" y="148"/>
      <point x="163" y="210" type="curve" smooth="yes"/>
      <point x="163" y="335" type="line"/>
      <point x="161" y="468" type="line"/>
      <point x="151" y="474" type="line"/>
      <point x="39" y="462" type="line"/>
      <point x="39" y="442" type="line"/>
      <point x="132" y="442" type="line"/>
      <point x="134" y="391"/>
      <point x="135" y="325"/>
      <point x="135" y="255" type="curve" smooth="yes"/>
      <point x="135" y="210" type="line" smooth="yes"/>
      <point x="135" y="148"/>
      <point x="134" y="45"/>
      <point x="132" y="0" type="curve"/>
    </contour>
  </outline>
</glyph>
<glyph name="s" format="1">
  <advance width="433"/>
  <unicode hex="0073"/>
  <outline>
    <contour>
      <point x="200" y="-15" type="curve" smooth="yes"/>
      <point x="328" y="-15"/>
      <point x="392" y="54"/>
      <point x="392" y="128" type="curve" smooth="yes"/>
      <point x="392" y="190"/>
      <point x="355" y="238"/>
      <point x="255" y="275" type="curve" smooth="yes"/>
      <point x="225" y="286" type="line" smooth="yes"/>
      <point x="157" y="311"/>
      <point x="132" y="330"/>
      <point x="132" y="371" type="curve" smooth="yes"/>
      <point x="132" y="417"/>
      <point x="164" y="445"/>
      <point x="226" y="445" type="curve" smooth="yes"/>
      <point x="262" y="445"/>
      <point x="296" y="432"/>
      <point x="328" y="407" type="curve"/>
      <point x="292" y="449" type="line"/>
      <point x="312" y="348" type="line"/>
      <point x="362" y="348" type="line"/>
      <point x="366" y="449" type="line"/>
      <point x="323" y="475"/>
      <point x="281" y="490"/>
      <point x="227" y="490" type="curve" smooth="yes"/>
      <point x="123" y="490"/>
      <point x="55" y="422"/>
      <point x="55" y="346" type="curve" smooth="yes"/>
      <point x="55" y="282"/>
      <point x="103" y="241"/>
      <point x="176" y="214" type="curve" smooth="yes"/>
      <point x="222" y="197" type="line" smooth="yes"/>
      <point x="285" y="174"/>
      <point x="316" y="151"/>
      <point x="316" y="108" type="curve" smooth="yes"/>
      <point x="316" y="62"/>
      <point x="279" y="30"/>
      <point x="202" y="30" type="curve" smooth="yes"/>
      <point x="152" y="30"/>
      <point x="114" y="44"/>
      <point x="79" y="71" type="curve"/>
      <point x="128" y="14" type="line"/>
      <point x="101" y="132" type="line"/>
      <point x="48" y="132" type="line"/>
      <point x="52" y="23" type="line"/>
      <point x="101" y="-2"/>
      <point x="144" y="-15"/>
    </contour>
  </outline>
</glyph>
<glyph name="t" format="1">
  <advance width="332"/>
  <unicode hex="0074"/>
  <outline>
    <contour>
      <point x="139" y="466" type="line"/>
      <point x="139" y="442" type="line"/>
      <point x="298" y="442" type="line"/>
      <point x="298" y="466" type="line"/>
    </contour>
    <contour>
      <point x="153" y="109" type="curve" smooth="yes"/>
      <point x="153" y="447" type="line"/>
      <point x="157" y="619" type="line"/>
      <point x="135" y="619" type="line"/>
      <point x="124" y="454" type="line"/>
      <point x="145" y="467" type="line"/>
      <point x="15" y="462" type="line"/>
      <point x="15" y="442" type="line"/>
      <point x="125" y="442" type="line"/>
      <point x="125" y="177" type="line" smooth="yes"/>
      <point x="125" y="150"/>
      <point x="124" y="132"/>
      <point x="124" y="113" type="curve" smooth="yes"/>
      <point x="122" y="33"/>
      <point x="148" y="-10"/>
      <point x="221" y="-10" type="curve" smooth="yes"/>
      <point x="256" y="-10"/>
      <point x="284" y="-1"/>
      <point x="307" y="18" type="curve"/>
      <point x="300" y="32" type="line"/>
      <point x="275" y="20"/>
      <point x="257" y="14"/>
      <point x="224" y="14" type="curve" smooth="yes"/>
      <point x="177" y="14"/>
      <point x="153" y="42"/>
    </contour>
  </outline>
</glyph>
<glyph name="u" format="1">
  <advance width="604"/>
  <unicode hex="0075"/>
  <outline>
    <contour>
      <point x="553" y="0" type="line"/>
      <point x="553" y="20" type="line"/>
      <point x="458" y="26" type="line"/>
      <point x="474" y="0" type="line"/>
      <point x="474" y="320" type="line"/>
      <point x="478" y="458" type="line"/>
      <point x="469" y="470" type="line"/>
      <point x="360" y="464" type="line"/>
      <point x="360" y="443" type="line"/>
      <point x="461" y="437" type="line"/>
      <point x="446" y="447" type="line"/>
      <point x="446" y="110" type="line"/>
      <point x="443" y="-4" type="line"/>
    </contour>
    <contour>
      <point x="153" y="320" type="line"/>
      <point x="157" y="458" type="line"/>
      <point x="148" y="470" type="line"/>
      <point x="39" y="464" type="line"/>
      <point x="39" y="444" type="line"/>
      <point x="140" y="437" type="line"/>
      <point x="127" y="448" type="line"/>
      <point x="125" y="173" type="line" smooth="yes"/>
      <point x="124" y="31"/>
      <point x="168" y="-15"/>
      <point x="261" y="-15" type="curve" smooth="yes"/>
      <point x="344" y="-15"/>
      <point x="404" y="39"/>
      <point x="452" y="103" type="curve"/>
      <point x="435" y="96" type="line"/>
      <point x="457" y="96" type="line"/>
      <point x="457" y="122" type="line"/>
      <point x="446" y="122" type="line"/>
      <point x="395" y="54"/>
      <point x="333" y="13"/>
      <point x="266" y="13" type="curve" smooth="yes"/>
      <point x="194" y="13"/>
      <point x="153" y="55"/>
      <point x="153" y="176" type="curve" smooth="yes"/>
    </contour>
  </outline>
</glyph>
<glyph name="v" format="1">
  <advance width="504"/>
  <unicode hex="0076"/>
  <outline>
    <contour>
      <point x="424" y="417" type="line"/>
      <point x="494" y="432" type="line"/>
      <point x="494" y="472" type="line"/>
      <point x="304" y="472" type="line"/>
      <point x="304" y="432" type="line"/>
      <point x="404" y="417" type="line"/>
    </contour>
    <contour>
      <point x="35" y="472" type="line"/>
      <point x="237" y="-10" type="line"/>
      <point x="278" y="-10" type="line"/>
      <point x="460" y="472" type="line"/>
      <point x="406" y="472" type="line"/>
      <point x="245" y="11" type="line"/>
      <point x="286" y="63" type="line"/>
      <point x="130" y="472" type="line"/>
    </contour>
    <contour>
      <point x="118" y="417" type="line"/>
      <point x="240" y="432" type="line"/>
      <point x="240" y="472" type="line"/>
      <point x="0" y="472" type="line"/>
      <point x="0" y="432" type="line"/>
      <point x="98" y="417" type="line"/>
    </contour>
  </outline>
</glyph>
<glyph name="w" format="1">
  <advance width="762"/>
  <unicode hex="0077"/>
  <outline>
    <contour>
      <point x="395" y="417" type="line"/>
      <point x="415" y="417" type="line"/>
      <point x="510" y="432" type="line"/>
      <point x="510" y="472" type="line"/>
      <point x="290" y="472" type="line"/>
      <point x="290" y="432" type="line"/>
    </contour>
    <contour>
      <point x="118" y="417" type="line"/>
      <point x="226" y="432" type="line"/>
      <point x="226" y="472" type="line"/>
      <point x="0" y="472" type="line"/>
      <point x="0" y="432" type="line"/>
      <point x="98" y="417" type="line"/>
    </contour>
    <contour>
      <point x="682" y="417" type="line"/>
      <point x="752" y="432" type="line"/>
      <point x="752" y="472" type="line"/>
      <point x="569" y="472" type="line"/>
      <point x="569" y="432" type="line"/>
      <point x="662" y="417" type="line"/>
    </contour>
    <contour>
      <point x="384" y="472" type="line"/>
      <point x="241" y="79" type="line"/>
      <point x="263" y="79" type="line"/>
      <point x="130" y="472" type="line"/>
      <point x="40" y="472" type="line"/>
      <point x="219" y="-10" type="line"/>
      <point x="254" y="-10" type="line"/>
      <point x="393" y="366" type="line"/>
      <point x="373" y="366" type="line"/>
      <point x="518" y="-10" type="line"/>
      <point x="553" y="-10" type="line"/>
      <point x="716" y="472" type="line"/>
      <point x="660" y="472" type="line"/>
      <point x="540" y="79" type="line"/>
      <point x="562" y="79" type="line"/>
      <point x="414" y="472" type="line"/>
    </contour>
  </outline>
</glyph>
<glyph name="x" format="1">
  <advance width="504"/>
  <unicode hex="0078"/>
  <outline>
    <contour>
      <point x="43" y="472" type="line"/>
      <point x="216" y="224" type="line"/>
      <point x="364" y="0" type="line"/>
      <point x="461" y="0" type="line"/>
      <point x="275" y="265" type="line"/>
      <point x="136" y="472" type="line"/>
    </contour>
    <contour>
      <point x="94" y="52" type="line"/>
      <point x="10" y="35" type="line"/>
      <point x="10" y="0" type="line"/>
      <point x="203" y="0" type="line"/>
      <point x="203" y="35" type="line"/>
      <point x="114" y="52" type="line"/>
    </contour>
    <contour>
      <point x="136" y="417" type="line"/>
      <point x="226" y="432" type="line"/>
      <point x="226" y="472" type="line"/>
      <point x="15" y="472" type="line"/>
      <point x="15" y="432" type="line"/>
      <point x="116" y="417" type="line"/>
    </contour>
    <contour>
      <point x="367" y="55" type="line"/>
      <point x="262" y="35" type="line"/>
      <point x="262" y="0" type="line"/>
      <point x="494" y="0" type="line"/>
      <point x="494" y="35" type="line"/>
      <point x="387" y="55" type="line"/>
    </contour>
    <contour>
      <point x="401" y="418" type="line"/>
      <point x="478" y="432" type="line"/>
      <point x="478" y="472" type="line"/>
      <point x="299" y="472" type="line"/>
      <point x="299" y="432" type="line"/>
      <point x="381" y="418" type="line"/>
    </contour>
    <contour>
      <point x="94" y="0" type="line"/>
      <point x="267" y="236" type="line"/>
      <point x="235" y="259" type="line"/>
      <point x="36" y="0" type="line"/>
    </contour>
    <contour>
      <point x="403" y="472" type="line"/>
      <point x="234" y="245" type="line"/>
      <point x="265" y="219" type="line"/>
      <point x="463" y="472" type="line"/>
    </contour>
  </outline>
</glyph>
<glyph name="y" format="1">
  <advance width="506"/>
  <unicode hex="0079"/>
  <outline>
    <contour>
      <point x="426" y="417" type="line"/>
      <point x="496" y="432" type="line"/>
      <point x="496" y="472" type="line"/>
      <point x="300" y="472" type="line"/>
      <point x="300" y="432" type="line"/>
      <point x="406" y="417" type="line"/>
    </contour>
    <contour>
      <point x="117" y="417" type="line"/>
      <point x="237" y="431" type="line"/>
      <point x="237" y="472" type="line"/>
      <point x="-1" y="472" type="line"/>
      <point x="-1" y="432" type="line"/>
      <point x="97" y="417" type="line"/>
    </contour>
    <contour>
      <point x="287" y="48" type="line"/>
      <point x="130" y="472" type="line"/>
      <point x="37" y="472" type="line"/>
      <point x="246" y="-52" type="line"/>
    </contour>
    <contour>
      <point x="99" y="-210" type="curve"/>
      <point x="165" y="-210" type="line"/>
      <point x="137" y="-182" type="line" smooth="yes"/>
      <point x="107" y="-152"/>
      <point x="87" y="-142"/>
      <point x="61" y="-142" type="curve" smooth="yes"/>
      <point x="31" y="-142"/>
      <point x="2" y="-156"/>
      <point x="-5" y="-184" type="curve"/>
      <point x="-5" y="-223"/>
      <point x="37" y="-250"/>
      <point x="86" y="-250" type="curve" smooth="yes"/>
      <point x="168" y="-250"/>
      <point x="227" y="-175"/>
      <point x="292" y="6" type="curve" smooth="yes"/>
      <point x="460" y="472" type="line"/>
      <point x="406" y="472" type="line"/>
      <point x="254" y="25" type="line" smooth="yes"/>
      <point x="217" y="-83"/>
      <point x="181" y="-170"/>
    </contour>
  </outline>
</glyph>
<glyph name="z" format="1">
  <advance width="457"/>
  <unicode hex="007A"/>
  <outline>
    <contour>
      <point x="59" y="466" type="line"/>
      <point x="53" y="341" type="line"/>
      <point x="74" y="337" type="line"/>
      <point x="95" y="466" type="line"/>
      <point x="82" y="446" type="line"/>
      <point x="384" y="446" type="line"/>
      <point x="382" y="466" type="line"/>
      <point x="54" y="20" type="line"/>
      <point x="54" y="0" type="line"/>
      <point x="411" y="0" type="line"/>
      <point x="418" y="139" type="line"/>
      <point x="397" y="139" type="line"/>
      <point x="373" y="0" type="line"/>
      <point x="393" y="20" type="line"/>
      <point x="70" y="20" type="line"/>
      <point x="72" y="0" type="line"/>
      <point x="401" y="446" type="line"/>
      <point x="401" y="466" type="line"/>
    </contour>
  </outline>
</glyph>
<glyph name="braceleft" format="1">
  <advance width="348"/>
  <unicode hex="007B"/>
  <outline>
    <contour>
      <point x="40" y="268" type="line"/>
      <point x="138" y="260"/>
      <point x="172" y="223"/>
      <point x="172" y="169" type="curve" smooth="yes"/>
      <point x="172" y="126"/>
      <point x="123" y="41"/>
      <point x="123" y="-35" type="curve" smooth="yes"/>
      <point x="123" y="-113"/>
      <point x="164" y="-159"/>
      <point x="283" y="-159" type="curve" smooth="yes"/>
      <point x="318" y="-159" type="line"/>
      <point x="318" y="-137" type="line"/>
      <point x="281" y="-135" type="line" smooth="yes"/>
      <point x="176" y="-129"/>
      <point x="151" y="-101"/>
      <point x="151" y="-34" type="curve" smooth="yes"/>
      <point x="151" y="48"/>
      <point x="192" y="112"/>
      <point x="192" y="167" type="curve" smooth="yes"/>
      <point x="192" y="224"/>
      <point x="162" y="276"/>
      <point x="55" y="281" type="curve"/>
      <point x="55" y="275" type="line"/>
      <point x="162" y="280"/>
      <point x="192" y="332"/>
      <point x="192" y="389" type="curve" smooth="yes"/>
      <point x="192" y="444"/>
      <point x="151" y="508"/>
      <point x="151" y="590" type="curve" smooth="yes"/>
      <point x="151" y="657"/>
      <point x="176" y="685"/>
      <point x="281" y="691" type="curve" smooth="yes"/>
      <point x="318" y="693" type="line"/>
      <point x="318" y="715" type="line"/>
      <point x="283" y="715" type="line" smooth="yes"/>
      <point x="164" y="715"/>
      <point x="123" y="669"/>
      <point x="123" y="591" type="curve" smooth="yes"/>
      <point x="123" y="515"/>
      <point x="172" y="430"/>
      <point x="172" y="387" type="curve" smooth="yes"/>
      <point x="172" y="333"/>
      <point x="138" y="296"/>
      <point x="40" y="288" type="curve"/>
    </contour>
  </outline>
</glyph>
<glyph name="bar" format="1">
  <advance width="240"/>
  <unicode hex="007C"/>
  <outline>
    <contour>
      <point x="107" y="-250" type="line"/>
      <point x="133" y="-250" type="line"/>
      <point x="133" y="750" type="line"/>
      <point x="107" y="750" type="line"/>
    </contour>
  </outline>
</glyph>
<glyph name="asciitilde" format="1">
  <advance width="530"/>
  <unicode hex="007E"/>
  <outline>
    <contour>
      <point x="280" y="351" type="curve" smooth="yes"/>
      <point x="248" y="381"/>
      <point x="216" y="404"/>
      <point x="171" y="404" type="curve" smooth="yes"/>
      <point x="109" y="404"/>
      <point x="68" y="360"/>
      <point x="63" y="297" type="curve"/>
      <point x="86" y="293" type="line"/>
      <point x="95" y="354"/>
      <point x="125" y="378"/>
      <point x="171" y="378" type="curve" smooth="yes"/>
      <point x="207" y="378"/>
      <point x="227" y="365"/>
      <point x="256" y="336" type="curve" smooth="yes"/>
      <point x="290" y="302"/>
      <point x="319" y="285"/>
      <point x="364" y="285" type="curve" smooth="yes"/>
      <point x="427" y="285"/>
      <point x="466" y="331"/>
      <point x="471" y="392" type="curve"/>
      <point x="448" y="396" type="line"/>
      <point x="439" y="337"/>
      <point x="410" y="311"/>
      <point x="365" y="311" type="curve" smooth="yes"/>
      <point x="331" y="311"/>
      <point x="309" y="323"/>
    </contour>
  </outline>
</glyph>
<glyph name="cent" format="1">
  <advance width="490"/>
  <unicode hex="00A2"/>
  <outline>
    <contour>
      <point x="278" y="-50" type="line"/>
      <point x="278" y="667" type="line"/>
      <point x="252" y="667" type="line"/>
      <point x="252" y="-50" type="line"/>
    </contour>
    <contour>
      <point x="274" y="544" type="curve" smooth="yes"/>
      <point x="315" y="544"/>
      <point x="349" y="532"/>
      <point x="392" y="499" type="curve"/>
      <point x="360" y="532" type="line"/>
      <point x="389" y="458" type="line" smooth="yes"/>
      <point x="394" y="445"/>
      <point x="402" y="439"/>
      <point x="415" y="439" type="curve" smooth="yes"/>
      <point x="426" y="439"/>
      <point x="434" y="446"/>
      <point x="437" y="459" type="curve"/>
      <point x="407" y="529"/>
      <point x="346" y="564"/>
      <point x="276" y="564" type="curve" smooth="yes"/>
      <point x="160" y="564"/>
      <point x="52" y="473"/>
      <point x="52" y="315" type="curve" smooth="yes"/>
      <point x="52" y="166"/>
      <point x="141" y="65"/>
      <point x="268" y="65" type="curve" smooth="yes"/>
      <point x="345" y="65"/>
      <point x="398" y="99"/>
      <point x="438" y="147" type="curve"/>
      <point x="427" y="157" type="line"/>
      <point x="384" y="113"/>
      <point x="329" y="91"/>
      <point x="270" y="91" type="curve" smooth="yes"/>
      <point x="162" y="91"/>
      <point x="84" y="183"/>
      <point x="84" y="316" type="curve" smooth="yes"/>
      <point x="84" y="452"/>
      <point x="167" y="544"/>
    </contour>
  </outline>
</glyph>
<glyph name="sterling" format="1">
  <advance width="497"/>
  <unicode hex="00A3"/>
  <outline>
    <contour>
      <point x="40" y="285" type="line"/>
      <point x="362" y="285" type="line"/>
      <point x="362" y="335" type="line"/>
      <point x="40" y="335" type="line"/>
    </contour>
    <contour>
      <point x="34" y="0" type="line"/>
      <point x="464" y="0" type="line"/>
      <point x="464" y="80" type="line"/>
      <point x="92" y="80" type="line"/>
      <point x="92" y="56" type="line"/>
      <point x="162" y="94"/>
      <point x="202" y="157"/>
      <point x="202" y="257" type="curve" smooth="yes"/>
      <point x="202" y="345"/>
      <point x="180" y="392"/>
      <point x="180" y="479" type="curve" smooth="yes"/>
      <point x="180" y="576"/>
      <point x="228" y="615"/>
      <point x="290" y="615" type="curve" smooth="yes"/>
      <point x="313" y="615"/>
      <point x="346" y="610"/>
      <point x="385" y="593" type="curve"/>
      <point x="329" y="625" type="line"/>
      <point x="346" y="549" type="line" smooth="yes"/>
      <point x="357" y="499"/>
      <point x="377" y="483"/>
      <point x="404" y="483" type="curve" smooth="yes"/>
      <point x="425" y="483"/>
      <point x="441" y="493"/>
      <point x="449" y="514" type="curve"/>
      <point x="444" y="600"/>
      <point x="366" y="660"/>
      <point x="275" y="660" type="curve" smooth="yes"/>
      <point x="166" y="660"/>
      <point x="90" y="580"/>
      <point x="90" y="475" type="curve" smooth="yes"/>
      <point x="90" y="379"/>
      <point x="147" y="342"/>
      <point x="147" y="250" type="curve" smooth="yes"/>
      <point x="147" y="171"/>
      <point x="106" y="90"/>
      <point x="34" y="50" type="curve"/>
    </contour>
  </outline>
</glyph>
<glyph name="currency" format="1">
  <advance width="497"/>
  <unicode hex="00A4"/>
  <outline>
    <contour>
      <point x="366" y="428" type="line"/>
      <point x="413" y="456" type="line" smooth="yes"/>
      <point x="458" y="483"/>
      <point x="470" y="497"/>
      <point x="470" y="514" type="curve" smooth="yes"/>
      <point x="470" y="534"/>
      <point x="454" y="550"/>
      <point x="434" y="550" type="curve" smooth="yes"/>
      <point x="417" y="550"/>
      <point x="403" y="538"/>
      <point x="376" y="493" type="curve" smooth="yes"/>
      <point x="348" y="446" type="line"/>
    </contour>
    <contour>
      <point x="140" y="329" type="curve" smooth="yes"/>
      <point x="140" y="395"/>
      <point x="189" y="441"/>
      <point x="249" y="441" type="curve" smooth="yes"/>
      <point x="308" y="441"/>
      <point x="357" y="395"/>
      <point x="357" y="329" type="curve" smooth="yes"/>
      <point x="357" y="263"/>
      <point x="308" y="217"/>
      <point x="249" y="217" type="curve" smooth="yes"/>
      <point x="189" y="217"/>
      <point x="140" y="263"/>
    </contour>
    <contour>
      <point x="84" y="329" type="curve" smooth="yes"/>
      <point x="84" y="232"/>
      <point x="160" y="167"/>
      <point x="249" y="167" type="curve" smooth="yes"/>
      <point x="337" y="167"/>
      <point x="413" y="232"/>
      <point x="413" y="329" type="curve" smooth="yes"/>
      <point x="413" y="426"/>
      <point x="337" y="491"/>
      <point x="249" y="491" type="curve" smooth="yes"/>
      <point x="160" y="491"/>
      <point x="84" y="426"/>
    </contour>
    <contour>
      <point x="150" y="446" type="line"/>
      <point x="122" y="493" type="line" smooth="yes"/>
      <point x="95" y="538"/>
      <point x="81" y="550"/>
      <point x="64" y="550" type="curve" smooth="yes"/>
      <point x="44" y="550"/>
      <point x="28" y="534"/>
      <point x="28" y="514" type="curve" smooth="yes"/>
      <point x="28" y="497"/>
      <point x="40" y="483"/>
      <point x="85" y="456" type="curve" smooth="yes"/>
      <point x="132" y="428" type="line"/>
    </contour>
    <contour>
      <point x="132" y="230" type="line"/>
      <point x="85" y="202" type="line" smooth="yes"/>
      <point x="40" y="175"/>
      <point x="28" y="161"/>
      <point x="28" y="144" type="curve" smooth="yes"/>
      <point x="28" y="124"/>
      <point x="44" y="108"/>
      <point x="64" y="108" type="curve" smooth="yes"/>
      <point x="81" y="108"/>
      <point x="95" y="120"/>
      <point x="122" y="165" type="curve" smooth="yes"/>
      <point x="150" y="212" type="line"/>
    </contour>
    <contour>
      <point x="348" y="212" type="line"/>
      <point x="376" y="165" type="line" smooth="yes"/>
      <point x="403" y="120"/>
      <point x="417" y="108"/>
      <point x="434" y="108" type="curve" smooth="yes"/>
      <point x="454" y="108"/>
      <point x="470" y="124"/>
      <point x="470" y="144" type="curve" smooth="yes"/>
      <point x="470" y="161"/>
      <point x="458" y="175"/>
      <point x="413" y="202" type="curve" smooth="yes"/>
      <point x="366" y="230" type="line"/>
    </contour>
  </outline>
</glyph>
<glyph name="yen" format="1">
  <advance width="497"/>
  <unicode hex="00A5"/>
  <outline>
    <contour>
      <point x="50" y="151" type="line"/>
      <point x="455" y="151" type="line"/>
      <point x="455" y="201" type="line"/>
      <point x="50" y="201" type="line"/>
    </contour>
    <contour>
      <point x="50" y="268" type="line"/>
      <point x="455" y="268" type="line"/>
      <point x="455" y="318" type="line"/>
      <point x="50" y="318" type="line"/>
    </contour>
    <contour>
      <point x="240" y="53" type="line"/>
      <point x="105" y="39" type="line"/>
      <point x="105" y="0" type="line"/>
      <point x="394" y="0" type="line"/>
      <point x="394" y="39" type="line"/>
      <point x="259" y="53" type="line"/>
    </contour>
    <contour>
      <point x="104" y="592" type="line"/>
      <point x="113" y="592" type="line"/>
      <point x="229" y="607" type="line"/>
      <point x="229" y="645" type="line"/>
      <point x="-11" y="645" type="line"/>
      <point x="-11" y="607" type="line"/>
    </contour>
    <contour>
      <point x="418" y="592" type="line"/>
      <point x="422" y="592" type="line"/>
      <point x="509" y="607" type="line"/>
      <point x="509" y="645" type="line"/>
      <point x="317" y="645" type="line"/>
      <point x="317" y="607" type="line"/>
    </contour>
    <contour>
      <point x="209" y="190" type="line" smooth="yes"/>
      <point x="209" y="126"/>
      <point x="207" y="68"/>
      <point x="206" y="0" type="curve"/>
      <point x="293" y="0" type="line"/>
      <point x="291" y="70"/>
      <point x="290" y="127"/>
      <point x="290" y="190" type="curve" smooth="yes"/>
      <point x="290" y="309" type="line"/>
      <point x="209" y="309" type="line"/>
    </contour>
    <contour>
      <point x="274" y="237" type="line"/>
      <point x="461" y="645" type="line"/>
      <point x="412" y="645" type="line"/>
      <point x="266" y="320" type="line"/>
      <point x="274" y="320" type="line"/>
      <point x="133" y="645" type="line"/>
      <point x="33" y="645" type="line"/>
      <point x="225" y="237" type="line"/>
    </contour>
  </outline>
</glyph>
<glyph name="section" format="1">
  <advance width="480"/>
  <unicode hex="00A7"/>
  <outline>
    <contour>
      <point x="259" y="693" type="curve" smooth="yes"/>
      <point x="164" y="693"/>
      <point x="109" y="639"/>
      <point x="109" y="568" type="curve" smooth="yes"/>
      <point x="109" y="498"/>
      <point x="158" y="449"/>
      <point x="262" y="404" type="curve" smooth="yes"/>
      <point x="371" y="357"/>
      <point x="395" y="320"/>
      <point x="395" y="263" type="curve" smooth="yes"/>
      <point x="395" y="222"/>
      <point x="375" y="180"/>
      <point x="319" y="142" type="curve"/>
      <point x="327" y="130" type="line"/>
      <point x="393" y="164"/>
      <point x="421" y="219"/>
      <point x="421" y="264" type="curve" smooth="yes"/>
      <point x="421" y="336"/>
      <point x="386" y="375"/>
      <point x="275" y="426" type="curve" smooth="yes"/>
      <point x="159" y="479"/>
      <point x="135" y="515"/>
      <point x="135" y="569" type="curve" smooth="yes"/>
      <point x="135" y="631"/>
      <point x="177" y="674"/>
      <point x="258" y="674" type="curve" smooth="yes"/>
      <point x="303" y="674"/>
      <point x="338" y="659"/>
      <point x="370" y="637" type="curve"/>
      <point x="342" y="668" type="line"/>
      <point x="378" y="582" type="line" smooth="yes"/>
      <point x="383" y="571"/>
      <point x="390" y="566"/>
      <point x="399" y="566" type="curve" smooth="yes"/>
      <point x="411" y="566"/>
      <point x="419" y="574"/>
      <point x="419" y="585" type="curve"/>
      <point x="392" y="656"/>
      <point x="337" y="693"/>
    </contour>
    <contour>
      <point x="219" y="-100" type="curve" smooth="yes"/>
      <point x="319" y="-100"/>
      <point x="379" y="-47"/>
      <point x="379" y="34" type="curve" smooth="yes"/>
      <point x="379" y="100"/>
      <point x="339" y="156"/>
      <point x="225" y="200" type="curve" smooth="yes"/>
      <point x="123" y="239"/>
      <point x="93" y="285"/>
      <point x="93" y="352" type="curve" smooth="yes"/>
      <point x="93" y="403"/>
      <point x="119" y="443"/>
      <point x="169" y="471" type="curve"/>
      <point x="161" y="483" type="line"/>
      <point x="95" y="453"/>
      <point x="67" y="401"/>
      <point x="67" y="350" type="curve" smooth="yes"/>
      <point x="67" y="279"/>
      <point x="103" y="220"/>
      <point x="213" y="178" type="curve" smooth="yes"/>
      <point x="326" y="134"/>
      <point x="353" y="95"/>
      <point x="353" y="32" type="curve" smooth="yes"/>
      <point x="353" y="-35"/>
      <point x="308" y="-81"/>
      <point x="220" y="-81" type="curve" smooth="yes"/>
      <point x="175" y="-81"/>
      <point x="140" y="-66"/>
      <point x="108" y="-44" type="curve"/>
      <point x="136" y="-75" type="line"/>
      <point x="100" y="11" type="line" smooth="yes"/>
      <point x="95" y="22"/>
      <point x="88" y="27"/>
      <point x="79" y="27" type="curve" smooth="yes"/>
      <point x="67" y="27"/>
      <point x="59" y="19"/>
      <point x="59" y="8" type="curve"/>
      <point x="86" y="-63"/>
      <point x="141" y="-100"/>
    </contour>
  </outline>
</glyph>
<glyph name="copyright" format="1">
  <advance width="759"/>
  <unicode hex="00A9"/>
  <outline>
    <contour>
      <point x="56" y="340" type="curve" smooth="yes"/>
      <point x="56" y="543"/>
      <point x="198" y="670"/>
      <point x="380" y="670" type="curve" smooth="yes"/>
      <point x="562" y="670"/>
      <point x="704" y="542"/>
      <point x="704" y="340" type="curve" smooth="yes"/>
      <point x="704" y="138"/>
      <point x="563" y="6"/>
      <point x="380" y="6" type="curve" smooth="yes"/>
      <point x="198" y="6"/>
      <point x="56" y="133"/>
    </contour>
    <contour>
      <point x="30" y="340" type="curve" smooth="yes"/>
      <point x="30" y="121"/>
      <point x="190" y="-15"/>
      <point x="380" y="-15" type="curve" smooth="yes"/>
      <point x="570" y="-15"/>
      <point x="729" y="121"/>
      <point x="729" y="340" type="curve" smooth="yes"/>
      <point x="729" y="559"/>
      <point x="570" y="692"/>
      <point x="380" y="692" type="curve" smooth="yes"/>
      <point x="190" y="692"/>
      <point x="30" y="559"/>
    </contour>
    <contour>
      <point x="393" y="148" type="curve" smooth="yes"/>
      <point x="300" y="148"/>
      <point x="230" y="222"/>
      <point x="230" y="340" type="curve" smooth="yes"/>
      <point x="230" y="456"/>
      <point x="296" y="533"/>
      <point x="397" y="533" type="curve" smooth="yes"/>
      <point x="440" y="533"/>
      <point x="465" y="523"/>
      <point x="498" y="499" type="curve"/>
      <point x="475" y="524" type="line"/>
      <point x="486" y="437" type="line"/>
      <point x="511" y="437" type="line"/>
      <point x="508" y="521" type="line"/>
      <point x="472" y="542"/>
      <point x="443" y="553"/>
      <point x="395" y="553" type="curve" smooth="yes"/>
      <point x="281" y="553"/>
      <point x="200" y="466"/>
      <point x="200" y="340" type="curve" smooth="yes"/>
      <point x="200" y="215"/>
      <point x="277" y="128"/>
      <point x="394" y="128" type="curve" smooth="yes"/>
      <point x="437" y="128"/>
      <point x="472" y="136"/>
      <point x="512" y="160" type="curve"/>
      <point x="514" y="244" type="line"/>
      <point x="490" y="244" type="line"/>
      <point x="479" y="160" type="line"/>
      <point x="499" y="180" type="line"/>
      <point x="467" y="157"/>
      <point x="433" y="148"/>
    </contour>
  </outline>
</glyph>
<glyph name="logicalnot" format="1">
  <advance width="530"/>
  <unicode hex="00AC"/>
  <outline>
    <contour>
      <point x="40" y="358" type="line"/>
      <point x="467" y="358" type="line"/>
      <point x="462" y="363" type="line"/>
      <point x="462" y="175" type="line"/>
      <point x="490" y="175" type="line"/>
      <point x="490" y="384" type="line"/>
      <point x="40" y="384" type="line"/>
    </contour>
  </outline>
</glyph>
<glyph name="registered" format="1">
  <advance width="458"/>
  <unicode hex="00AE"/>
  <outline>
    <contour>
      <point x="68" y="516" type="curve" smooth="yes"/>
      <point x="68" y="622"/>
      <point x="137" y="682"/>
      <point x="229" y="682" type="curve" smooth="yes"/>
      <point x="321" y="682"/>
      <point x="390" y="622"/>
      <point x="390" y="516" type="curve" smooth="yes"/>
      <point x="390" y="410"/>
      <point x="321" y="348"/>
      <point x="229" y="348" type="curve" smooth="yes"/>
      <point x="137" y="348"/>
      <point x="68" y="410"/>
    </contour>
    <contour>
      <point x="166" y="419" type="line"/>
      <point x="208" y="419" type="line"/>
      <point x="208" y="620" type="line"/>
      <point x="166" y="620" type="line"/>
    </contour>
    <contour>
      <point x="181" y="439" type="line"/>
      <point x="137" y="434" type="line"/>
      <point x="137" y="419" type="line"/>
      <point x="237" y="419" type="line"/>
      <point x="237" y="434" type="line"/>
      <point x="189" y="439" type="line"/>
    </contour>
    <contour>
      <point x="181" y="599" type="line"/>
      <point x="187" y="599" type="line"/>
      <point x="187" y="620" type="line"/>
      <point x="137" y="620" type="line"/>
      <point x="137" y="604" type="line"/>
    </contour>
    <contour>
      <point x="30" y="516" type="curve" smooth="yes"/>
      <point x="30" y="393"/>
      <point x="122" y="318"/>
      <point x="229" y="318" type="curve" smooth="yes"/>
      <point x="336" y="318"/>
      <point x="428" y="393"/>
      <point x="428" y="516" type="curve" smooth="yes"/>
      <point x="428" y="639"/>
      <point x="336" y="712"/>
      <point x="229" y="712" type="curve" smooth="yes"/>
      <point x="122" y="712"/>
      <point x="30" y="639"/>
    </contour>
    <contour>
      <point x="336" y="434" type="line"/>
      <point x="289" y="439" type="line"/>
      <point x="314" y="426" type="line"/>
      <point x="303" y="478" type="line" smooth="yes"/>
      <point x="297" y="506"/>
      <point x="270" y="519"/>
      <point x="234" y="519" type="curve"/>
      <point x="218" y="512" type="line"/>
      <point x="285" y="512"/>
      <point x="307" y="542"/>
      <point x="307" y="569" type="curve" smooth="yes"/>
      <point x="307" y="599"/>
      <point x="279" y="620"/>
      <point x="231" y="620" type="curve" smooth="yes"/>
      <point x="187" y="620" type="line"/>
      <point x="187" y="603" type="line"/>
      <point x="222" y="603" type="line" smooth="yes"/>
      <point x="249" y="603"/>
      <point x="262" y="590"/>
      <point x="262" y="565" type="curve" smooth="yes"/>
      <point x="262" y="543"/>
      <point x="251" y="525"/>
      <point x="222" y="525" type="curve" smooth="yes"/>
      <point x="187" y="525" type="line"/>
      <point x="187" y="508" type="line"/>
      <point x="223" y="508" type="line" smooth="yes"/>
      <point x="242" y="508"/>
      <point x="255" y="501"/>
      <point x="258" y="484" type="curve" smooth="yes"/>
      <point x="267" y="441" type="line" smooth="yes"/>
      <point x="271" y="420"/>
      <point x="281" y="415"/>
      <point x="306" y="415" type="curve" smooth="yes"/>
      <point x="317" y="415"/>
      <point x="323" y="416"/>
      <point x="336" y="419" type="curve"/>
    </contour>
  </outline>
</glyph>
<glyph name="degree" format="1">
  <advance width="328"/>
  <unicode hex="00B0"/>
  <outline>
    <contour>
      <point x="164" y="464" type="curve" smooth="yes"/>
      <point x="115" y="464"/>
      <point x="80" y="502"/>
      <point x="80" y="556" type="curve" smooth="yes"/>
      <point x="80" y="610"/>
      <point x="115" y="650"/>
      <point x="164" y="650" type="curve" smooth="yes"/>
      <point x="213" y="650"/>
      <point x="248" y="610"/>
      <point x="248" y="556" type="curve" smooth="yes"/>
      <point x="248" y="502"/>
      <point x="213" y="464"/>
    </contour>
    <contour>
      <point x="164" y="429" type="curve" smooth="yes"/>
      <point x="233" y="429"/>
      <point x="293" y="479"/>
      <point x="293" y="556" type="curve" smooth="yes"/>
      <point x="293" y="633"/>
      <point x="233" y="685"/>
      <point x="164" y="685" type="curve" smooth="yes"/>
      <point x="95" y="685"/>
      <point x="35" y="633"/>
      <point x="35" y="556" type="curve" smooth="yes"/>
      <point x="35" y="479"/>
      <point x="95" y="429"/>
    </contour>
  </outline>
</glyph>
<glyph name="plusminus" format="1">
  <advance width="530"/>
  <unicode hex="00B1"/>
  <outline>
    <contour>
      <point x="251" y="98" type="line"/>
      <point x="279" y="98" type="line"/>
      <point x="279" y="569" type="line"/>
      <point x="251" y="569" type="line"/>
    </contour>
    <contour>
      <point x="490" y="323" type="line"/>
      <point x="490" y="349" type="line"/>
      <point x="40" y="349" type="line"/>
      <point x="40" y="323" type="line"/>
    </contour>
    <contour>
      <point x="490" y="0" type="line"/>
      <point x="490" y="26" type="line"/>
      <point x="40" y="26" type="line"/>
      <point x="40" y="0" type="line"/>
    </contour>
  </outline>
</glyph>
<glyph name="mu.math" format="1">
  <advance width="580"/>
  <unicode hex="00B5"/>
  <outline>
    <contour>
      <point x="247" y="-15" type="curve" smooth="yes"/>
      <point x="311" y="-15"/>
      <point x="378" y="26"/>
      <point x="426" y="104" type="curve"/>
      <point x="426" y="124" type="line"/>
      <point x="368" y="47"/>
      <point x="312" y="15"/>
      <point x="245" y="15" type="curve" smooth="yes"/>
      <point x="172" y="15"/>
      <point x="130" y="53"/>
      <point x="130" y="159" type="curve" smooth="yes"/>
      <point x="130" y="182" type="line"/>
      <point x="114" y="182" type="line"/>
      <point x="114" y="153" type="line" smooth="yes"/>
      <point x="114" y="19"/>
      <point x="175" y="-15"/>
    </contour>
    <contour>
      <point x="108" y="89" type="line"/>
      <point x="91" y="-159" type="line" smooth="yes"/>
      <point x="89" y="-186"/>
      <point x="85" y="-221"/>
      <point x="85" y="-240" type="curve" smooth="yes"/>
      <point x="85" y="-256"/>
      <point x="88" y="-265"/>
      <point x="104" y="-265" type="curve" smooth="yes"/>
      <point x="112" y="-265"/>
      <point x="117" y="-263"/>
      <point x="123" y="-260" type="curve"/>
      <point x="123" y="96" type="line"/>
      <point x="130" y="99" type="line"/>
      <point x="130" y="352" type="line"/>
      <point x="132" y="469" type="line"/>
      <point x="122" y="474" type="line"/>
      <point x="105" y="462" type="line"/>
      <point x="108" y="254" type="line"/>
    </contour>
    <contour>
      <point x="437" y="352" type="line"/>
      <point x="439" y="469" type="line"/>
      <point x="429" y="474" type="line"/>
      <point x="412" y="462" type="line"/>
      <point x="415" y="254" type="line"/>
      <point x="415" y="90" type="line" smooth="yes"/>
      <point x="415" y="13"/>
      <point x="435" y="-15"/>
      <point x="481" y="-15" type="curve" smooth="yes"/>
      <point x="506" y="-15"/>
      <point x="523" y="-6"/>
      <point x="542" y="12" type="curve"/>
      <point x="531" y="31" type="line"/>
      <point x="514" y="19"/>
      <point x="501" y="15"/>
      <point x="480" y="15" type="curve" smooth="yes"/>
      <point x="452" y="15"/>
      <point x="437" y="31"/>
      <point x="437" y="83" type="curve" smooth="yes"/>
    </contour>
  </outline>
</glyph>
<glyph name="mu.math" format="1">
  <advance width="582"/>
  <unicode hex="00B5"/>
  <outline>
    <contour>
      <point x="243" y="-15" type="curve" smooth="yes"/>
      <point x="303" y="-15"/>
      <point x="355" y="23"/>
      <point x="408" y="104" type="curve"/>
      <point x="378" y="99" type="line"/>
      <point x="429" y="99" type="line"/>
      <point x="429" y="140" type="line"/>
      <point x="408" y="150" type="line"/>
      <point x="358" y="100"/>
      <point x="306" y="75"/>
      <point x="252" y="75" type="curve" smooth="yes"/>
      <point x="191" y="75"/>
      <point x="154" y="106"/>
      <point x="154" y="204" type="curve" smooth="yes"/>
      <point x="154" y="219" type="line"/>
      <point x="129" y="219" type="line"/>
      <point x="129" y="165" type="line" smooth="yes"/>
      <point x="129" y="41"/>
      <point x="161" y="-15"/>
    </contour>
    <contour>
      <point x="398" y="260" type="line"/>
      <point x="398" y="93" type="line" smooth="yes"/>
      <point x="398" y="31"/>
      <point x="420" y="-10"/>
      <point x="483" y="-10" type="curve" smooth="yes"/>
      <point x="512" y="-10"/>
      <point x="537" y="-2"/>
      <point x="565" y="25" type="curve"/>
      <point x="546" y="74" type="line"/>
      <point x="540" y="71" type="line" smooth="yes"/>
      <point x="530" y="66"/>
      <point x="513" y="62"/>
      <point x="500" y="62" type="curve" smooth="yes"/>
      <point x="476" y="62"/>
      <point x="458" y="80"/>
      <point x="458" y="122" type="curve" smooth="yes"/>
      <point x="458" y="393" type="line"/>
      <point x="465" y="480" type="line"/>
      <point x="446" y="490" type="line"/>
      <point x="393" y="470" type="line"/>
    </contour>
    <contour>
      <point x="94" y="68" type="line"/>
      <point x="64" y="-102" type="line" smooth="yes"/>
      <point x="58" y="-134"/>
      <point x="48" y="-163"/>
      <point x="48" y="-199" type="curve" smooth="yes"/>
      <point x="48" y="-235"/>
      <point x="67" y="-250"/>
      <point x="91" y="-250" type="curve" smooth="yes"/>
      <point x="115" y="-250"/>
      <point x="129" y="-243"/>
      <point x="138" y="-235" type="curve"/>
      <point x="145" y="74" type="line"/>
      <point x="154" y="76" type="line"/>
      <point x="154" y="393" type="line"/>
      <point x="161" y="480" type="line"/>
      <point x="142" y="490" type="line"/>
      <point x="89" y="472" type="line"/>
      <point x="94" y="260" type="line"/>
    </contour>
  </outline>
</glyph>
<glyph name="paragraph" format="1">
  <advance width="603"/>
  <unicode hex="00B6"/>
  <outline>
    <contour>
      <point x="421" y="677" type="line"/>
      <point x="421" y="650" type="line"/>
      <point x="428" y="650" type="line"/>
      <point x="545" y="657" type="line"/>
      <point x="545" y="677" type="line"/>
    </contour>
    <contour>
      <point x="410" y="180" type="line" smooth="yes"/>
      <point x="410" y="76"/>
      <point x="410" y="-28"/>
      <point x="408" y="-130" type="curve"/>
      <point x="438" y="-130" type="line"/>
      <point x="436" y="-28"/>
      <point x="436" y="76"/>
      <point x="436" y="180" type="curve" smooth="yes"/>
      <point x="436" y="367" type="line" smooth="yes"/>
      <point x="436" y="471"/>
      <point x="436" y="575"/>
      <point x="438" y="677" type="curve"/>
      <point x="410" y="677" type="line"/>
    </contour>
    <contour>
      <point x="352" y="653" type="line"/>
      <point x="421" y="653" type="line"/>
      <point x="421" y="677" type="line"/>
      <point x="368" y="677" type="line" smooth="yes"/>
      <point x="174" y="677"/>
      <point x="60" y="577"/>
      <point x="60" y="427" type="curve" smooth="yes"/>
      <point x="60" y="268"/>
      <point x="190" y="177"/>
      <point x="352" y="178" type="curve"/>
    </contour>
  </outline>
</glyph>
<glyph name="one.sups" format="1">
  <advance width="339"/>
  <unicode hex="00B9"/>
  <outline>
    <contour>
      <point x="75" y="808" type="line"/>
      <point x="75" y="790" type="line"/>
      <point x="170" y="805" type="line"/>
      <point x="170" y="437" type="line"/>
      <point x="198" y="437" type="line"/>
      <point x="198" y="832" type="line"/>
      <point x="189" y="839" type="line"/>
    </contour>
    <contour>
      <point x="195" y="461" type="line"/>
      <point x="173" y="461" type="line"/>
      <point x="69" y="453" type="line"/>
      <point x="69" y="437" type="line"/>
      <point x="294" y="437" type="line"/>
      <point x="294" y="453" type="line"/>
    </contour>
  </outline>
</glyph>
<glyph name="AE" format="1">
  <advance width="902"/>
  <unicode hex="00C6"/>
  <outline>
    <contour>
      <point x="468" y="280" type="line" smooth="yes"/>
      <point x="468" y="206"/>
      <point x="468" y="102"/>
      <point x="466" y="0" type="curve"/>
      <point x="500" y="0" type="line"/>
      <point x="498" y="102"/>
      <point x="498" y="206"/>
      <point x="498" y="340" type="curve" smooth="yes"/>
      <point x="498" y="347" type="line" smooth="yes"/>
      <point x="498" y="471"/>
      <point x="498" y="575"/>
      <point x="500" y="677" type="curve"/>
      <point x="468" y="677" type="line"/>
    </contour>
    <contour>
      <point x="99" y="27" type="line"/>
      <point x="12" y="20" type="line"/>
      <point x="12" y="0" type="line"/>
      <point x="210" y="0" type="line"/>
      <point x="210" y="20" type="line"/>
      <point x="113" y="27" type="line"/>
    </contour>
    <contour>
      <point x="695" y="332" type="line"/>
      <point x="705" y="234" type="line"/>
      <point x="724" y="234" type="line"/>
      <point x="724" y="450" type="line"/>
      <point x="705" y="450" type="line"/>
      <point x="695" y="352" type="line"/>
    </contour>
    <contour>
      <point x="833" y="153" type="line"/>
      <point x="814" y="0" type="line"/>
      <point x="828" y="22" type="line"/>
      <point x="483" y="22" type="line"/>
      <point x="483" y="0" type="line"/>
      <point x="847" y="0" type="line"/>
      <point x="857" y="153" type="line"/>
    </contour>
    <contour>
      <point x="819" y="524" type="line"/>
      <point x="843" y="524" type="line"/>
      <point x="833" y="677" type="line"/>
      <point x="483" y="677" type="line"/>
      <point x="483" y="655" type="line"/>
      <point x="814" y="655" type="line"/>
      <point x="800" y="677" type="line"/>
    </contour>
    <contour>
      <point x="476" y="27" type="line"/>
      <point x="359" y="20" type="line"/>
      <point x="359" y="0" type="line"/>
      <point x="483" y="0" type="line"/>
      <point x="483" y="27" type="line"/>
    </contour>
    <contour>
      <point x="476" y="650" type="line"/>
      <point x="483" y="650" type="line"/>
      <point x="483" y="677" type="line"/>
      <point x="349" y="677" type="line"/>
      <point x="349" y="657" type="line"/>
    </contour>
    <contour>
      <point x="437" y="677" type="line"/>
      <point x="79" y="0" type="line"/>
      <point x="107" y="0" type="line"/>
      <point x="468" y="677" type="line"/>
    </contour>
    <contour>
      <point x="483" y="265" type="line"/>
      <point x="483" y="285" type="line"/>
      <point x="242" y="285" type="line"/>
      <point x="233" y="265" type="line"/>
    </contour>
    <contour>
      <point x="704" y="353" type="line"/>
      <point x="483" y="353" type="line"/>
      <point x="483" y="331" type="line"/>
      <point x="704" y="331" type="line"/>
    </contour>
  </outline>
</glyph>
<glyph name="Eth" format="1">
  <advance width="709"/>
  <unicode hex="00D0"/>
  <outline>
    <contour>
      <point x="389" y="336" type="line"/>
      <point x="389" y="358" type="line"/>
      <point x="58" y="358" type="line"/>
      <point x="58" y="336" type="line"/>
    </contour>
    <component base="D"/>
  </outline>
</glyph>
<glyph name="multiply" format="1">
  <advance width="530"/>
  <unicode hex="00D7"/>
  <outline>
    <contour>
      <point x="454" y="129" type="line"/>
      <point x="473" y="148" type="line"/>
      <point x="77" y="544" type="line"/>
      <point x="58" y="525" type="line"/>
    </contour>
    <contour>
      <point x="473" y="524" type="line"/>
      <point x="454" y="543" type="line"/>
      <point x="58" y="147" type="line"/>
      <point x="77" y="128" type="line"/>
    </contour>
  </outline>
</glyph>
<glyph name="Oslash" format="1">
  <advance width="706"/>
  <unicode hex="00D8"/>
  <outline>
    <contour>
      <point x="635" y="682" type="line"/>
      <point x="617" y="697" type="line"/>
      <point x="71" y="-1" type="line"/>
      <point x="89" y="-16" type="line"/>
    </contour>
    <component base="O"/>
  </outline>
</glyph>
<glyph name="Thorn" format="1">
  <advance width="593"/>
  <unicode hex="00DE"/>
  <outline>
    <contour>
      <point x="175" y="650" type="line"/>
      <point x="189" y="650" type="line"/>
      <point x="311" y="657" type="line"/>
      <point x="311" y="677" type="line"/>
      <point x="58" y="677" type="line"/>
      <point x="58" y="657" type="line"/>
    </contour>
    <contour>
      <point x="175" y="27" type="line"/>
      <point x="58" y="20" type="line"/>
      <point x="58" y="0" type="line"/>
      <point x="311" y="0" type="line"/>
      <point x="311" y="20" type="line"/>
      <point x="189" y="27" type="line"/>
    </contour>
    <contour>
      <point x="167" y="310" type="line" smooth="yes"/>
      <point x="167" y="206"/>
      <point x="167" y="102"/>
      <point x="165" y="0" type="curve"/>
      <point x="199" y="0" type="line"/>
      <point x="197" y="102"/>
      <point x="197" y="206"/>
      <point x="197" y="310" type="curve" smooth="yes"/>
      <point x="197" y="367" type="line" smooth="yes"/>
      <point x="197" y="471"/>
      <point x="197" y="575"/>
      <point x="199" y="677" type="curve"/>
      <point x="165" y="677" type="line"/>
      <point x="167" y="575"/>
      <point x="167" y="471"/>
      <point x="167" y="367" type="curve" smooth="yes"/>
    </contour>
    <contour>
      <point x="545" y="355" type="curve" smooth="yes"/>
      <point x="545" y="464"/>
      <point x="477" y="543"/>
      <point x="303" y="543" type="curve" smooth="yes"/>
      <point x="182" y="543" type="line"/>
      <point x="182" y="521" type="line"/>
      <point x="303" y="521" type="line" smooth="yes"/>
      <point x="453" y="521"/>
      <point x="516" y="461"/>
      <point x="516" y="359" type="curve" smooth="yes"/>
      <point x="516" y="257"/>
      <point x="453" y="197"/>
      <point x="303" y="197" type="curve" smooth="yes"/>
      <point x="182" y="197" type="line"/>
      <point x="182" y="175" type="line"/>
      <point x="303" y="175" type="line" smooth="yes"/>
      <point x="476" y="175"/>
      <point x="545" y="254"/>
    </contour>
  </outline>
</glyph>
<glyph name="germandbls" format="1">
  <advance width="570"/>
  <unicode hex="00DF"/>
  <outline>
    <contour>
      <point x="147" y="26" type="line"/>
      <point x="143" y="26" type="line"/>
      <point x="33" y="20" type="line"/>
      <point x="33" y="0" type="line"/>
      <point x="147" y="0" type="line"/>
    </contour>
    <contour>
      <point x="135" y="210" type="line" smooth="yes"/>
      <point x="135" y="140"/>
      <point x="133" y="70"/>
      <point x="131" y="0" type="curve"/>
      <point x="167" y="0" type="line"/>
      <point x="165" y="70"/>
      <point x="163" y="140"/>
      <point x="163" y="210" type="curve" smooth="yes"/>
      <point x="163" y="452" type="line" smooth="yes"/>
      <point x="163" y="596"/>
      <point x="184" y="648"/>
      <point x="225" y="691" type="curve" smooth="yes"/>
      <point x="258" y="726"/>
      <point x="303" y="738"/>
      <point x="351" y="738" type="curve" smooth="yes"/>
      <point x="431" y="738"/>
      <point x="457" y="689"/>
      <point x="457" y="635" type="curve" smooth="yes"/>
      <point x="457" y="587"/>
      <point x="430" y="550"/>
      <point x="380" y="503" type="curve" smooth="yes"/>
      <point x="337" y="462"/>
      <point x="296" y="417"/>
      <point x="296" y="359" type="curve" smooth="yes"/>
      <point x="296" y="299"/>
      <point x="338" y="259"/>
      <point x="392" y="231" type="curve" smooth="yes"/>
      <point x="473" y="189"/>
      <point x="495" y="148"/>
      <point x="495" y="106" type="curve" smooth="yes"/>
      <point x="495" y="45"/>
      <point x="459" y="5"/>
      <point x="385" y="5" type="curve" smooth="yes"/>
      <point x="337" y="5"/>
      <point x="300" y="17"/>
      <point x="268" y="34" type="curve"/>
      <point x="286" y="12" type="line"/>
      <point x="271" y="114" type="line"/>
      <point x="251" y="114" type="line"/>
      <point x="254" y="13" type="line"/>
      <point x="296" y="-5"/>
      <point x="337" y="-15"/>
      <point x="380" y="-15" type="curve" smooth="yes"/>
      <point x="473" y="-15"/>
      <point x="523" y="34"/>
      <point x="523" y="108" type="curve" smooth="yes"/>
      <point x="523" y="158"/>
      <point x="498" y="207"/>
      <point x="407" y="258" type="curve" smooth="yes"/>
      <point x="351" y="289"/>
      <point x="324" y="318"/>
      <point x="324" y="363" type="curve" smooth="yes"/>
      <point x="324" y="410"/>
      <point x="352" y="447"/>
      <point x="396" y="491" type="curve" smooth="yes"/>
      <point x="449" y="544"/>
      <point x="485" y="580"/>
      <point x="485" y="636" type="curve" smooth="yes"/>
      <point x="485" y="712"/>
      <point x="438" y="758"/>
      <point x="355" y="758" type="curve" smooth="yes"/>
      <point x="304" y="758"/>
      <point x="255" y="749"/>
      <point x="206" y="702" type="curve" smooth="yes"/>
      <point x="149" y="647"/>
      <point x="135" y="571"/>
      <point x="135" y="461" type="curve" smooth="yes"/>
    </contour>
  </outline>
</glyph>
<glyph name="ae" format="1">
  <advance width="782"/>
  <unicode hex="00E6"/>
  <outline>
    <contour>
      <point x="131" y="126" type="curve" smooth="yes"/>
      <point x="131" y="155"/>
      <point x="141" y="194"/>
      <point x="231" y="229" type="curve" smooth="yes"/>
      <point x="261" y="241"/>
      <point x="318" y="260"/>
      <point x="363" y="269" type="curve"/>
      <point x="363" y="305" type="line"/>
      <point x="313" y="296"/>
      <point x="252" y="278"/>
      <point x="210" y="263" type="curve" smooth="yes"/>
      <point x="76" y="214"/>
      <point x="46" y="168"/>
      <point x="46" y="112" type="curve" smooth="yes"/>
      <point x="46" y="29"/>
      <point x="107" y="-15"/>
      <point x="180" y="-15" type="curve" smooth="yes"/>
      <point x="241" y="-15"/>
      <point x="273" y="6"/>
      <point x="336" y="63" type="curve" smooth="yes"/>
      <point x="370" y="94" type="line"/>
      <point x="351" y="119" type="line"/>
      <point x="331" y="104" type="line" smooth="yes"/>
      <point x="275" y="62"/>
      <point x="253" y="50"/>
      <point x="212" y="50" type="curve" smooth="yes"/>
      <point x="188" y="50"/>
      <point x="167" y="57"/>
      <point x="151" y="73" type="curve" smooth="yes"/>
      <point x="139" y="85"/>
      <point x="131" y="100"/>
    </contour>
    <contour>
      <point x="542" y="-15" type="curve" smooth="yes"/>
      <point x="633" y="-15"/>
      <point x="697" y="30"/>
      <point x="733" y="101" type="curve"/>
      <point x="710" y="119" type="line"/>
      <point x="674" y="77"/>
      <point x="634" y="48"/>
      <point x="570" y="48" type="curve" smooth="yes"/>
      <point x="470" y="48"/>
      <point x="406" y="121"/>
      <point x="406" y="244" type="curve" smooth="yes"/>
      <point x="406" y="391"/>
      <point x="480" y="445"/>
      <point x="543" y="445" type="curve" smooth="yes"/>
      <point x="607" y="445"/>
      <point x="655" y="393"/>
      <point x="655" y="336" type="curve" smooth="yes"/>
      <point x="655" y="307"/>
      <point x="643" y="285"/>
      <point x="596" y="285" type="curve" smooth="yes"/>
      <point x="363" y="285" type="line"/>
      <point x="363" y="243" type="line"/>
      <point x="727" y="243" type="line"/>
      <point x="731" y="256"/>
      <point x="734" y="276"/>
      <point x="734" y="298" type="curve" smooth="yes"/>
      <point x="734" y="420"/>
      <point x="652" y="490"/>
      <point x="548" y="490" type="curve" smooth="yes"/>
      <point x="476" y="490"/>
      <point x="412" y="450"/>
      <point x="369" y="387" type="curve"/>
      <point x="358" y="379" type="line"/>
      <point x="335" y="339"/>
      <point x="321" y="290"/>
      <point x="321" y="236" type="curve" smooth="yes"/>
      <point x="321" y="79"/>
      <point x="408" y="-15"/>
    </contour>
    <contour>
      <point x="399" y="243" type="line"/>
      <point x="399" y="335" type="line" smooth="yes"/>
      <point x="399" y="446"/>
      <point x="336" y="490"/>
      <point x="252" y="490" type="curve" smooth="yes"/>
      <point x="152" y="490"/>
      <point x="78" y="441"/>
      <point x="59" y="365" type="curve"/>
      <point x="61" y="340"/>
      <point x="77" y="323"/>
      <point x="104" y="323" type="curve" smooth="yes"/>
      <point x="131" y="323"/>
      <point x="148" y="339"/>
      <point x="157" y="368" type="curve" smooth="yes"/>
      <point x="183" y="456" type="line"/>
      <point x="141" y="427" type="line"/>
      <point x="178" y="442"/>
      <point x="209" y="445"/>
      <point x="234" y="445" type="curve" smooth="yes"/>
      <point x="295" y="445"/>
      <point x="325" y="421"/>
      <point x="325" y="323" type="curve" smooth="yes"/>
      <point x="325" y="243" type="line"/>
    </contour>
  </outline>
</glyph>
<glyph name="eth" format="1">
  <advance width="541"/>
  <unicode hex="00F0"/>
  <outline>
    <contour>
      <point x="162" y="550" type="line"/>
      <point x="489" y="719" type="line"/>
      <point x="480" y="738" type="line"/>
      <point x="153" y="569" type="line"/>
    </contour>
    <contour>
      <point x="266" y="446" type="curve" smooth="yes"/>
      <point x="362" y="446"/>
      <point x="449" y="374"/>
      <point x="449" y="229" type="curve" smooth="yes"/>
      <point x="449" y="104"/>
      <point x="377" y="5"/>
      <point x="266" y="5" type="curve" smooth="yes"/>
      <point x="164" y="5"/>
      <point x="84" y="94"/>
      <point x="84" y="227" type="curve" smooth="yes"/>
      <point x="84" y="369"/>
      <point x="163" y="446"/>
    </contour>
    <contour>
      <point x="266" y="-15" type="curve" smooth="yes"/>
      <point x="392" y="-15"/>
      <point x="480" y="83"/>
      <point x="480" y="261" type="curve" smooth="yes"/>
      <point x="480" y="471"/>
      <point x="393" y="643"/>
      <point x="158" y="758" type="curve"/>
      <point x="147" y="740" type="line"/>
      <point x="373" y="625"/>
      <point x="438" y="480"/>
      <point x="453" y="301" type="curve"/>
      <point x="461" y="303" type="line"/>
      <point x="429" y="405"/>
      <point x="357" y="466"/>
      <point x="266" y="466" type="curve" smooth="yes"/>
      <point x="144" y="466"/>
      <point x="52" y="375"/>
      <point x="52" y="227" type="curve" smooth="yes"/>
      <point x="52" y="79"/>
      <point x="141" y="-15"/>
    </contour>
  </outline>
</glyph>
<glyph name="divide" format="1">
  <advance width="530"/>
  <unicode hex="00F7"/>
  <outline>
    <contour>
      <point x="265" y="115" type="curve" smooth="yes"/>
      <point x="284" y="115"/>
      <point x="296" y="130"/>
      <point x="296" y="145" type="curve" smooth="yes"/>
      <point x="296" y="162"/>
      <point x="284" y="175"/>
      <point x="265" y="175" type="curve" smooth="yes"/>
      <point x="246" y="175"/>
      <point x="234" y="162"/>
      <point x="234" y="145" type="curve" smooth="yes"/>
      <point x="234" y="130"/>
      <point x="246" y="115"/>
    </contour>
    <contour>
      <point x="265" y="492" type="curve" smooth="yes"/>
      <point x="284" y="492"/>
      <point x="296" y="507"/>
      <point x="296" y="522" type="curve" smooth="yes"/>
      <point x="296" y="539"/>
      <point x="284" y="552"/>
      <point x="265" y="552" type="curve" smooth="yes"/>
      <point x="246" y="552"/>
      <point x="234" y="539"/>
      <point x="234" y="522" type="curve" smooth="yes"/>
      <point x="234" y="507"/>
      <point x="246" y="492"/>
    </contour>
    <component base="minus"/>
  </outline>
</glyph>
<glyph name="oslash" format="1">
  <advance width="538"/>
  <unicode hex="00F8"/>
  <outline>
    <contour>
      <point x="478" y="480" type="line"/>
      <point x="461" y="494" type="line"/>
      <point x="56" y="-10" type="line"/>
      <point x="73" y="-24" type="line"/>
    </contour>
    <component base="o"/>
  </outline>
</glyph>
<glyph name="thorn" format="1">
  <advance width="580"/>
  <unicode hex="00FE"/>
  <outline>
    <contour>
      <point x="496" y="242" type="curve" smooth="yes"/>
      <point x="496" y="78"/>
      <point x="417" y="10"/>
      <point x="328" y="10" type="curve" smooth="yes"/>
      <point x="266" y="10"/>
      <point x="219" y="35"/>
      <point x="163" y="93" type="curve"/>
      <point x="155" y="80" type="line"/>
      <point x="207" y="10"/>
      <point x="272" y="-15"/>
      <point x="329" y="-15" type="curve" smooth="yes"/>
      <point x="450" y="-15"/>
      <point x="528" y="86"/>
      <point x="528" y="242" type="curve" smooth="yes"/>
      <point x="528" y="383"/>
      <point x="452" y="484"/>
      <point x="334" y="484" type="curve" smooth="yes"/>
      <point x="276" y="484"/>
      <point x="205" y="458"/>
      <point x="154" y="382" type="curve"/>
      <point x="163" y="367" type="line"/>
      <point x="216" y="434"/>
      <point x="269" y="459"/>
      <point x="328" y="459" type="curve" smooth="yes"/>
      <point x="425" y="459"/>
      <point x="496" y="385"/>
    </contour>
    <contour>
      <point x="157" y="-219" type="line"/>
      <point x="148" y="-219" type="line"/>
      <point x="48" y="-225" type="line"/>
      <point x="48" y="-245" type="line"/>
      <point x="271" y="-245" type="line"/>
      <point x="271" y="-225" type="line"/>
    </contour>
    <contour>
      <point x="168" y="383" type="line"/>
      <point x="168" y="392" type="line"/>
      <point x="168" y="588" type="line"/>
      <point x="170" y="730" type="line"/>
      <point x="154" y="738" type="line"/>
      <point x="49" y="726" type="line"/>
      <point x="49" y="706" type="line"/>
      <point x="140" y="706" type="line"/>
      <point x="140" y="-35" type="line" smooth="yes"/>
      <point x="140" y="-97"/>
      <point x="139" y="-200"/>
      <point x="137" y="-245" type="curve"/>
      <point x="171" y="-245" type="line"/>
      <point x="169" y="-200"/>
      <point x="168" y="-97"/>
      <point x="168" y="-35" type="curve" smooth="yes"/>
      <point x="168" y="64" type="line"/>
      <point x="168" y="72" type="line"/>
    </contour>
  </outline>
</glyph>
<glyph name="aogonek" format="1">
  <advance width="508"/>
  <unicode hex="0105"/>
  <outline>
    <contour>
      <point x="405" y="102" type="curve" smooth="yes"/>
      <point x="405" y="317" type="line" smooth="yes"/>
      <point x="405" y="443"/>
      <point x="355" y="490"/>
      <point x="252" y="490" type="curve" smooth="yes"/>
      <point x="152" y="490"/>
      <point x="78" y="441"/>
      <point x="59" y="365" type="curve"/>
      <point x="61" y="340"/>
      <point x="77" y="323"/>
      <point x="104" y="323" type="curve" smooth="yes"/>
      <point x="131" y="323"/>
      <point x="148" y="339"/>
      <point x="157" y="368" type="curve" smooth="yes"/>
      <point x="183" y="456" type="line"/>
      <point x="141" y="427" type="line"/>
      <point x="178" y="442"/>
      <point x="208" y="445"/>
      <point x="231" y="445" type="curve" smooth="yes"/>
      <point x="297" y="445"/>
      <point x="325" y="421"/>
      <point x="325" y="323" type="curve" smooth="yes"/>
      <point x="325" y="92" type="line" smooth="yes"/>
      <point x="325" y="28"/>
      <point x="358" y="-11"/>
      <point x="427" y="-11" type="curve"/>
      <point x="429" y="-4" type="line"/>
      <point x="377" y="-30"/>
      <point x="329" y="-78"/>
      <point x="329" y="-132" type="curve" smooth="yes"/>
      <point x="329" y="-187"/>
      <point x="366" y="-220"/>
      <point x="419" y="-220" type="curve" smooth="yes"/>
      <point x="462" y="-220"/>
      <point x="498" y="-206"/>
      <point x="522" y="-172" type="curve"/>
      <point x="510" y="-150" type="line"/>
      <point x="490" y="-162"/>
      <point x="471" y="-165"/>
      <point x="458" y="-165" type="curve" smooth="yes"/>
      <point x="419" y="-165"/>
      <point x="390" y="-140"/>
      <point x="390" y="-97" type="curve" smooth="yes"/>
      <point x="390" y="-63"/>
      <point x="422" y="-31"/>
      <point x="454" y="-5" type="curve" smooth="yes"/>
      <point x="475" y="12"/>
      <point x="485" y="20"/>
      <point x="501" y="39" type="curve"/>
      <point x="481" y="63" type="line"/>
      <point x="476" y="58" type="line" smooth="yes"/>
      <point x="468" y="50"/>
      <point x="455" y="41"/>
      <point x="439" y="41" type="curve" smooth="yes"/>
      <point x="417" y="41"/>
      <point x="405" y="60"/>
    </contour>
    <contour>
      <point x="131" y="126" type="curve" smooth="yes"/>
      <point x="131" y="155"/>
      <point x="141" y="194"/>
      <point x="231" y="229" type="curve" smooth="yes"/>
      <point x="261" y="241"/>
      <point x="320" y="260"/>
      <point x="365" y="269" type="curve"/>
      <point x="365" y="305" type="line"/>
      <point x="315" y="296"/>
      <point x="252" y="278"/>
      <point x="210" y="263" type="curve" smooth="yes"/>
      <point x="76" y="214"/>
      <point x="46" y="168"/>
      <point x="46" y="112" type="curve" smooth="yes"/>
      <point x="46" y="29"/>
      <point x="107" y="-15"/>
      <point x="180" y="-15" type="curve" smooth="yes"/>
      <point x="241" y="-15"/>
      <point x="275" y="15"/>
      <point x="335" y="75" type="curve" smooth="yes"/>
      <point x="364" y="104" type="line"/>
      <point x="350" y="125" type="line"/>
      <point x="330" y="110" type="line" smooth="yes"/>
      <point x="267" y="65"/>
      <point x="247" y="50"/>
      <point x="212" y="50" type="curve" smooth="yes"/>
      <point x="188" y="50"/>
      <point x="167" y="57"/>
      <point x="151" y="73" type="curve" smooth="yes"/>
      <point x="139" y="85"/>
      <point x="131" y="100"/>
    </contour>
  </outline>
</glyph>
<glyph name="dcroat" format="1">
  <advance width="575"/>
  <unicode hex="0111"/>
  <outline>
    <contour>
      <point x="213" y="585" type="line"/>
      <point x="533" y="585" type="line"/>
      <point x="533" y="609" type="line"/>
      <point x="213" y="609" type="line"/>
    </contour>
    <contour>
      <point x="84" y="227" type="curve" smooth="yes"/>
      <point x="84" y="378"/>
      <point x="164" y="449"/>
      <point x="264" y="449" type="curve" smooth="yes"/>
      <point x="325" y="449"/>
      <point x="371" y="420"/>
      <point x="417" y="364" type="curve"/>
      <point x="425" y="377" type="line"/>
      <point x="378" y="445"/>
      <point x="317" y="474"/>
      <point x="264" y="474" type="curve" smooth="yes"/>
      <point x="144" y="474"/>
      <point x="52" y="381"/>
      <point x="52" y="227" type="curve" smooth="yes"/>
      <point x="52" y="86"/>
      <point x="133" y="-15"/>
      <point x="249" y="-15" type="curve" smooth="yes"/>
      <point x="313" y="-15"/>
      <point x="376" y="12"/>
      <point x="426" y="87" type="curve"/>
      <point x="417" y="102" type="line"/>
      <point x="366" y="36"/>
      <point x="316" y="10"/>
      <point x="252" y="10" type="curve" smooth="yes"/>
      <point x="158" y="10"/>
      <point x="84" y="85"/>
    </contour>
    <contour>
      <point x="426" y="26" type="line"/>
      <point x="440" y="0" type="line"/>
      <point x="440" y="592" type="line"/>
      <point x="442" y="730" type="line"/>
      <point x="428" y="738" type="line"/>
      <point x="321" y="726" type="line"/>
      <point x="321" y="706" type="line"/>
      <point x="412" y="706" type="line"/>
      <point x="412" y="383" type="line"/>
      <point x="412" y="378" type="line"/>
      <point x="412" y="85" type="line"/>
      <point x="409" y="-4" type="line"/>
      <point x="546" y="0" type="line"/>
      <point x="546" y="20" type="line"/>
    </contour>
  </outline>
</glyph>
<glyph name="eogonek" format="1">
  <advance width="491"/>
  <unicode hex="0119"/>
  <outline>
    <contour>
      <point x="349" y="-215" type="curve" smooth="yes"/>
      <point x="386" y="-215"/>
      <point x="415" y="-199"/>
      <point x="432" y="-175" type="curve"/>
      <point x="422" y="-166" type="line"/>
      <point x="399" y="-185"/>
      <point x="381" y="-191"/>
      <point x="357" y="-191" type="curve" smooth="yes"/>
      <point x="319" y="-191"/>
      <point x="292" y="-166"/>
      <point x="292" y="-116" type="curve" smooth="yes"/>
      <point x="292" y="-75"/>
      <point x="327" y="-26"/>
      <point x="369" y="3" type="curve" smooth="yes"/>
      <point x="395" y="21"/>
      <point x="421" y="39"/>
      <point x="441" y="64" type="curve"/>
      <point x="430" y="75" type="line"/>
      <point x="390" y="33"/>
      <point x="337" y="11"/>
      <point x="273" y="11" type="curve" smooth="yes"/>
      <point x="178" y="11"/>
      <point x="84" y="83"/>
      <point x="84" y="245" type="curve" smooth="yes"/>
      <point x="84" y="364"/>
      <point x="158" y="464"/>
      <point x="265" y="464" type="curve" smooth="yes"/>
      <point x="363" y="464"/>
      <point x="415" y="386"/>
      <point x="415" y="303" type="curve" smooth="yes"/>
      <point x="415" y="274"/>
      <point x="409" y="264"/>
      <point x="395" y="264" type="curve" smooth="yes"/>
      <point x="70" y="264" type="line"/>
      <point x="70" y="243" type="line"/>
      <point x="439" y="243" type="line"/>
      <point x="443" y="258"/>
      <point x="445" y="276"/>
      <point x="445" y="300" type="curve" smooth="yes"/>
      <point x="445" y="398"/>
      <point x="381" y="484"/>
      <point x="265" y="484" type="curve" smooth="yes"/>
      <point x="154" y="484"/>
      <point x="52" y="389"/>
      <point x="52" y="237" type="curve" smooth="yes"/>
      <point x="52" y="62"/>
      <point x="163" y="-15"/>
      <point x="273" y="-15" type="curve" smooth="yes"/>
      <point x="297" y="-15"/>
      <point x="323" y="-11"/>
      <point x="345" y="-3" type="curve"/>
      <point x="345" y="3" type="line"/>
      <point x="310" y="-27"/>
      <point x="264" y="-72"/>
      <point x="264" y="-126" type="curve" smooth="yes"/>
      <point x="264" y="-184"/>
      <point x="303" y="-215"/>
    </contour>
  </outline>
</glyph>
<glyph name="dotlessi" format="1">
  <advance width="303"/>
  <unicode hex="0131"/>
  <outline>
    <contour>
      <point x="171" y="0" type="line"/>
      <point x="169" y="45"/>
      <point x="168" y="148"/>
      <point x="168" y="210" type="curve" smooth="yes"/>
      <point x="168" y="352" type="line"/>
      <point x="170" y="468" type="line"/>
      <point x="160" y="474" type="line"/>
      <point x="44" y="462" type="line"/>
      <point x="44" y="442" type="line"/>
      <point x="137" y="442" type="line"/>
      <point x="139" y="391"/>
      <point x="140" y="325"/>
      <point x="140" y="255" type="curve" smooth="yes"/>
      <point x="140" y="210" type="line" smooth="yes"/>
      <point x="140" y="148"/>
      <point x="139" y="45"/>
      <point x="137" y="0" type="curve"/>
    </contour>
    <contour>
      <point x="157" y="26" type="line"/>
      <point x="148" y="26" type="line"/>
      <point x="48" y="20" type="line"/>
      <point x="48" y="0" type="line"/>
      <point x="251" y="0" type="line"/>
      <point x="251" y="20" type="line"/>
    </contour>
  </outline>
</glyph>
<glyph name="Lslash" format="1">
  <advance width="597"/>
  <unicode hex="0141"/>
  <outline>
    <contour>
      <point x="396" y="457" type="line"/>
      <point x="185" y="336" type="line"/>
      <point x="185" y="280" type="line"/>
      <point x="396" y="401" type="line"/>
    </contour>
    <contour>
      <point x="185" y="341" type="line"/>
      <point x="45" y="261" type="line"/>
      <point x="45" y="206" type="line"/>
      <point x="185" y="285" type="line"/>
    </contour>
    <component base="L"/>
  </outline>
</glyph>
<glyph name="lslash" format="1">
  <advance width="296"/>
  <unicode hex="0142"/>
  <outline>
    <contour>
      <point x="147" y="414" type="line"/>
      <point x="25" y="351" type="line"/>
      <point x="25" y="297" type="line"/>
      <point x="147" y="360" type="line"/>
    </contour>
    <contour>
      <point x="271" y="474" type="line"/>
      <point x="147" y="409" type="line"/>
      <point x="147" y="355" type="line"/>
      <point x="271" y="419" type="line"/>
    </contour>
    <component base="l"/>
  </outline>
</glyph>
<glyph name="oe" format="1">
  <advance width="869"/>
  <unicode hex="0153"/>
  <outline>
    <contour>
      <point x="274" y="445" type="curve" smooth="yes"/>
      <point x="362" y="445"/>
      <point x="412" y="370"/>
      <point x="412" y="236" type="curve" smooth="yes"/>
      <point x="412" y="102"/>
      <point x="362" y="30"/>
      <point x="274" y="30" type="curve" smooth="yes"/>
      <point x="186" y="30"/>
      <point x="136" y="102"/>
      <point x="136" y="236" type="curve" smooth="yes"/>
      <point x="136" y="370"/>
      <point x="186" y="445"/>
    </contour>
    <contour>
      <point x="475" y="126" type="curve"/>
      <point x="432" y="126" type="line"/>
      <point x="460" y="38"/>
      <point x="530" y="-15"/>
      <point x="629" y="-15" type="curve" smooth="yes"/>
      <point x="717" y="-15"/>
      <point x="782" y="26"/>
      <point x="820" y="101" type="curve"/>
      <point x="797" y="119" type="line"/>
      <point x="767" y="80"/>
      <point x="721" y="48"/>
      <point x="657" y="48" type="curve" smooth="yes"/>
      <point x="557" y="48"/>
      <point x="493" y="121"/>
      <point x="493" y="244" type="curve" smooth="yes"/>
      <point x="493" y="391"/>
      <point x="567" y="445"/>
      <point x="630" y="445" type="curve" smooth="yes"/>
      <point x="696" y="445"/>
      <point x="742" y="393"/>
      <point x="742" y="336" type="curve" smooth="yes"/>
      <point x="742" y="305"/>
      <point x="729" y="285"/>
      <point x="683" y="285" type="curve" smooth="yes"/>
      <point x="447" y="285" type="line"/>
      <point x="447" y="243" type="line"/>
      <point x="814" y="243" type="line"/>
      <point x="818" y="256"/>
      <point x="821" y="276"/>
      <point x="821" y="298" type="curve" smooth="yes"/>
      <point x="821" y="420"/>
      <point x="739" y="490"/>
      <point x="635" y="490" type="curve" smooth="yes"/>
      <point x="553" y="490"/>
      <point x="469" y="435"/>
      <point x="438" y="352" type="curve"/>
      <point x="475" y="352" type="line"/>
      <point x="443" y="439"/>
      <point x="353" y="490"/>
      <point x="274" y="490" type="curve" smooth="yes"/>
      <point x="160" y="490"/>
      <point x="46" y="402"/>
      <point x="46" y="236" type="curve" smooth="yes"/>
      <point x="46" y="70"/>
      <point x="160" y="-15"/>
      <point x="274" y="-15" type="curve" smooth="yes"/>
      <point x="353" y="-15"/>
      <point x="441" y="35"/>
    </contour>
  </outline>
</glyph>
<glyph name="Uogonek" format="1">
  <advance width="737"/>
  <unicode hex="0172"/>
  <outline>
    <contour>
      <point x="594" y="650" type="line"/>
      <point x="689" y="657" type="line"/>
      <point x="689" y="677" type="line"/>
      <point x="453" y="677" type="line"/>
      <point x="453" y="657" type="line"/>
      <point x="580" y="650" type="line"/>
    </contour>
    <contour>
      <point x="157" y="650" type="line"/>
      <point x="171" y="650" type="line"/>
      <point x="288" y="657" type="line"/>
      <point x="288" y="677" type="line"/>
      <point x="50" y="677" type="line"/>
      <point x="50" y="657" type="line"/>
    </contour>
    <contour>
      <point x="410" y="-118" type="curve" smooth="yes"/>
      <point x="410" y="-77"/>
      <point x="438" y="-23"/>
      <point x="501" y="17" type="curve" smooth="yes"/>
      <point x="566" y="57"/>
      <point x="599" y="134"/>
      <point x="599" y="246" type="curve" smooth="yes"/>
      <point x="599" y="677" type="line"/>
      <point x="575" y="677" type="line"/>
      <point x="575" y="272" type="line" smooth="yes"/>
      <point x="575" y="85"/>
      <point x="515" y="11"/>
      <point x="370" y="11" type="curve" smooth="yes"/>
      <point x="254" y="11"/>
      <point x="178" y="78"/>
      <point x="178" y="254" type="curve" smooth="yes"/>
      <point x="178" y="361" type="line" smooth="yes"/>
      <point x="178" y="469"/>
      <point x="178" y="573"/>
      <point x="180" y="677" type="curve"/>
      <point x="146" y="677" type="line"/>
      <point x="148" y="573"/>
      <point x="148" y="467"/>
      <point x="148" y="361" type="curve" smooth="yes"/>
      <point x="148" y="247" type="line" smooth="yes"/>
      <point x="148" y="59"/>
      <point x="234" y="-15"/>
      <point x="370" y="-15" type="curve" smooth="yes"/>
      <point x="409" y="-15"/>
      <point x="442" y="-9"/>
      <point x="471" y="2" type="curve"/>
      <point x="466" y="7" type="line"/>
      <point x="416" y="-29"/>
      <point x="382" y="-77"/>
      <point x="382" y="-129" type="curve" smooth="yes"/>
      <point x="382" y="-183"/>
      <point x="423" y="-219"/>
      <point x="478" y="-219" type="curve" smooth="yes"/>
      <point x="516" y="-219"/>
      <point x="546" y="-203"/>
      <point x="563" y="-179" type="curve"/>
      <point x="553" y="-169" type="line"/>
      <point x="529" y="-189"/>
      <point x="511" y="-195"/>
      <point x="487" y="-195" type="curve" smooth="yes"/>
      <point x="442" y="-195"/>
      <point x="410" y="-169"/>
    </contour>
  </outline>
</glyph>
<glyph name="uogonek" format="1">
  <advance width="604"/>
  <unicode hex="0173"/>
  <outline>
    <contour>
      <point x="399" y="-129" type="curve" smooth="yes"/>
      <point x="399" y="-188"/>
      <point x="438" y="-219"/>
      <point x="485" y="-219" type="curve" smooth="yes"/>
      <point x="523" y="-219"/>
      <point x="553" y="-203"/>
      <point x="570" y="-179" type="curve"/>
      <point x="560" y="-169" type="line"/>
      <point x="536" y="-189"/>
      <point x="518" y="-195"/>
      <point x="494" y="-195" type="curve" smooth="yes"/>
      <point x="455" y="-195"/>
      <point x="427" y="-169"/>
      <point x="427" y="-118" type="curve" smooth="yes"/>
      <point x="427" y="-79"/>
      <point x="453" y="-38"/>
      <point x="512" y="4" type="curve"/>
      <point x="493" y="4" type="line"/>
      <point x="438" y="-33"/>
      <point x="399" y="-76"/>
    </contour>
    <component base="u"/>
  </outline>
</glyph>
<glyph name="florin" format="1">
  <advance width="497"/>
  <unicode hex="0192"/>
  <outline>
    <contour>
      <point x="102" y="345" type="line"/>
      <point x="424" y="345" type="line"/>
      <point x="424" y="395" type="line"/>
      <point x="102" y="395" type="line"/>
    </contour>
    <contour>
      <point x="294" y="349" type="line" smooth="yes"/>
      <point x="304" y="470"/>
      <point x="305" y="530"/>
      <point x="333" y="577" type="curve" smooth="yes"/>
      <point x="346" y="598"/>
      <point x="365" y="616"/>
      <point x="396" y="628" type="curve"/>
      <point x="363" y="628" type="line"/>
      <point x="396" y="595" type="line" smooth="yes"/>
      <point x="420" y="571"/>
      <point x="442" y="563"/>
      <point x="465" y="563" type="curve" smooth="yes"/>
      <point x="498" y="563"/>
      <point x="517" y="581"/>
      <point x="522" y="607" type="curve"/>
      <point x="512" y="637"/>
      <point x="474" y="660"/>
      <point x="420" y="660" type="curve" smooth="yes"/>
      <point x="378" y="660"/>
      <point x="332" y="646"/>
      <point x="293" y="605" type="curve" smooth="yes"/>
      <point x="247" y="555"/>
      <point x="227" y="483"/>
      <point x="216" y="354" type="curve" smooth="yes"/>
      <point x="204" y="217" type="line" smooth="yes"/>
      <point x="193" y="96"/>
      <point x="193" y="30"/>
      <point x="165" y="-17" type="curve" smooth="yes"/>
      <point x="152" y="-38"/>
      <point x="133" y="-56"/>
      <point x="102" y="-68" type="curve"/>
      <point x="136" y="-68" type="line"/>
      <point x="102" y="-35" type="line" smooth="yes"/>
      <point x="78" y="-11"/>
      <point x="56" y="-3"/>
      <point x="32" y="-3" type="curve" smooth="yes"/>
      <point x="-1" y="-3"/>
      <point x="-20" y="-21"/>
      <point x="-25" y="-47" type="curve"/>
      <point x="-15" y="-77"/>
      <point x="24" y="-100"/>
      <point x="78" y="-100" type="curve" smooth="yes"/>
      <point x="120" y="-100"/>
      <point x="166" y="-86"/>
      <point x="204" y="-45" type="curve" smooth="yes"/>
      <point x="254" y="9"/>
      <point x="270" y="86"/>
      <point x="284" y="233" type="curve" smooth="yes"/>
    </contour>
  </outline>
</glyph>
<glyph name="Uhorn" format="1">
	<unicode hex="01AF"/>
	<advance width="737"/>
	<outline>
		<contour>
			<point x="178" y="256" type="curve" smooth="yes"/>
			<point x="178" y="361" type="line" smooth="yes"/>
			<point x="178" y="469"/>
			<point x="178" y="573"/>
			<point x="180" y="677" type="curve"/>
			<point x="146" y="677" type="line"/>
			<point x="148" y="573"/>
			<point x="148" y="467"/>
			<point x="148" y="361" type="curve" smooth="yes"/>
			<point x="148" y="249" type="line" smooth="yes"/>
			<point x="148" y="61"/>
			<point x="234" y="-13"/>
			<point x="370" y="-13" type="curve" smooth="yes"/>
			<point x="528" y="-13"/>
			<point x="599" y="82"/>
			<point x="599" y="248" type="curve" smooth="yes"/>
			<point x="599" y="677" type="line"/>
			<point x="575" y="677" type="line"/>
			<point x="575" y="274" type="line" smooth="yes"/>
			<point x="575" y="87"/>
			<point x="515" y="13"/>
			<point x="370" y="13" type="curve" smooth="yes"/>
			<point x="254" y="13"/>
			<point x="178" y="80"/>
		</contour>
		<contour>
			<point x="157" y="650" type="line"/>
			<point x="171" y="650" type="line"/>
			<point x="288" y="657" type="line"/>
			<point x="288" y="677" type="line"/>
			<point x="50" y="677" type="line"/>
			<point x="50" y="657" type="line"/>
		</contour>
		<contour>
			<point x="584" y="650" type="line"/>
			<point x="584" y="677" type="line"/>
			<point x="453" y="677" type="line"/>
			<point x="453" y="657" type="line"/>
			<point x="580" y="650" type="line"/>
		</contour>
		<contour>
			<point x="592" y="602" type="line"/>
			<point x="696" y="612"/>
			<point x="725" y="683"/>
			<point x="725" y="740" type="curve" smooth="yes"/>
			<point x="725" y="771"/>
			<point x="716" y="792"/>
			<point x="709" y="803" type="curve"/>
			<point x="707" y="804"/>
			<point x="703" y="805"/>
			<point x="698" y="805" type="curve" smooth="yes"/>
			<point x="687" y="805"/>
			<point x="678" y="798"/>
			<point x="678" y="787" type="curve" smooth="yes"/>
			<point x="678" y="772"/>
			<point x="695" y="758"/>
			<point x="695" y="720" type="curve" smooth="yes"/>
			<point x="695" y="677"/>
			<point x="671" y="627"/>
			<point x="589" y="619" type="curve"/>
		</contour>
		<contour>
			<point name="aboveUC" x="371" y="682" type="move"/>
		</contour>
		<contour>
			<point name="belowLC" x="378" y="-22" type="move"/>
		</contour>
	</outline>
</glyph>
<glyph name="uhorn" format="1">
	<unicode hex="01B0"/>
	<advance width="604"/>
	<outline>
		<component base="u"/>
		<component base="horncmb" xOffset="471"/>
		<contour>
			<point name="aboveLC" x="292" y="500" type="move"/>
		</contour>
		<contour>
			<point name="belowLC" x="303" y="-22" type="move"/>
		</contour>
	</outline>
</glyph>
<glyph name="j.sups" format="1">
  <advance width="180"/>
  <unicode hex="02B2"/>
  <outline>
    <contour>
      <point x="96" y="854" type="curve" smooth="yes"/>
      <point x="110" y="854"/>
      <point x="122" y="865"/>
      <point x="122" y="881" type="curve" smooth="yes"/>
      <point x="122" y="898"/>
      <point x="110" y="908"/>
      <point x="96" y="908" type="curve" smooth="yes"/>
      <point x="82" y="908"/>
      <point x="70" y="898"/>
      <point x="70" y="881" type="curve" smooth="yes"/>
      <point x="70" y="865"/>
      <point x="82" y="854"/>
    </contour>
    <contour>
      <point x="86" y="487" type="line" smooth="yes"/>
      <point x="86" y="398"/>
      <point x="83" y="348"/>
      <point x="62" y="315" type="curve" smooth="yes"/>
      <point x="50" y="299"/>
      <point x="24" y="283"/>
      <point x="7" y="283" type="curve" smooth="yes"/>
      <point x="-7" y="283"/>
      <point x="-17" y="287"/>
      <point x="-23" y="290" type="curve"/>
      <point x="-13" y="277" type="line"/>
      <point x="43" y="284" type="line"/>
      <point x="23" y="296" type="line" smooth="yes"/>
      <point x="8" y="304"/>
      <point x="-3" y="307"/>
      <point x="-14" y="307" type="curve" smooth="yes"/>
      <point x="-28" y="307"/>
      <point x="-37" y="301"/>
      <point x="-40" y="289" type="curve"/>
      <point x="-38" y="280"/>
      <point x="-24" y="270"/>
      <point x="5" y="270" type="curve" smooth="yes"/>
      <point x="31" y="270"/>
      <point x="57" y="279"/>
      <point x="79" y="306" type="curve" smooth="yes"/>
      <point x="107" y="342"/>
      <point x="112" y="385"/>
      <point x="112" y="523" type="curve" smooth="yes"/>
      <point x="112" y="748" type="line"/>
      <point x="105" y="753" type="line"/>
      <point x="25" y="736" type="line"/>
      <point x="25" y="720" type="line"/>
      <point x="86" y="718" type="line"/>
    </contour>
  </outline>
</glyph>
<glyph name="r.sups" format="1">
  <advance width="264"/>
  <unicode hex="02B3"/>
  <outline>
    <contour>
      <point x="218" y="740" type="curve"/>
      <point x="182" y="739" type="line"/>
      <point x="200" y="730" type="line" smooth="yes"/>
      <point x="214" y="723"/>
      <point x="224" y="719"/>
      <point x="235" y="719" type="curve" smooth="yes"/>
      <point x="248" y="719"/>
      <point x="257" y="726"/>
      <point x="258" y="737" type="curve"/>
      <point x="254" y="750"/>
      <point x="237" y="758"/>
      <point x="221" y="758" type="curve" smooth="yes"/>
      <point x="174" y="758"/>
      <point x="130" y="720"/>
      <point x="110" y="659" type="curve"/>
      <point x="120" y="666" type="line"/>
      <point x="100" y="666" type="line"/>
      <point x="100" y="633" type="line"/>
      <point x="112" y="633" type="line"/>
      <point x="136" y="695"/>
      <point x="168" y="730"/>
    </contour>
    <contour>
      <point x="104" y="460" type="line"/>
      <point x="96" y="460" type="line"/>
      <point x="29" y="453" type="line"/>
      <point x="29" y="437" type="line"/>
      <point x="175" y="437" type="line"/>
      <point x="175" y="453" type="line"/>
    </contour>
    <contour>
      <point x="113" y="437" type="line"/>
      <point x="113" y="662" type="line"/>
      <point x="110" y="748" type="line"/>
      <point x="103" y="753" type="line"/>
      <point x="26" y="736" type="line"/>
      <point x="26" y="720" type="line"/>
      <point x="87" y="718" type="line"/>
      <point x="87" y="437" type="line"/>
    </contour>
  </outline>
</glyph>
<glyph name="w.sups" format="1">
  <advance width="504"/>
  <unicode hex="02B7"/>
  <outline>
    <contour>
      <point x="454" y="723" type="line"/>
      <point x="500" y="729" type="line"/>
      <point x="500" y="746" type="line"/>
      <point x="379" y="746" type="line"/>
      <point x="379" y="729" type="line"/>
      <point x="446" y="723" type="line"/>
    </contour>
    <contour>
      <point x="61" y="723" type="line"/>
      <point x="130" y="729" type="line"/>
      <point x="130" y="746" type="line"/>
      <point x="-3" y="746" type="line"/>
      <point x="-3" y="729" type="line"/>
      <point x="53" y="723" type="line"/>
    </contour>
    <contour>
      <point x="254" y="723" type="line"/>
      <point x="262" y="723" type="line"/>
      <point x="321" y="729" type="line"/>
      <point x="321" y="746" type="line"/>
      <point x="195" y="746" type="line"/>
      <point x="195" y="729" type="line"/>
    </contour>
    <contour>
      <point x="255" y="706" type="line"/>
      <point x="249" y="705" type="line"/>
      <point x="347" y="430" type="line"/>
      <point x="360" y="430" type="line"/>
      <point x="465" y="746" type="line"/>
      <point x="444" y="746" type="line"/>
      <point x="353" y="463" type="line"/>
      <point x="362" y="460" type="line"/>
      <point x="263" y="746" type="line"/>
      <point x="252" y="746" type="line"/>
      <point x="147" y="460" type="line"/>
      <point x="157" y="458" type="line"/>
      <point x="65" y="746" type="line"/>
      <point x="36" y="746" type="line"/>
      <point x="141" y="430" type="line"/>
      <point x="155" y="430" type="line"/>
    </contour>
  </outline>
</glyph>
<glyph name="y.sups" format="1">
  <advance width="332"/>
  <unicode hex="02B8"/>
  <outline>
    <contour>
      <point x="281" y="723" type="line"/>
      <point x="334" y="729" type="line"/>
      <point x="334" y="746" type="line"/>
      <point x="211" y="746" type="line"/>
      <point x="211" y="729" type="line"/>
      <point x="273" y="723" type="line"/>
    </contour>
    <contour>
      <point x="65" y="723" type="line"/>
      <point x="134" y="729" type="line"/>
      <point x="134" y="746" type="line"/>
      <point x="-5" y="746" type="line"/>
      <point x="-5" y="729" type="line"/>
      <point x="57" y="723" type="line"/>
    </contour>
    <contour>
      <point x="178" y="451" type="line"/>
      <point x="65" y="746" type="line"/>
      <point x="36" y="746" type="line"/>
      <point x="165" y="416" type="line"/>
    </contour>
    <contour>
      <point x="44" y="284" type="curve"/>
      <point x="57" y="277" type="line"/>
      <point x="73" y="282" type="line"/>
      <point x="57" y="296" type="line" smooth="yes"/>
      <point x="43" y="307"/>
      <point x="31" y="314"/>
      <point x="19" y="314" type="curve" smooth="yes"/>
      <point x="7" y="314"/>
      <point x="-4" y="308"/>
      <point x="-7" y="296" type="curve"/>
      <point x="-2" y="281"/>
      <point x="20" y="270"/>
      <point x="46" y="270" type="curve" smooth="yes"/>
      <point x="91" y="270"/>
      <point x="131" y="313"/>
      <point x="165" y="403" type="curve" smooth="yes"/>
      <point x="295" y="746" type="line"/>
      <point x="274" y="746" type="line"/>
      <point x="160" y="437" type="line" smooth="yes"/>
      <point x="119" y="325"/>
      <point x="94" y="296"/>
    </contour>
  </outline>
</glyph>
<glyph name="l.sups" format="1">
  <advance width="194"/>
  <unicode hex="02E1"/>
  <outline>
    <contour>
      <point x="102" y="460" type="line"/>
      <point x="95" y="460" type="line"/>
      <point x="22" y="453" type="line"/>
      <point x="22" y="437" type="line"/>
      <point x="175" y="437" type="line"/>
      <point x="175" y="453" type="line"/>
    </contour>
    <contour>
      <point x="27" y="909" type="line"/>
      <point x="27" y="893" type="line"/>
      <point x="86" y="891" type="line"/>
      <point x="86" y="437" type="line"/>
      <point x="112" y="437" type="line"/>
      <point x="112" y="917" type="line"/>
      <point x="103" y="923" type="line"/>
    </contour>
  </outline>
</glyph>
